<svg
  xmlns="http://www.w3.org/2000/svg"
  width="24"
  height="24"
  viewBox="0 0 24 24"
  fill="none"
  stroke="currentColor"
  stroke-width="2"
  stroke-linecap="round"
  stroke-linejoin="round"
>
  <path d="M8 .16a7.84 7.84 0 1 0 0 15.68A7.84 7.84 0 0 0 8 .16zm4.325 13.045h.048l-.048.043zm-8.65.032l-.048-.043h.048zm9.194-.533a5.924 5.924 0 0 0-.204-.848 2.91 2.91 0 0 0-1.845-1.717 8.708 8.708 0 0 0-2.637-.402l-.194.002a8.817 8.817 0 0 0-2.853.412c-.813.256-1.497.909-1.808 1.744a5.67 5.67 0 0 0-.194.79 6.608 6.608 0 0 1-1.928-4.701 6.795 6.795 0 1 1 13.59 0 6.771 6.771 0 0 1-1.924 4.738z" />
  <path d="M10.587 6.272a2.587 2.587 0 1 1-5.173 0 2.587 2.587 0 0 1 5.173 0z" />
</svg>
