<svg
  xmlns="http://www.w3.org/2000/svg"
  width="24"
  height="24"
  viewBox="0 0 24 24"
  fill="none"
  stroke="currentColor"
  stroke-width="2"
  stroke-linecap="round"
  stroke-linejoin="round"
>
  <path d="M14.539 7.344a5.046 5.046 0 0 0-.404-.505l.004.004a3.693 3.693 0 0 1-1.883.509c-.217 0-.429-.018-.636-.054a3.626 3.626 0 0 1-.955 1.732 7.49 7.49 0 0 1 1.594 3.431l3.58.046c0-2.528-.592-4.139-1.301-5.163z" />
  <path d="M11.771 6.272a2.816 2.816 0 1 0-1.877-4.361 2.794 2.794 0 0 0-.391.876c1.331.633 2.246 1.95 2.268 3.483z" />
  <path d="M4.197 7.328a3.509 3.509 0 0 1-.437 0 3.786 3.786 0 0 1-1.916-.543C.992 7.808.16 9.509.16 12.507h3.387a7.537 7.537 0 0 1 1.647-3.489 3.673 3.673 0 0 1-.989-1.663z" />
  <path d="M3.771 6.315a2.91 2.91 0 0 0 .31-.034 3.823 3.823 0 0 1 2.374-3.535 2.206 2.206 0 0 0-.349-.846 2.821 2.821 0 1 0-2.335 4.41z" />
  <path d="M7.92 10.171a3.82 3.82 0 0 1-1.927-.543c-.852.975-1.684 2.676-1.684 5.674h7.221c0-2.992-.837-4.699-1.701-5.664a3.783 3.783 0 0 1-1.907.533z" />
  <path d="M5.333 5.216a2.827 2.827 0 1 0 .008-.019z" />
</svg>
