<svg
  xmlns="http://www.w3.org/2000/svg"
  width="24"
  height="24"
  viewBox="0 0 24 24"
  fill="none"
  stroke="currentColor"
  stroke-width="2"
  stroke-linecap="round"
  stroke-linejoin="round"
>
  <path d="M11.072 4.427a3.072 3.072 0 1 1-6.143.001 3.072 3.072 0 0 1 6.143-.001z" />
  <path d="M13.557 11.136a3.558 3.558 0 0 0-2.204-2.126 10.335 10.335 0 0 0-3.364-.477 10.478 10.478 0 0 0-3.391.495c-.961.321-1.77 1.098-2.147 2.088-.414 1.292-.824 2.926-1.145 4.591l13.436.292a45.697 45.697 0 0 0-1.272-5.193zM8 15.381l-.837-.752.443-3.659h.784l.443 3.659zm.459-4.677h-.917l-.405-1.483H8.87z" />
</svg>
