<svg
  xmlns="http://www.w3.org/2000/svg"
  width="24"
  height="24"
  viewBox="0 0 24 24"
  fill="none"
  stroke="currentColor"
  stroke-width="2"
  stroke-linecap="round"
  stroke-linejoin="round"
>
  <path d="M8 0L.581 3.323h14.837L7.999 0z" />
  <path d="M15.419 13.696h-.741v-.704h-.533V5.488h.533V4.8h.741v-.976H.582V4.8h.853v.704h.533v7.488h-.533v.704H.582v.901h14.837zm-11.483 0v-.704h-.533V5.488h.533V4.8h1.067v.704h.533v7.488h-.533v.704zm3.579 0v-.704h-.533V5.488h.533V4.8h1.067v.704h.533v7.488h-.533v.704zm3.578 0v-.704h-.533V5.488h.533V4.8h1.067v.704h.533v7.488h-.533v.704z" />
  <path d="M.053 15.099h15.893V16H.053v-.901z" />
</svg>
