<svg
  xmlns="http://www.w3.org/2000/svg"
  width="24"
  height="24"
  viewBox="0 0 24 24"
  fill="none"
  stroke="currentColor"
  stroke-width="2"
  stroke-linecap="round"
  stroke-linejoin="round"
>
  <path d="M8.741 12.059a.72.72 0 1 1-1.44 0 .72.72 0 0 1 1.44 0z" />
  <path d="M7.968 3.595A2.89 2.89 0 0 0 5.083 6.48a.534.534 0 0 0 1.066.001 1.818 1.818 0 0 1 3.632-.219L7.648 8.336a.532.532 0 0 0-.16.381v1.309a.533.533 0 1 0 1.066 0V8.959l2.133-2.085a.532.532 0 0 0 .16-.381v-.008a2.89 2.89 0 0 0-2.879-2.891z" />
  <path d="M8 .08a7.92 7.92 0 1 0 0 15.84A7.92 7.92 0 0 0 8 .08zm0 14.773A6.853 6.853 0 1 1 8 1.147a6.853 6.853 0 0 1 0 13.706z" />
</svg>
