<svg
  xmlns="http://www.w3.org/2000/svg"
  width="24"
  height="24"
  viewBox="0 0 24 24"
  fill="none"
  stroke="currentColor"
  stroke-width="2"
  stroke-linecap="round"
  stroke-linejoin="round"
>
  <path d="M12.8 8.341h-1.6v-.965H6.059s-.192 1.963.875 2.896c0 0-1.6-.533-1.531-2.896h-.736v.965H3.2v.005a4.8 4.8 0 0 0 4.559 4.794l-.661 1.163c-.608.128-1.029.379-1.029.677 0 .421.837.763 1.872.763s1.872-.341 1.872-.763c0-.277-.368-.533-.907-.651l-.688-1.189a4.802 4.802 0 0 0 4.581-4.795V8.34zm-8.72.774h.677c.331 1.485 1.638 2.579 3.2 2.579s2.869-1.094 3.196-2.558l.788-.022c-.373 1.851-1.986 3.226-3.92 3.226s-3.547-1.375-3.916-3.2z" />
  <path d="M11.2 3.109C11.2 1.541 9.76.272 7.947.272s-3.28 1.269-3.28 2.837v3.627H11.2z" />
</svg>
