<svg
  xmlns="http://www.w3.org/2000/svg"
  width="24"
  height="24"
  viewBox="0 0 24 24"
  fill="none"
  stroke="currentColor"
  stroke-width="2"
  stroke-linecap="round"
  stroke-linejoin="round"
>
  <path d="M5.3 5.6c-.4.4-1 .35-1.35-.1s-.3-1.15.05-1.55 1-.35 1.35.1c.35.45.35 1.15-.05 1.55z" />
  <path d="M2.85 14s.3-1.95.35-2.3c.1-.35.25-.5.6-.4.3.1.75.25 1.25.35.4.15 1.4 0 1.65-1.15 0 0 .6-2.65-.7-3.85-.35-.3-.95-.55-1.4-.15-.4.45-.95 1.7-.95 1.7s-1.3-.5-1.6-.55c-.65-.15-.85.25-.15.65 1.1.6 1.85.9 2.1.8.2-.1.65-.6.65-.6L4.8 10c-.55-.15-.95-.25-1.1-.3-.4-.1-1.3-.2-1.5 1.1s-.3 2.65-.3 2.65z" />
  <path d="M8.55 6.2c-.4.4-1 .35-1.35-.1s-.3-1.15.1-1.55c.4-.4 1-.35 1.35.1.3.45.3 1.15-.1 1.55z" />
  <path d="M6.1 14.6s.3-1.95.35-2.3c.1-.35.25-.5.6-.4s.75.25 1.25.35c.4.15 1.4 0 1.65-1.15 0 0 .6-2.65-.7-3.85-.35-.3-.95-.55-1.4-.15-.4.45-.95 1.7-.95 1.7s-1.3-.5-1.6-.55c-.65-.15-.85.25-.15.65 1.1.6 1.85.9 2.1.8.25-.15.7-.65.7-.65l.15 1.5c-.55-.15-.95-.25-1.1-.3-.4-.1-1.3-.2-1.5 1.1S5.2 14 5.2 14z" />
  <path d="M12.65 10.8c-1.2.55-2.75.85-4.6.85-2.4 0-4.4-.55-5.65-1.5l-.25.35c1.35.95 3.45 1.5 5.9 1.5 1.9 0 3.6-.35 4.9-.9l-.3-.3z" />
  <path d="M15.65 8.25H14.95c-.1 0-.2.05-.25.1-1.05 1.55-3.6 2.5-6.65 2.5s-5.6-.95-6.65-2.5a.382.382 0 0 0-.25-.1H.45c-.1 0-.2.1-.2.15 0 2.8 3.5 5.1 7.8 5.1s7.8-2.3 7.8-5.1c0-.05-.1-.1-.2-.15zM15.2 9.5l-.1.1c-.8 2.05-3.65 3.55-7.05 3.55-3.3 0-6.05-1.45-6.95-3.4V9.7v-.05L.8 9l-.15-.4h.3l.35.4c0-.05-.05-.05-.05-.1 1.25 1.4 3.8 2.25 6.8 2.25 2.4 0 4.5-.55 5.9-1.5l.9-.75.35-.3.4.2-.4.7z" />
  <path d="M11.9 6c-.4.4-1 .35-1.35-.1s-.3-1.15.1-1.55c.4-.4 1-.35 1.35.1.3.45.3 1.15-.1 1.55z" />
  <path d="M9.45 14.4s.3-1.95.35-2.3c.1-.35.25-.5.6-.4.3.1.75.25 1.25.35.4.15 1.4 0 1.65-1.15 0 0 .6-2.65-.7-3.85-.35-.3-.95-.55-1.4-.15-.4.45-.95 1.7-.95 1.7s-1.3-.5-1.6-.55C8 7.9 7.8 8.3 8.5 8.7c1.1.6 1.85.9 2.1.8.25-.15.7-.65.7-.65l.15 1.5c-.55-.15-.95-.25-1.1-.3-.4-.1-1.3-.2-1.5 1.1s-.3 2.65-.3 2.65z" />
</svg>
