<svg
  xmlns="http://www.w3.org/2000/svg"
  width="24"
  height="24"
  viewBox="0 0 24 24"
  fill="none"
  stroke="currentColor"
  stroke-width="2"
  stroke-linecap="round"
  stroke-linejoin="round"
>
  <path d="M12.8.229a3.073 3.073 0 0 0-3.021 2.547l-8.84.018H.937a.795.795 0 0 0-.584 1.334l5.136 5.589a1.204 1.204 0 0 0 .527 1.485l.006 3.576a5.33 5.33 0 0 0-2.478 1.002l6.222-.01a5.291 5.291 0 0 0-2.436-.989l-.028-3.582a1.211 1.211 0 0 0 .445-1.464l3.454-3.8A3.067 3.067 0 1 0 12.804.228zm2.24 2.87h-1.771l1.248-1.248c.288.338.478.767.522 1.239zM6.976 9.376L8.992 4.96h-6.8L.939 3.595h11.36zm6.011-8.309c.482.048.911.242 1.251.536l-1.251 1.214zm-.4 1.749l-1.248-1.248c.34-.28.77-.463 1.24-.501zm.4 1.157a.75.75 0 0 0 .057-.128l1.196 1.189a2.234 2.234 0 0 1-1.239.533zM11.056 1.84l.944.955h-1.419c.087-.365.252-.682.477-.947zm1.531 2.608v1.099a2.24 2.24 0 0 1-.813-.219zm1.93.299l-1.243-1.248h1.765a2.247 2.247 0 0 1-.52 1.257z" />
</svg>
