<svg
  xmlns="http://www.w3.org/2000/svg"
  width="24"
  height="24"
  viewBox="0 0 24 24"
  fill="none"
  stroke="currentColor"
  stroke-width="2"
  stroke-linecap="round"
  stroke-linejoin="round"
>
  <path d="M14.35 7.25v2c0 .15-.05.25-.15.3-.1.1-.2.15-.3.15s-.25-.05-.3-.15c-.1-.1-.15-.2-.15-.3v-1.7h-.3v4.35c0 .15-.05.25-.15.4s-.25.15-.4.15c-.15 0-.25-.05-.4-.15-.1-.1-.15-.25-.15-.4V9.7h-.3v2.2c0 .15-.05.25-.15.4s-.25.15-.4.15c-.15 0-.25-.05-.4-.15-.1-.1-.15-.25-.15-.4V7.55h-.3v1.7c0 .15-.05.25-.15.3-.1.1-.2.15-.3.15-.15 0-.25-.05-.3-.15-.1-.05-.1-.2-.1-.3v-2c0-.25.1-.45.25-.65.2-.2.4-.25.65-.25h3.05c.25 0 .45.1.65.25.15.2.25.4.25.65zM13 5.1c0 .3-.1.55-.3.75s-.45.3-.75.3-.55-.1-.75-.3c-.2-.2-.3-.45-.3-.75s.1-.55.3-.75c.2-.2.45-.3.75-.3s.55.1.75.3c.2.25.3.5.3.75z" />
  <path d="M8.25 2.35v12" />
  <path d="M7.55 8.95c0 .15-.05.25-.15.35s-.2.15-.35.15c-.15 0-.3-.05-.4-.2L5.55 7.6h-.2v.65l1.2 1.95c.05.05.05.1.05.15 0 .1-.05.15-.1.2s-.15.1-.2.1h-.9v1.3c0 .15-.05.25-.15.4-.1.1-.25.15-.4.15H4.1c-.15 0-.25-.05-.4-.15-.1-.1-.15-.25-.15-.4v-1.3h-.9c-.1 0-.15-.05-.2-.1s-.1-.15-.1-.2c0-.05 0-.1.05-.15l1.2-1.95V7.6h-.25l-1.1 1.65c-.1.15-.2.2-.4.2-.15 0-.25-.05-.35-.15s-.15-.2-.15-.35c0-.1.05-.2.1-.25L2.7 6.85c.25-.35.5-.5.85-.5H5.4c.35 0 .6.15.85.5L7.5 8.7c.05.05.05.15.05.25zm-2-3.85c0 .3-.1.55-.3.75s-.45.3-.75.3-.55-.1-.75-.3-.3-.45-.3-.75.05-.55.3-.75c.2-.2.45-.3.75-.3s.55.1.75.3.3.45.3.75z" />
</svg>
