<svg
  xmlns="http://www.w3.org/2000/svg"
  width="24"
  height="24"
  viewBox="0 0 24 24"
  fill="none"
  stroke="currentColor"
  stroke-width="2"
  stroke-linecap="round"
  stroke-linejoin="round"
>
  <path d="M14.907 14.059c.349-.447.56-1.016.56-1.635v-.003a2.7 2.7 0 1 0-5.402 0c.001.522.152 1.008.412 1.419a18.155 18.155 0 0 0-1.638-.39l-.987-5.984a2.292 2.292 0 0 1 1.685-.735c.493 0 .95.155 1.325.42a.267.267 0 0 0 .355-.063 2.29 2.29 0 0 1 3.207-.53.267.267 0 0 0 .404-.289C13.404.687 8.322.767 6.759.927V.794a.4.4 0 1 0-.789.135v.131C4.439 1.412-.393 2.985.087 8.745a.266.266 0 0 0 .19.234h.077a.268.268 0 0 0 .213-.106 2.29 2.29 0 0 1 3.207-.53c.035.023.086.04.141.04a.263.263 0 0 0 .214-.108 2.288 2.288 0 0 1 2.956-.667l.916 5.722a16.31 16.31 0 0 0-2.2-.144h-.085a7.202 7.202 0 0 0-5.703 2.795l15.988.016v-2.549c-.304.271-.67.48-1.073.603zM3.861 7.776a2.636 2.636 0 0 0-1.427-.414c-.713 0-1.36.279-1.838.735C.533 3.643 4.08 2.133 5.712 1.68 4.8 2.395 3.36 4.133 3.861 7.776zm2.987-6.32h.235c1.067.405 3.141 1.637 3.851 5.157a2.767 2.767 0 0 0-1.425-.391c-.676 0-1.296.24-1.78.64zm6.523 9.925a.421.421 0 1 1 0 .842.421.421 0 0 1 0-.842zm-2.768 1.04a2.166 2.166 0 0 1 1.558-2.071 2.9 2.9 0 0 1 .826.72.812.812 0 0 0-.426.87 5.003 5.003 0 0 0-1.943.817c-.001-.107-.013-.219-.015-.334zm2.165 2.166a2.244 2.244 0 0 1-.29-.028 8.6 8.6 0 0 0 .687-1.895c.072-.051.14-.042.21-.042.277 0 .521-.14.666-.352.28.269.527.569.741.894a2.13 2.13 0 0 1-2.008 1.428zm1.413-2.854a.817.817 0 0 0-.381-.638c.068-.14.13-.302.174-.47.419.27.725.689.864 1.178a3.353 3.353 0 0 0-.654-.07h-.004z" />
</svg>
