<svg
  xmlns="http://www.w3.org/2000/svg"
  width="24"
  height="24"
  viewBox="0 0 24 24"
  fill="none"
  stroke="currentColor"
  stroke-width="2"
  stroke-linecap="round"
  stroke-linejoin="round"
>
  <path d="M2.885 6.933a.892.892 0 0 0 .209.168l.004 1.576c0 .295.239.533.533.533h8.709a.533.533 0 0 0 .533-.533V7.141a.895.895 0 0 0 .266-.197 1.353 1.353 0 0 0 .277-.967V4.265a.768.768 0 0 0-.768-.768h-1.392v-1.6h-.843v1.6H8.418v-1.6h-.843v1.6H5.58v-1.6h-.843v1.6H3.372a.768.768 0 0 0-.768.768v1.707a1.368 1.368 0 0 0 .279.963zm.192-.949V4.267a.3.3 0 0 1 .299-.299h9.248a.3.3 0 0 1 .299.299v1.782a.895.895 0 0 1-.161.61.534.534 0 0 1-.427.157c-.403 0-.499-.171-.643-.432a.92.92 0 0 0-.858-.592h-.023a.987.987 0 0 0-.909.602c-.146.268-.232.396-.536.396-.368 0-.475-.192-.624-.459a.87.87 0 0 0-.738-.565.87.87 0 0 0-.764.564c-.151.273-.258.465-.626.465-.283 0-.363-.128-.533-.389a.988.988 0 0 0-.924-.64h-.016a.918.918 0 0 0-.856.586c-.146.268-.242.438-.647.438a.533.533 0 0 1-.421-.154.908.908 0 0 1-.138-.639z" />
  <path d="M14.64 12.608v-1.873a.71.71 0 0 0-.682-.709H2.042a.66.66 0 0 0-.469.197.754.754 0 0 0-.213.527v1.836a1.263 1.263 0 0 0 .242.905.777.777 0 0 0 .371.219l.005 1.756c0 .295.239.533.533.533H13.45a.533.533 0 0 0 .533-.533v-1.744a.79.79 0 0 0 .421-.239 1.24 1.24 0 0 0 .234-.881zm-1.36.315a.784.784 0 0 0-.736-.533h-.01a.85.85 0 0 0-.8.565c-.124.246-.178.326-.364.326s-.325-.133-.453-.379-.267-.533-.656-.533-.533.304-.656.533-.208.379-.453.379-.24-.08-.363-.32a.834.834 0 0 0-1.599-.005c-.124.246-.177.326-.364.326s-.325-.133-.453-.379-.267-.533-.656-.533-.533.304-.656.533-.208.379-.453.379-.24-.08-.363-.32a.85.85 0 0 0-.794-.587.785.785 0 0 0-.735.528c-.114.23-.183.363-.471.363l-.03.001a.36.36 0 0 1-.258-.108.827.827 0 0 1-.133-.57v-1.837c0-.077.031-.146.08-.197a.193.193 0 0 1 .138-.059h11.916a.24.24 0 0 1 .214.239l-.001.024v1.876a.81.81 0 0 1-.135.536.362.362 0 0 1-.256.105l-.031-.001c-.287.005-.356-.128-.468-.352z" />
  <path d="M5.163 1.6h.007a.533.533 0 0 0 .526-.622c0-.397-.533-.973-.533-.973S4.63.581 4.63.981a.533.533 0 0 0 .526.618h.007zm0-.837s.24.261.24.443a.245.245 0 1 1-.484-.001c.005-.185.245-.447.245-.447z" />
  <path d="M8 1.6h.007a.533.533 0 0 0 .526-.622C8.533.576 8 0 8 0s-.533.576-.533.976a.533.533 0 0 0 .525.624H8zm0-.837s.24.261.24.443a.245.245 0 1 1-.484-.001c.005-.185.245-.447.245-.447z" />
  <path d="M10.837 1.6h.007a.533.533 0 0 0 .526-.622c0-.397-.533-.973-.533-.973s-.533.576-.533.976a.533.533 0 0 0 .526.618h.007zm0-.837s.24.261.24.443a.245.245 0 1 1-.484-.001c.005-.185.245-.447.245-.447z" />
</svg>
