<svg
  xmlns="http://www.w3.org/2000/svg"
  width="24"
  height="24"
  viewBox="0 0 24 24"
  fill="none"
  stroke="currentColor"
  stroke-width="2"
  stroke-linecap="round"
  stroke-linejoin="round"
>
  <path d="M7.6 10.165c2.789-.725 4.533 1.6 4.533 1.6L8.448.762z" />
  <path d="M16.912 10.048c2.133-.709 3.648 1.376 3.648 1.376l-3.387-7.509z" />
  <path d="M20.507 15.109c-.949 0-1.024.533-1.952.533-.811 0-1.152-.533-2.133-.533s-1.189.571-2.085.571-1.344-.571-2.293-.571-1.6.597-2.315.597-1.195-.597-2.368-.597c-1.312 0-1.6.891-2.485.891h17.845c-.976 0-.976-.891-2.213-.891z" />
  <path d="M7.36 14.443c1.2 0 1.632.597 2.347.597s1.365-.597 2.315-.597 1.344.571 2.293.571 1.067-.571 2.085-.571 1.344.533 2.133.533.987-.421 1.712-.501l.293-3.04-3.989-.288.277-7.904-.288.533-4.427 8c1.947-2.272 3.413-2.027 3.968-1.808l-.043 1.147-1.867-.133-.416.88a291.848 291.848 0 0 1-6.8-.395L7.913 0l-.389.608L.233 10.949C3.166 8.394 5.806 9.44 6.59 9.85l-.128 1.563C3.027 11.2.233 10.949.233 10.949v.453l2.576.533s.965 2.293 2.816 3.141a2.935 2.935 0 0 1 1.728-.635z" />
</svg>
