<svg
  xmlns="http://www.w3.org/2000/svg"
  width="24"
  height="24"
  viewBox="0 0 24 24"
  fill="none"
  stroke="currentColor"
  stroke-width="2"
  stroke-linecap="round"
  stroke-linejoin="round"
>
  <path d="M13.333 14.133H1.674V5.456h11.659v2.405l1.531-.992V3.802a.981.981 0 0 0-.964-.976h-1.809v.656a1.253 1.253 0 0 1-2.506 0v-.656H5.489v.656a1.253 1.253 0 0 1-2.506 0v-.656H1.127a.981.981 0 0 0-.981.976v10.902a.98.98 0 0 0 .981.981H13.9a.98.98 0 0 0 .981-.981v-3.147l-1.547.992z" />
  <path d="M2.603 6.763h2.56v2.56h-2.56v-2.56z" />
  <path d="M8.816 6.763h-2.56v2.56h1.253a1.906 1.906 0 0 1 1.293-1.181z" />
  <path d="M2.603 10.421h2.56v2.56h-2.56v-2.56z" />
  <path d="M6.256 10.421v2.56h2.56v-.661l-.901-.939a1.937 1.937 0 0 1-.494-.947z" />
  <path d="M10.757 8.667l.533.533 1.195-.773V6.763h-2.56v1.392c.328.103.608.28.831.511z" />
  <path d="M17.296 7.637c-.763-1.152-2.363.363-3.061.821l-3.109 2.021c-.571-.597-1.685-2.181-2.565-1.067-.459.587-.069 1.141.352 1.6s.805.848 1.221 1.253c.795.805 1.477.224 2.224-.261l3.147-2.043c.699-.443 2.512-1.216 1.792-2.325z" />
  <path d="M4.235 4.267a.763.763 0 0 0 .763-.763V1.067a.763.763 0 1 0-1.526 0v2.437c0 .421.341.763.763.763z" />
  <path d="M10.837 4.267a.763.763 0 0 0 .763-.763V1.067a.763.763 0 1 0-1.526 0v2.437c0 .421.341.763.763.763z" />
</svg>
