<svg
  xmlns="http://www.w3.org/2000/svg"
  width="24"
  height="24"
  viewBox="0 0 24 24"
  fill="none"
  stroke="currentColor"
  stroke-width="2"
  stroke-linecap="round"
  stroke-linejoin="round"
>
  <path d="M11.461.597c-2.981 0-5.397.469-5.397 1.067v.405c0 .581 2.416 1.067 5.397 1.067s5.397-.469 5.397-1.067v-.421c0-.581-2.416-1.051-5.397-1.051z" />
  <path d="M16.533 3.461c-.731.411-2.741.704-5.099.704s-4.368-.293-5.099-.704a.204.204 0 0 0-.299.179v.712h-.34a5.537 5.537 0 1 0 4.07 9.289c.537.028 1.07.05 1.662.05 2.981 0 5.397-.469 5.397-1.067v-.944-.003a.203.203 0 0 0-.3-.178c-.73.41-2.74.703-5.098.703h-.699c.166-.344.303-.745.394-1.164l.305-.036c2.981 0 5.397-.469 5.397-1.067v-.933-.003a.203.203 0 0 0-.3-.178c-.73.41-2.74.703-5.098.703h-.203a5.508 5.508 0 0 0-.218-1.25l.421.039c2.981 0 5.397-.469 5.397-1.067v-.928-.003a.203.203 0 0 0-.3-.178c-.73.41-2.74.703-5.098.703h-1.104a5.632 5.632 0 0 0-1.167-1.271 28.45 28.45 0 0 0 2.271.093c2.981 0 5.397-.469 5.397-1.067V3.64a.203.203 0 0 0-.295-.181zm-6.4 6.4a4.437 4.437 0 1 1-4.437-4.437h.043a4.443 4.443 0 0 1 4.443 4.443z" />
  <path d="M5.477 7.264v.085a1.531 1.531 0 0 0-1.675 1.43c0 .82.57 1.119 1.674 1.434v1.019c-.677-.149-.752-.8-1.211-.8a.533.533 0 0 0-.533.533c0 .496.624 1.152 1.723 1.152v.347c0 .197.091.272.235.272s.235-.075.235-.272v-.347c.864-.032 1.712-.475 1.712-1.429 0-.832-.533-1.243-1.712-1.536v-.907c.571.123.72.597 1.067.597l.032.001a.501.501 0 0 0 .501-.497c0-.683-1.131-1.003-1.6-1.003v-.085c0-.197-.091-.272-.235-.272s-.213.08-.213.277zm0 1.776c-.272-.032-.533-.187-.533-.453s.277-.347.533-.368zm.475 1.296c.288.053.533.165.533.485s-.229.395-.533.421z" />
</svg>
