<svg
  xmlns="http://www.w3.org/2000/svg"
  width="24"
  height="24"
  viewBox="0 0 24 24"
  fill="none"
  stroke="currentColor"
  stroke-width="2"
  stroke-linecap="round"
  stroke-linejoin="round"
>
  <path d="M13.195 8.709a.722.722 0 0 1 .144.117.767.767 0 0 1 .164.754c.49.427.804 1.046.834 1.738 0 2.021-3.05 3.664-6.8 3.664S.732 13.334.732 11.334c0-.901.613-1.728 1.6-2.368l-.053-.117a1.281 1.281 0 0 1-.127-.365C.951 9.228.199 10.231.199 11.335c0 2.309 3.291 4.192 7.339 4.192s7.333-1.883 7.333-4.192a3.072 3.072 0 0 0-1.182-2.261l1.908-.005a1.6 1.6 0 0 0 1.468-1.056.273.273 0 0 0 .027-.112.235.235 0 0 0-.235-.235h-3.586a.97.97 0 0 1-.077 1.048z" />
  <path d="M17.952 1.483a2.325 2.325 0 0 0-1.497-.688h-.007a.32.32 0 0 0-.314-.32h-7.84a.32.32 0 0 0-.293.319v.007c.001 1.717.286 3.367.81 4.907.114-.22.299-.289.5-.289h.002a.94.94 0 0 1 .74.371l.002.002a.728.728 0 0 1 .729.002.872.872 0 0 1 .257.205 1.076 1.076 0 0 1 .563-.132c.165.001.323.04.463.109a1.137 1.137 0 0 1 .525 1.188l2.134-.007a.31.31 0 0 0 .261-.143c.234-.376.443-.807.605-1.261.927-.047 2.607-.581 2.815-2.383a2.253 2.253 0 0 0-.457-1.892zm-.427 1.76a1.73 1.73 0 0 1-1.595 1.482c.229-.88.395-1.909.457-2.965.338-.019.637.123.861.341a1.385 1.385 0 0 1 .275 1.156z" />
  <path d="M1.829 11.989c.491.741 1.813.768 2.448.779H4.4c.344.016.654.151.892.364.18.121.409.276.713.447a3.861 3.861 0 0 0 1.818.346h-.004a8.185 8.185 0 0 0 4.48-1.326c.742-.514 1.035-1.202.811-1.917a1.762 1.762 0 0 0-.143-.312 2.294 2.294 0 0 0-.317-.425c.252-.233.502-.532.321-.751a.16.16 0 0 0-.058-.037h-.289a.206.206 0 0 1-.069-.058c-.15-.193.576-.912.314-1.131a.212.212 0 0 0-.141-.053h-.003c-.075 0-.149.027-.229.027a.301.301 0 0 1-.239-.122.742.742 0 0 1-.117-.539l-.001-.14a2.522 2.522 0 0 0-.001-.262l.001-.014a.487.487 0 0 0-.254-.427.534.534 0 0 0-.226-.055c-.326 0-.534.368-.72.368h-.048c-.133-.043-.123-.149-.155-.261a.313.313 0 0 0-.163-.186.214.214 0 0 0-.103-.027c-.197 0-.325.315-.501.315-.149 0-.059-.16-.277-.437a.417.417 0 0 0-.325-.176.35.35 0 0 0-.225.091c.133.245.214.537.219.846l.128.002c.041.003.08.008.117.017.23.059.42.215.526.421.074.199.115.424.115.658s-.041.459-.118.667q-.246-.077-.529-.125c0-.085.043-.176.059-.267.02-.081.037-.179.047-.279l.001-.137.001-.032a.452.452 0 0 0-.16-.346.28.28 0 0 0-.089-.037h-.05c-.16 0-.219.208-.395.208h-.091c-.283-.096-.037-1.307-.443-1.355h-.053a.26.26 0 0 0-.129.038l.001-.001a.807.807 0 0 0-.112.096.635.635 0 0 1-.105.089l-.002.001a.317.317 0 0 1-.154.043.497.497 0 0 1-.141 0 .49.49 0 0 1-.174-.091l-.052-.053a1.065 1.065 0 0 1-.095-.095l-.065-.086-.075-.107-.117-.187-.053-.08-.085-.123-.064-.075-.085-.091-.075-.053a.507.507 0 0 0-.098-.052l-.1-.001a.496.496 0 0 0-.163 0c-.664.09-.477.885-.792.981h-.069a.192.192 0 0 1-.102-.038l-.091-.08a.506.506 0 0 0-.099-.073l-.003-.001a.364.364 0 0 0-.149-.037h-.145c-.368.037-.192.603-.443.715h-.064a.124.124 0 0 1-.065 0h.001l-.091-.069-.117-.075a1.106 1.106 0 0 0-.184-.078.643.643 0 0 0-.184-.029h-.08a.481.481 0 0 0-.179.038l.003-.001a.405.405 0 0 0-.133.101.426.426 0 0 0-.069.136l-.001.035a.48.48 0 0 0 .001.179c.042.296.389.717.09.957a.418.418 0 0 1-.274.101h-.259a.246.246 0 0 0-.186.085c-.166.182 0 .331.096.598a1.034 1.034 0 0 1-.002.594l-.014-.007a3.09 3.09 0 0 0-.656.618 2.818 2.818 0 0 0-.42.523 1.347 1.347 0 0 0 .029 1.341zm4.144-3.034a1.427 1.427 0 0 0-.88 1.222c0 .82.89 1.482 1.984 1.482s1.989-.661 1.989-1.477A1.486 1.486 0 0 0 8.01 8.889c2.582.115 4.256 1.027 4.555 1.96a1.17 1.17 0 0 1-.628 1.32c-2.087 1.395-4.86 1.406-5.682.947a7.424 7.424 0 0 1-.677-.427 1.946 1.946 0 0 0-1.175-.453h-.137c-.501 0-1.68-.032-2.016-.533a.846.846 0 0 1 .002-.81c.472-1.068 1.71-1.713 3.72-1.937zm1.862.314a3.633 3.633 0 0 0-1.31.118c-.465.175-.844.458-.577.634a.256.256 0 0 1-.178.479c-.024-.008-.665-.426-.174-.885a2.003 2.003 0 0 1 1.608-.586c.686.037.92.234.632.239z" />
</svg>
