<svg
  xmlns="http://www.w3.org/2000/svg"
  width="24"
  height="24"
  viewBox="0 0 24 24"
  fill="none"
  stroke="currentColor"
  stroke-width="2"
  stroke-linecap="round"
  stroke-linejoin="round"
>
  <path d="M13.029.949A22.867 22.867 0 0 0 7.982.474C7.903.472 7.79.472 7.677.472c-1.666 0-3.292.174-4.86.504-.529.127-1.03.728-1.031 1.445v11.2a.614.614 0 0 0 .613.603h.853v.565a.737.737 0 0 0 1.472 0v-.565h6.544v.565a.737.737 0 0 0 1.472 0v-.565h.853a.613.613 0 0 0 .613-.613v-11.2A1.51 1.51 0 0 0 13.038.952zm-8.565.795c0-.18.146-.325.325-.325h6.41c.18 0 .325.146.325.325v.251c0 .18-.146.325-.325.325h-6.4a.325.325 0 0 1-.325-.325zm-.469 10.965a.853.853 0 1 1 0-1.706.853.853 0 0 1 0 1.706zm6.085.854H5.92v-1.099h4.16zm1.925-.848a.853.853 0 1 1 .853-.853.853.853 0 0 1-.853.848zm.854-4.294a.614.614 0 0 1-.591.608H3.734a.613.613 0 0 1-.613-.613V3.733a.613.613 0 0 1 .613-.597h8.533a.615.615 0 0 1 .592.597z" />
</svg>
