<svg
  xmlns="http://www.w3.org/2000/svg"
  width="24"
  height="24"
  viewBox="0 0 24 24"
  fill="none"
  stroke="currentColor"
  stroke-width="2"
  stroke-linecap="round"
  stroke-linejoin="round"
>
  <path d="M17.915 2.565H2.134a1.069 1.069 0 0 0-.958.713L.144 6.427A2.938 2.938 0 0 0 0 7.344v4.502h2.341v-.075a2.251 2.251 0 0 1 4.502 0v.075h5.552v-.075a2.251 2.251 0 0 1 4.502 0v.075h1.771V3.313a.753.753 0 0 0-.752-.747zM3.632 8.725a.267.267 0 0 1-.267.267H1.872a.267.267 0 0 1-.267-.267V7.354v-.025c0-.182.029-.357.084-.52l.866-2.655a.268.268 0 0 1 .254-.187h.535c.147 0 .267.119.267.267zm4.747-2.069c0 .074-.06.133-.133.133H5.163a.133.133 0 0 1-.133-.133V4.101c0-.074.06-.133.133-.133h3.083c.074 0 .133.06.133.133zm4.592 0c0 .074-.06.133-.133.133h-3.2a.133.133 0 0 1-.133-.133V4.101c0-.074.06-.133.133-.133h3.2c.074 0 .133.06.133.133zm4.304-1.397v1.264a.267.267 0 0 1-.267.267h-2.469a.267.267 0 0 1-.267-.267V4.235c0-.147.119-.267.267-.267h2.421c.174 0 .315.141.315.315z" />
  <path d="M4.587 10.133a1.664 1.664 0 1 0 0 3.328 1.664 1.664 0 0 0 0-3.328zm0 2.358a.693.693 0 1 1 .693-.693.694.694 0 0 1-.693.672z" />
  <path d="M14.645 10.133a1.664 1.664 0 1 0 0 3.328 1.664 1.664 0 0 0 0-3.328zm0 2.358a.693.693 0 1 1 .693-.693.694.694 0 0 1-.693.672z" />
</svg>
