<svg
  xmlns="http://www.w3.org/2000/svg"
  width="24"
  height="24"
  viewBox="0 0 24 24"
  fill="none"
  stroke="currentColor"
  stroke-width="2"
  stroke-linecap="round"
  stroke-linejoin="round"
>
  <path d="M16.192 2.293c-2.859 0-6.592 4.315-7.323 5.173V7.26a.34.34 0 0 0-.096-.237 4.738 4.738 0 0 1 .795-2.241c.139-.154.395-.069.592-.213s.304-.347.144-.384h-.028a.857.857 0 0 0-.409.104 1.71 1.71 0 0 0-.252.201h-.032a4.335 4.335 0 0 0-.964 2.428c-.026.003-.055-.003-.086-.003s-.06.006-.087.018a4.344 4.344 0 0 0-.986-2.402l.006.007h-.032a1.607 1.607 0 0 0-.25-.199.846.846 0 0 0-.411-.106h-.029c-.159.037.001.283.145.384s.453.059.603.229c.422.624.702 1.377.777 2.189a.435.435 0 0 0-.095.256v.174C7.465 6.606 3.731 2.292.873 2.292c-2.085 0 .107 2.133.416 3.307s.107 2.133.533 2.469c.401.231.866.415 1.358.527a1.896 1.896 0 0 0-1.231 1.77c0 .393.122.758.33 1.059 1.111 2.047 2.812 2.847 3.889 1.909a14.475 14.475 0 0 0 2.046-2.498l.066 1.176c0 .192.037.341.229.341s.229-.155.229-.341l.032-1.232c.626.963 1.317 1.8 2.092 2.551 1.071.942 2.788.142 3.897-1.911a1.86 1.86 0 0 0-.926-2.812 5.24 5.24 0 0 0 1.404-.55c.429-.302.221-1.272.509-2.456s2.528-3.312.443-3.307z" />
</svg>
