<svg
  xmlns="http://www.w3.org/2000/svg"
  width="24"
  height="24"
  viewBox="0 0 24 24"
  fill="none"
  stroke="currentColor"
  stroke-width="2"
  stroke-linecap="round"
  stroke-linejoin="round"
>
  <path d="M13.75 9.9a5.8 5.8 0 1 1-11.6 0 5.8 5.8 0 0 1 11.6 0z" />
  <path d="M2.6 7.5s3.8-3.35 5.15-3.4C9.05 4.1 13 7.9 13 7.9l3.1-2.4L7.75.25 0 5.1l2.6 2.4z" />
  <path d="M4.4 6.1S2.25 5 2.25 3.9 4.8.1 8.05.1s5.55 2.5 5.55 3.8-3.2 2.55-3.2 2.55l-6-.35z" />
  <path d="M9.35 3.85c-.25.4-.75.65-1.3.65S7 4.25 6.75 3.85l-.25.25v-.8h.8l-.2.2c.15.3.45.5.8.55V2.9c-.35-.1-.6-.4-.6-.75 0-.45.35-.8.8-.8s.8.35.8.8c0 .35-.25.65-.6.75v1.15c.35-.05.65-.25.8-.55l-.2-.2h.8v.8l-.35-.25zm-.9-1.7c0-.2-.15-.4-.4-.4-.2 0-.4.15-.4.4s.15.4.4.4c.2 0 .4-.2.4-.4z" />
</svg>
