<svg
  xmlns="http://www.w3.org/2000/svg"
  width="24"
  height="24"
  viewBox="0 0 24 24"
  fill="none"
  stroke="currentColor"
  stroke-width="2"
  stroke-linecap="round"
  stroke-linejoin="round"
>
  <path d="M15.035 10.448h-.267V7.669l-1.152-1.483s-.619-2.219-.816-2.987-.64-1.125-1.189-1.125H4.39c-.549 0-1.003.315-1.189 1.125s-.816 2.987-.816 2.987L1.233 7.669v2.779H.966a.283.283 0 0 0-.283.283v1.173c0 .156.127.283.283.283h1.328v1.158c0 .321.26.581.581.581h.859a.581.581 0 0 0 .56-.581v-1.153h7.413v1.152c0 .314.248.569.559.581h.859a.58.58 0 0 0 .581-.581v-1.152h1.328a.283.283 0 0 0 .283-.283v-1.178a.283.283 0 0 0-.283-.283zM4.747 9.781V8.533h6.555v1.269zm8.304-1.392a.741.741 0 1 1 0 1.483.741.741 0 0 1 0-1.483zm-8.72-5.573h7.339l.981 3.349H3.35zM2.949 8.389a.741.741 0 1 1 0 1.483.741.741 0 0 1 0-1.483z" />
</svg>
