<svg
  xmlns="http://www.w3.org/2000/svg"
  width="24"
  height="24"
  viewBox="0 0 24 24"
  fill="none"
  stroke="currentColor"
  stroke-width="2"
  stroke-linecap="round"
  stroke-linejoin="round"
>
  <path d="M16.944 6.699a6.95 6.95 0 0 0-.824-.285c-.143-.036-.213-.097-.247-.177L14.667 3.52a.728.728 0 0 0-.628-.411H6.64a1.032 1.032 0 0 0-.681.382L3.941 6.266a.286.286 0 0 1-.207.133 7.27 7.27 0 0 0-2.471.702C.479 7.546.111 9.749-.006 10.623a.3.3 0 0 0 .297.336H2.394a2.4 2.4 0 0 1 4.8 0h3.792a2.4 2.4 0 0 1 4.8 0h.681a.3.3 0 0 0 .179-.059l.869-.645a.302.302 0 0 0 .123-.24V7.764a1.014 1.014 0 0 0-.686-1.064zM9.909 6.4a.24.24 0 0 1-.24.24H5.594a.24.24 0 0 1-.187-.39l1.477-2.101a.242.242 0 0 1 .187-.091h2.597a.24.24 0 0 1 .24.24zm4.315.24H11.2a.24.24 0 0 1-.24-.24V4.267a.24.24 0 0 1 .239-.219h2.3a.24.24 0 0 1 .223.158l.737 2.103a.24.24 0 0 1-.226.32h-.009z" />
  <path d="M13.36 12.891a1.82 1.82 0 1 0 0-3.638 1.82 1.82 0 0 0 0 3.638zm0-2.582c.37.003.675.272.735.625l.001.004a.625.625 0 0 1 0 .131v-.003a.763.763 0 1 1-1.52-.003v.003a.625.625 0 0 1 0-.131v.003a.754.754 0 0 1 .786-.624z" />
  <path d="M4.8 12.891a1.82 1.82 0 1 0 0-3.638 1.82 1.82 0 0 0 0 3.638zm0-2.582c.37.003.675.272.735.625l.001.004a.625.625 0 0 1 0 .131v-.003a.763.763 0 1 1-1.52-.003v.003a.625.625 0 0 1 0-.131v.003a.754.754 0 0 1 .786-.624z" />
</svg>
