<svg
  xmlns="http://www.w3.org/2000/svg"
  width="24"
  height="24"
  viewBox="0 0 24 24"
  fill="none"
  stroke="currentColor"
  stroke-width="2"
  stroke-linecap="round"
  stroke-linejoin="round"
>
  <path d="M8 .08a7.92 7.92 0 1 0 0 15.84A7.92 7.92 0 0 0 8 .08zm.091 11.861h-.044a3.835 3.835 0 0 1-3.835-3.835l.002-.112v.005l-.001-.086a3.856 3.856 0 0 1 3.936-3.855 3.962 3.962 0 0 1 2.977 1.188l-.858.993a3.023 3.023 0 0 0-2.13-.949 2.566 2.566 0 0 0-2.523 2.565l.002.107v-.005a2.57 2.57 0 0 0 2.515 2.698 2.971 2.971 0 0 0 2.187-.979l.882.915a3.927 3.927 0 0 1-3.117 1.349z" />
</svg>
