<svg
  xmlns="http://www.w3.org/2000/svg"
  width="24"
  height="24"
  viewBox="0 0 24 24"
  fill="none"
  stroke="currentColor"
  stroke-width="2"
  stroke-linecap="round"
  stroke-linejoin="round"
>
  <path d="M0 16h16a13.892 13.892 0 0 0-5.502-3.059c-.301-.702-.418-1.481-.418-2.287 0-1.233.273-2.403.762-3.451l.512 1.41.421.101-.24.411a3.91 3.91 0 0 1 .06 1.694c-.028.157.094.104.185-.056s1.237-2.048.219-3.632c.511.336.904.817 1.124 1.383l.423.158-.16.533a6.69 6.69 0 0 1 .329 1.629c-.057.413.215.093.306-.125s2.096-4.075-2.507-4.533c0 0 .48-.715 2.032-.613l.416-.48.176.496s1.253.853 1.376.88.219-.101.224-.464-.272-2.048-1.92-2.101-2.443 1.819-2.443 1.819.704-2.832-1.397-3.733a2.103 2.103 0 0 0-2.907 1.011c-.326.739-.005.152.373.131.614.037 1.182.113 1.737.227.092.019.455-.28.455-.28v.533s1.312.731 1.099 1.995c0 0-1.344-2.027-3.675-1.371S4.873 6.573 4.852 6.679s0 .256.405 0a6.834 6.834 0 0 1 1.019-.516l.389-.508.469.261s2.133-.069 3.077.347c0 0-2.256-.171-3.109 1.211a3.457 3.457 0 0 0-.605 1.963c0 .249.026.492.076.726.023.095.14.42.38-.119.209-.425.443-.79.713-1.126l-.009-.554.267.048s1.963-1.632 2.251-1.6c0 0-1.744 3.136-1.563 5.867-.213 0-.432-.032-.651-.032a10.257 10.257 0 0 0-3.839.788 6.653 6.653 0 0 0-.848-3.073c.505.317.924.619 1.308.959l.146-.034v.32c.148.185.281.393.391.615.142.324.212.143.228.073a1.974 1.974 0 0 0-.292-1.527c-.481-.777-1.766-.681-1.766-.681a5.52 5.52 0 0 1 1.762-.197l.254-.15.192.277c.235.096.435.2.625.319.202.145.223.06.213-.01s.059-1.019-1.269-1.392a1.943 1.943 0 0 0-2.087.773.361.361 0 0 1-.008-.093 1.2 1.2 0 0 1 .669-1.076l.007-.307s.208.171.304.149c.271-.057.594-.101.924-.122.239-.001.239-.07.239-.07a1.198 1.198 0 0 0-1.654-.557c-1.188.53-.788 2.13-.788 2.13s-.464-1.067-1.387-1.035A1.186 1.186 0 0 0 .218 9.904v.006c0 .208.059.277.128.261s.784-.501.784-.501l.101-.283.235.272c.88-.059 1.157.347 1.157.347-2.619.261-1.477 2.453-1.424 2.581s.208.309.171.085c.017-.341.074-.662.167-.967l-.098-.271.235-.08c.133-.331.358-.601.644-.785-.575.897.076 1.969.129 2.06s.123.123.101 0a2.185 2.185 0 0 1 .041-.965l-.137-.219.213-.053.293-.773c.269.569.425 1.236.425 1.94 0 .449-.064.883-.183 1.293a13.273 13.273 0 0 0-3.215 2.159z" />
</svg>
