<svg
  xmlns="http://www.w3.org/2000/svg"
  width="24"
  height="24"
  viewBox="0 0 24 24"
  fill="none"
  stroke="currentColor"
  stroke-width="2"
  stroke-linecap="round"
  stroke-linejoin="round"
>
  <path d="M15.216 6.4V5.333h-1.115V4.058H12.8v1.275h-1.067V6.4h-.725V16H16V6.4zm-2.869 8.693h-.533V7.248h.533zm1.381 0h-.533V7.248h.533zm1.381 0h-.533V7.248h.533z" />
  <path d="M0 16h9.915V0H0zm5.707-1.888H4.208v-1.509h1.509zm0-2.667H4.208v-1.52h1.509zm0-2.666H4.208V7.248h1.509zm0-2.667H4.208V4.571h1.509zm2.586 8.032H6.8v-1.541h1.509zm0-2.667H6.8V9.925h1.509zm0-2.666H6.8V7.248h1.509zm0-2.667H6.8V4.571h1.509zM1.6 1.408h6.704v1.52H1.6zm0 3.163h1.531V6.08H1.6zm0 2.666h1.531v1.509H1.6zm0 2.667h1.531v1.509H1.6zm0 2.667h1.531v1.509H1.6z" />
</svg>
