<svg
  xmlns="http://www.w3.org/2000/svg"
  width="24"
  height="24"
  viewBox="0 0 24 24"
  fill="none"
  stroke="currentColor"
  stroke-width="2"
  stroke-linecap="round"
  stroke-linejoin="round"
>
  <path d="M8.7 8.6l-2.6.05c-.1 0-.25.2-.25.4z" />
  <path d="M6 11.65h4.2c.15 0-.25-4.55-.25-4.55H4l-2.6.1c-.1 0-.25.25-.25.5 0 .1-.05.8.35 1.7.4.95 1.6 2.25 4.5 2.25z" />
  <path d="M14.55 9.3c.4-.9.35-1.6.35-1.7 0-.25-.1-.5-.25-.5l-2.6-.1H6.1s-.4 4.55-.25 4.55H10c2.9.1 4.1-1.2 4.55-2.25z" />
  <path d="M3.5 11.9l-.8.15-.9 1.85c.3.6 1.1 1 1.7.85l.9-1.85-.35-.75L7.3 5.6l.8-.15.9-1.8c-.3-.6-1.1-1-1.7-.85l-.9 1.85.35.75-3.25 6.5z" />
  <path d="M3.5 14.75l.9-1.85-.35-.75L7.3 5.6l.8-.15.9-1.8c-.15-.3-.4-.55-.7-.7l-5.8 11.7c.35.1.7.15 1 .1z" />
  <path d="M4.8 5.65l.35-.75-.95-1.8c-.65-.1-1.4.3-1.7.85l.95 1.8.8.15 3.35 6.5-.35.75.95 1.8c.65.1 1.45-.3 1.7-.85l-.95-1.8-.8-.15-3.35-6.5z" />
  <path d="M2.5 3.95l.95 1.8.8.15 3.35 6.5-.35.75.95 1.8c.3.05.65 0 1-.15l-6-11.6c-.3.2-.55.45-.7.75z" />
</svg>
