<svg
  xmlns="http://www.w3.org/2000/svg"
  width="24"
  height="24"
  viewBox="0 0 24 24"
  fill="none"
  stroke="currentColor"
  stroke-width="2"
  stroke-linecap="round"
  stroke-linejoin="round"
>
  <path d="M20.085 10.565H19.2a3.864 3.864 0 0 0-2.394-2.078l-.081-.007c-1.035-1.067-2.133-1.6-3.301-1.573a4.799 4.799 0 0 0-3.196 1.595 3.767 3.767 0 0 0-1.417.515L8.827 1.6a.267.267 0 1 0-.534 0v.437H7.152v.443h1.163v.464H7.152v.443h1.163v.464H7.152v.443h1.163v5.099a3.407 3.407 0 0 0-.76 1.129l-.926.023a.58.58 0 0 0-.581.581v.661c0 .321.26.581.581.581h.304l1.493 2.261h9.813l1.493-2.245h.331a.58.58 0 0 0 .581-.581v-.661a.582.582 0 0 0-.559-.576zm-1.504 0h-.533a2.64 2.64 0 0 0-1.496-1.142 2.545 2.545 0 0 0-.657-.085h-.007c-.6.001-1.167.144-1.669.399a1.734 1.734 0 0 0-.304-.32 3.967 3.967 0 0 1 1.956-.504c.272 0 .538.026.795.077a3.217 3.217 0 0 1 1.912 1.557zm-3.733 0a4.566 4.566 0 0 0-.275-.423c.39-.162.835-.264 1.304-.265h.024c.181 0 .357.023.524.067.372.11.699.328.943.618zm-2.245-1.882c.238-.137.522-.219.825-.224.327.004.634.076.911.203-.365.12-.664.26-.948.425a2.707 2.707 0 0 0-.74-.4zm.821-1.254c.926.001 1.769.36 2.397.946a4.218 4.218 0 0 0-.852.099 2.29 2.29 0 0 0-1.504-.539h-.037a2.29 2.29 0 0 0-1.483.599 4.79 4.79 0 0 0-.855-.082 3.938 3.938 0 0 1 2.341-1.028zm-2.4 1.536a3.649 3.649 0 0 1 3.191 1.588l-.525.012a3.277 3.277 0 0 0-2.674-1.163c-1.395 0-2.088.597-2.43 1.162h-.491c.373-.72 1.163-1.6 2.949-1.605zm1.915 1.6H9.275a2.327 2.327 0 0 1 1.789-.629c.023-.002.06-.002.097-.002.683 0 1.311.238 1.805.636z" />
  <path d="M9.525 4.859a.267.267 0 0 0 .267-.267V1.6a.267.267 0 1 0-.534 0v2.992c0 .147.119.267.267.267z" />
  <path d="M10.464 4.859a.267.267 0 0 0 .267-.267v-.277h1.355l.821-.784h6.597v-.693h-6.597l-.816-.784h-1.36v-.453a.267.267 0 1 0-.534 0v2.992c0 .147.119.267.267.267zm.997-.987h-.731v-.469h.731zm0-1.371v.464h-.731v-.469z" />
  <path d="M3.003 9.243a1.868 1.868 0 0 0 1.196-.772c1.135-1.665-.225-5.185-.284-5.34l-.048-.128H.907l-.048.128C.8 3.28-.544 6.806.592 8.464c.278.399.7.681 1.188.772.076.23.224.417.418.533l.004 3.789h-.069a2.788 2.788 0 0 1-1.498.797c-.348.072-.396.253.052.269s1.696 0 1.696 0h1.696c.448 0 .4-.197.069-.267a2.794 2.794 0 0 1-1.482-.784h-.059V9.786A.898.898 0 0 0 3 9.248zM.917 8.245C0 6.933.954 4.053 1.184 3.413h2.405c.243.652.447 1.424.577 2.22l-3.03.073s-.357 2.757 1.323 3.2H2.39a1.64 1.64 0 0 1-1.469-.657z" />
</svg>
