<svg
  xmlns="http://www.w3.org/2000/svg"
  width="24"
  height="24"
  viewBox="0 0 24 24"
  fill="none"
  stroke="currentColor"
  stroke-width="2"
  stroke-linecap="round"
  stroke-linejoin="round"
>
  <path d="M16.379 6.976h-.576a2.921 2.921 0 0 0-1.809-1.568l-.063-.005a3.316 3.316 0 0 0-2.499-1.195A3.6 3.6 0 0 0 9.028 5.42a2.85 2.85 0 0 0-1.082.4L7.958.192a.192.192 0 1 0-.378.001v.34h-.901v.336h.896v.352h-.896v.325h.896v.352h-.896v.336h.896v3.664c0 .058.027.11.069.144A2.565 2.565 0 0 0 7 6.959l-.598.017a.533.533 0 0 0-.533.533v.277c0 .295.239.533.533.533h.139l1.131 1.717h7.467l1.131-1.717h.139a.533.533 0 0 0 .533-.533v-.277-.001a.533.533 0 0 0-.533-.533l-.028.001zm-1.024 0h-.421a1.993 1.993 0 0 0-1.117-.85 1.912 1.912 0 0 0-.487-.062h-.013a2.783 2.783 0 0 0-1.268.306 1.43 1.43 0 0 0-.251-.259 3.023 3.023 0 0 1 1.505-.391c.2 0 .395.019.584.054a2.473 2.473 0 0 1 1.462 1.189zm-2.838 0a3.352 3.352 0 0 0-.214-.323 2.573 2.573 0 0 1 1.025-.215h.011c.138 0 .272.018.4.05.288.086.54.255.728.48zM10.8 5.547c.189-.114.417-.183.66-.187.259.002.503.061.721.164a3.703 3.703 0 0 0-.75.332 2.116 2.116 0 0 0-.609-.303zm.651-.966c.73.002 1.393.288 1.884.753a3.183 3.183 0 0 0-.689.072c-.294-.26-.7-.415-1.143-.415h-.026a1.729 1.729 0 0 0-1.141.449 3.538 3.538 0 0 0-.675-.065H9.66a3.026 3.026 0 0 1 1.78-.794zM9.632 5.749a2.783 2.783 0 0 1 2.437 1.217l-.436.01a2.472 2.472 0 0 0-2.011-.869 1.97 1.97 0 0 0-1.824.862l-.41.007c.272-.576.875-1.227 2.245-1.227zm1.472 1.227H8.272a1.769 1.769 0 0 1 1.372-.485c.02-.002.051-.002.083-.002.524 0 1.005.184 1.382.49z" />
  <path d="M8.48 2.635a.192.192 0 0 0 .192-.192V.192a.192.192 0 1 0-.378.001v2.25c0 .104.083.189.186.192z" />
  <path d="M9.195 2.635a.192.192 0 0 0 .192-.192v-.208h1.067l.619-.592h5.003V1.11h-5.029l-.619-.576H9.361V.193a.192.192 0 1 0-.378.001v2.251c0 .106.086.192.192.192l.022-.001zm.757-.736h-.571v-.352h.565zm0-1.067v.352h-.571V.859z" />
  <path d="M.139 11.067h6.224l.571.832h.955v3.168H6.001a.848.848 0 0 0-.848.848V16h6.763v-.085a.848.848 0 0 0-.848-.848H9.169v-3.168h.965l.587-.832h6.208v-.533H.14z" />
  <path d="M2.629 6.021c.05.139.139.254.254.335l.002 2.903a2.13 2.13 0 0 1-1.134.601c-.264.055-.301.194.04.205s1.285 0 1.285 0h1.285c.341 0 .304-.149.053-.203a2.143 2.143 0 0 1-1.147-.597V6.358a.689.689 0 0 0 .249-.331c.402-.074.741-.299.958-.613.856-1.285-.173-3.973-.21-4.085l-.053-.123H1.912l-.048.128c-.043.112-1.067 2.805-.197 4.08.222.317.56.54.951.607zM2.176 1.6h1.776c.178.483.329 1.056.425 1.646l-2.243.055s-.267 1.941.859 2.373a1.184 1.184 0 0 1-1.011-.476c-.664-.968.014-3.064.195-3.598z" />
</svg>
