<svg
  xmlns="http://www.w3.org/2000/svg"
  width="24"
  height="24"
  viewBox="0 0 24 24"
  fill="none"
  stroke="currentColor"
  stroke-width="2"
  stroke-linecap="round"
  stroke-linejoin="round"
>
  <path d="M11.723 1.211a1.21 1.21 0 1 1-2.422 0 1.21 1.21 0 0 1 2.422 0z" />
  <path d="M5.755 6.4S5.088 7.419 4.8 7.883a.704.704 0 0 0 .2.926.836.836 0 0 0 .867-.143c.18-.223.948-1.311 1.13-1.599a.935.935 0 0 0 .078-1.25c-.209-.295-.43-.644-.633-1.003l2.032-1.08s1.552 1.957 1.957 2.421.704.32.885.224.443-.405 0-1.029l-2.4-3.376a1.183 1.183 0 0 0-1.536-.28c-.699.301-2.128 1.064-2.517 1.288a1.02 1.02 0 0 0-.404 1.533C4.964 5.243 5.753 6.4 5.753 6.4z" />
  <path d="M3.733 13.92c1.435 0 2.032.64 2.837.757.923-.213 1.6-1.12 3.115-1.12s1.888.779 2.827.779 1.792-.779 3.029-.779v-1.152c-1.237 0-2.091.779-3.029.779s-1.392-.779-2.965-.779-2.08.928-2.987 1.12V9.258H.469v5.803h.283c.939-.171 1.381-1.141 2.981-1.141z" />
  <path d="M12.8 15.579a4.337 4.337 0 0 1-1.805-.497 3.092 3.092 0 0 0-1.196-.245 3.666 3.666 0 0 0-1.311.265 5.178 5.178 0 0 1-1.692.522 4.674 4.674 0 0 1-1.684-.543 3.984 3.984 0 0 0-1.377-.249h-.046c-.437 0-.853.094-1.227.264-.765.339-1.197.904-1.992.904h15.061v-1.168h-.044c-.409 0-.795.095-1.139.263-.428.28-.964.46-1.541.484z" />
</svg>
