<svg
  xmlns="http://www.w3.org/2000/svg"
  width="24"
  height="24"
  viewBox="0 0 24 24"
  fill="none"
  stroke="currentColor"
  stroke-width="2"
  stroke-linecap="round"
  stroke-linejoin="round"
>
  <path d="M14.741 5.291v-.939h-1.104v-.944H.16v7.301h1.099v.939h1.104v.939H15.84V5.291zM.56 10.309V3.808h12.677v6.501zm1.099.939v-.533h11.979V4.752h.699v6.496zm13.776.939H2.763v-.533h11.979V5.691h.699z" />
  <path d="M.827 10.043h12.144V4.075H.827zm5.738-2.88a1.337 1.337 0 0 1-.692-.399.968.968 0 0 1-.204-.597v-.041c0-.153.029-.298.083-.432a.982.982 0 0 1 .641-.577c.125-.035.262-.058.402-.066l.004-.342h.251v.347c.245.009.471.085.661.211.268.181.445.49.445.839l-.002.057-.688-.003a.924.924 0 0 0-.077-.342.395.395 0 0 0-.343-.197h-.008v.981c.313.093.585.22.834.381.2.161.335.419.335.709l-.001.048a1.024 1.024 0 0 1-.471.94c-.202.123-.44.201-.693.216l-.004.534h-.267v-.533a1.758 1.758 0 0 1-.766-.229 1.115 1.115 0 0 1-.423-1.014l.698.005c.008.16.045.309.105.445a.54.54 0 0 0 .39.216l.002-1.093z" />
  <path d="M7.467 7.819l.001-.022a.438.438 0 0 0-.149-.329 1.058 1.058 0 0 0-.297-.153l-.008 1.006a.656.656 0 0 0 .296-.092.476.476 0 0 0 .157-.411z" />
  <path d="M6.773 5.627l-.026-.001a.451.451 0 0 0-.305.118.438.438 0 0 0-.106.316v.015c0 .132.062.25.159.325.08.056.173.099.272.127z" />
</svg>
