<svg
  xmlns="http://www.w3.org/2000/svg"
  width="24"
  height="24"
  viewBox="0 0 24 24"
  fill="none"
  stroke="currentColor"
  stroke-width="2"
  stroke-linecap="round"
  stroke-linejoin="round"
>
  <path d="M14.8 7.3h-3.7c-.4 0-.8.45-.8 1v1.55c0 .05.05.15.15.15h5.05c.05 0 .05-.1.05-.15V8.3c-.05-.6-.35-1-.75-1z" />
  <path d="M15.5 8.65c0-.05-.05-.15-.1-.15h-5.05c-.05 0-.1.05-.1.15v1.2c0 .05.05.15.1.15h5.05c.05 0 .1-.05.1-.15v-1.2z" />
  <path d="M10.25 10.25h5.25v.45h-5.25v-.45z" />
  <path d="M14.8 11.55h.35c.05 0 .05-.1.05-.25v-.4-.05h-.45v.45c0 .15.05.25.05.25z" />
  <path d="M14.75 11.25l.5.05v-.35-.05h-.45v.05l-.05.3z" />
  <path d="M14.75 4.5H10.9c-.05 0-.1.05-.1.1V7h4V4.6c0-.1 0-.1-.05-.1zM13.7 7h-1.75c0-.4-.1-.8-.1-.8 0-.05.05-.15.15-.15 0 0 .45.1.85.1s.8-.05.8-.05c.05 0 .15.05.15.15-.05-.05-.1.35-.1.75z" />
  <path d="M10.6 11.55h.35c.05 0 .05-.1.05-.25v-.4-.05h-.45v.45c.05.15.05.25.05.25z" />
  <path d="M10.6 11.25l.5.05v-.35-.05h-.5v.35z" />
  <path d="M8 7.5H1.8c-.7 0-1.3.4-1.3 1v1.45c0 .05.1.15.2.15h8.35c.1 0 .1-.1.1-.15V8.5c.05-.6-.5-1-1.15-1z" />
  <path d="M9.2 8.8c0-.05-.05-.1-.15-.1H.65c-.1 0-.15.05-.15.1v1.1c0 .05.05.1.15.1H9c.1 0 .15-.05.15-.1l.05-1.1z" />
  <path d="M8.7 4.65H1.05c-.05 0-.2.05-.2.15v2.5H8.8V4.8c.05-.1 0-.15-.1-.15zM4.4 7.3H2.65c0-.45-.1-.85-.1-.85 0-.1.05-.15.15-.15 0 0 .45.1.85.1s.8-.1.8-.1c.1 0 .15.05.15.15 0 0-.1.45-.1.85zm2.75 0H5.4c0-.45-.1-.85-.1-.85 0-.1.05-.15.15-.15 0 0 .45.1.85.1s.8-.1.8-.1c.1 0 .15.05.15.15 0 0-.1.45-.1.85z" />
  <path d="M.55 10.35h8.7v.45H.55v-.45z" />
  <path d="M1.1 11.6h.55c.05 0 .1-.1.1-.25V11c0-.05 0-.05-.05-.05H1v.4c0 .15.05.25.1.25z" />
  <path d="M1 11.25c0 .05 0 .05 0 0l.75.05v-.35-.05H1v.35z" />
  <path d="M8.05 11.6h.55c.05 0 .1-.1.1-.25V11c0-.05 0-.05-.05-.05H8v.4c0 .15 0 .25.05.25z" />
  <path d="M8 11.25c0 .05 0 .05 0 0l.75.05v-.35-.05H8v.35z" />
</svg>
