<svg
  xmlns="http://www.w3.org/2000/svg"
  width="24"
  height="24"
  viewBox="0 0 24 24"
  fill="none"
  stroke="currentColor"
  stroke-width="2"
  stroke-linecap="round"
  stroke-linejoin="round"
>
  <path d="M13.55 7.4H2.8C1.6 7.4.55 8.1.55 9.1v2.55c0 .1.2.25.35.25h14.5c.15 0 .2-.15.2-.25V9.1c.05-1-.9-1.7-2.05-1.7z" />
  <path d="M15.65 9.7c0-.1-.1-.2-.25-.2H.8c-.15 0-.25.1-.25.2v1.95c0 .1.1.2.25.2h14.55c.15 0 .25-.1.25-.2V9.7z" />
  <path d="M14.8 2.5H1.5c-.15 0-.35.05-.35.25V7.1H15V2.75c0-.2-.05-.25-.2-.25zM7.3 7.05H4.25c0-.75-.15-1.5-.15-1.5 0-.15.1-.25.25-.25 0 0 .8.15 1.5.15s1.4-.15 1.4-.15c.15 0 .25.1.25.25-.05.05-.2.8-.2 1.5zm4.75 0H9c0-.75-.15-1.5-.15-1.5 0-.15.1-.25.25-.25 0 0 .8.15 1.5.15S12 5.3 12 5.3c.15 0 .25.1.25.25-.05.05-.2.8-.2 1.5z" />
  <path d="M.55 12.4h15.1v.75H.55v-.75z" />
  <path d="M1.55 14.55h.95c.1 0 .2-.2.2-.4v-.65c0-.05 0-.05-.05-.05H1.4V14.15c-.05.2.05.4.15.4z" />
  <path d="M1.35 13.95V14h1.3v-.55-.05H1.4v.55z" />
  <path d="M13.65 14.55h.95c.1 0 .2-.2.2-.4v-.65c0-.05 0-.05-.05-.05H13.5V14.15c0 .2.05.4.15.4z" />
  <path d="M13.5 13.95V14h1.3v-.55-.05h-1.3v.55z" />
</svg>
