<svg
  xmlns="http://www.w3.org/2000/svg"
  width="24"
  height="24"
  viewBox="0 0 24 24"
  fill="none"
  stroke="currentColor"
  stroke-width="2"
  stroke-linecap="round"
  stroke-linejoin="round"
>
  <path d="M9.7 4.75v-1.3h1.55v-1.3H6.9v1.3h1.55v1.3" />
  <path d="M3.2 8.95H1.95V7H.75v5.2h1.2v-1.95H3.2" />
  <path d="M14.35 6.65v1.6h-.95V5.6c0-.35-.25-.6-.55-.6H6.6c-.15 0-.3.05-.4.2L4.75 7H3.8c-.3 0-.6.3-.6.65v3.9c0 .35.3.65.6.65h.95l1.45 1.75c.1.1.25.15.4.15h4c.15 0 .3-.05.4-.15l2.25-2.45c.1-.1.15-.25.15-.4v-.85h.95v1.6h1.25v-5.2h-1.25z" />
  <path d="M11.55 8.6c0-.05-.05-.1-.15-.1l-1.9-.25.9-1.9V6.2c0-.05-.1-.05-.15-.05H7.5c-.1 0-.15.05-.15.15L7.2 9.65c0 .1.05.15.15.15l1.35.2-1.8 3.1c-.05.1 0 .2.05.2h.1c.05 0 .1 0 .1-.05l4.4-4.5s.05-.05 0-.15z" />
</svg>
