<svg
  xmlns="http://www.w3.org/2000/svg"
  width="24"
  height="24"
  viewBox="0 0 24 24"
  fill="none"
  stroke="currentColor"
  stroke-width="2"
  stroke-linecap="round"
  stroke-linejoin="round"
>
  <path d="M14.741 5.291v-.939h-1.104v-.944H.16v7.301h1.099v.939h1.104v.939H15.84V5.291zM.56 10.309V3.808h12.677v6.501zm1.099.939v-.533h11.979V4.752h.699v6.496zm13.776.939H2.763v-.533h11.979V5.691h.699z" />
  <path d="M.827 4.075v5.968h12.144V4.075zm6.56 2.234l-.107.533H6.256v.512h.955l-.107.533H6.4c.028.069.06.129.098.185a.663.663 0 0 0 .563.311l.029.001c.21 0 .395-.107.503-.27.081-.129.141-.278.171-.437l.663-.008c-.043.392-.203.74-.444 1.015a1.175 1.175 0 0 1-.874.388l-.038-.001h-.025c-.427 0-.805-.209-1.037-.53a1.859 1.859 0 0 1-.304-.652l-.872-.013.107-.533h.635v-.512h-.741l.107-.533h.704c.065-.297.193-.558.371-.777.225-.284.574-.466.965-.466h.026a1.267 1.267 0 0 1 1.174.623c.132.209.215.454.232.716l-.672.005a1.148 1.148 0 0 0-.168-.415.623.623 0 0 0-.494-.242l-.038.001h.001a.645.645 0 0 0-.573.348c-.038.064-.07.135-.095.209z" />
</svg>
