<svg
  xmlns="http://www.w3.org/2000/svg"
  width="24"
  height="24"
  viewBox="0 0 24 24"
  fill="none"
  stroke="currentColor"
  stroke-width="2"
  stroke-linecap="round"
  stroke-linejoin="round"
>
  <path d="M17.664 9.003H.594a.443.443 0 0 0-.364.695l2.17 3.236a.44.44 0 0 0 .368.197H17.138c.207 0 .38-.142.429-.333l.945-3.795z" />
  <path d="M3.467 8.325H17.12a.437.437 0 0 0 .426-.536l-.223-1.021a.437.437 0 0 0-.427-.341h-.677-.001a.438.438 0 0 1-.414-.296l-.433-1.304a.438.438 0 0 0-.413-.294l-.025.001H8.534l.475-1.659h-.837-.001a.478.478 0 0 0-.398.212l-.966 1.447H5.381a.439.439 0 0 0-.365.196L3.1 7.654a.437.437 0 0 0 .368.672zm1.968-3.258h9.451l.411 1.237a.972.972 0 0 0 .92.661h.606l.181.832H3.671z" />
  <path d="M13.611 3.013H11.2l-.224 1.077h2.635V3.013z" />
  <path d="M6.336 5.952h1.029v1.029H6.336V5.952z" />
  <path d="M8.453 5.952h1.029v1.029H8.453V5.952z" />
  <path d="M10.571 5.952H11.6v1.029h-1.029V5.952z" />
  <path d="M12.693 5.952h1.029v1.029h-1.029V5.952z" />
</svg>
