<svg
  xmlns="http://www.w3.org/2000/svg"
  width="24"
  height="24"
  viewBox="0 0 24 24"
  fill="none"
  stroke="currentColor"
  stroke-width="2"
  stroke-linecap="round"
  stroke-linejoin="round"
>
  <path d="M14.235 9.168l-.997-.533V6.198l-2.085-3.333h-1.52L9.34.95a.645.645 0 0 0-.635-.533H7.297a.645.645 0 0 0-.634.529l-.294 1.919H4.844l-2.08 3.333v2.443l-.997.533a1.111 1.111 0 0 0-.53 1.373l1.875 5.054h4.624v-9.6L3.565 8.209V6.401l1.723-2.736h5.424l1.728 2.736v1.787L8.269 5.985v9.6h4.613l1.877-5.061a1.109 1.109 0 0 0-.517-1.351z" />
  <path d="M10.171 4.229H5.83l-.699 1.275h5.739l-.699-1.275z" />
</svg>
