<svg
  xmlns="http://www.w3.org/2000/svg"
  width="24"
  height="24"
  viewBox="0 0 24 24"
  fill="none"
  stroke="currentColor"
  stroke-width="2"
  stroke-linecap="round"
  stroke-linejoin="round"
>
  <path d="M15.819 11.163V9.6l-3.2-2.203V5.413h-1.883v.677l-1.339-.917c.043-1.317.059-2.421.048-2.971v-.005c0-.839-.419-1.581-1.059-2.027-.113-.079-.243-.124-.384-.124s-.271.044-.378.12a2.47 2.47 0 0 0-1.065 2.031v.005c0 .533 0 1.648.048 2.97l-1.344.917v-.677H3.386v1.963L.181 9.599v1.6l6.597-2.341c.079 1.673.258 3.237.534 4.768l-1.718 1.2v.875l1.792-.336s.224.581.613.581.613-.581.613-.581l1.792.336v-.875l-1.68-1.456c.243-1.312.423-2.877.498-4.468z" />
</svg>
