<svg
  xmlns="http://www.w3.org/2000/svg"
  width="24"
  height="24"
  viewBox="0 0 24 24"
  fill="none"
  stroke="currentColor"
  stroke-width="2"
  stroke-linecap="round"
  stroke-linejoin="round"
>
  <path d="M17.947 5.056c-.341.603-1.6 1.067-1.6 1.067l-.395-.736a3.49 3.49 0 0 0 1.073-.695 3.627 3.627 0 0 0-1.695.007L4.949 8.001a.224.224 0 0 1-.183 0L2.57 6.823a.23.23 0 0 0-.193.001l-1.097.415-.475.176.939.971.453.475-1.76.459a.369.369 0 0 0-.272.355v.008c0 .288.336.533.629.602s4.341.533 4.491.533h.059l3.424-.955a.229.229 0 0 1 .298.273l-1.413 4.073a.229.229 0 0 0 .295.292l1.652-.549a.75.75 0 0 0 .43-.364l3.234-4.943a.23.23 0 0 1 .132-.096l2.972-.843c1.525-.464 2.133-1.424 2.171-1.957-.011-.224-.235-.48-.592-.693zM7.733 8.949a.464.464 0 1 1 .464-.464.464.464 0 0 1-.464.464h-.006zm2.262-.624a.464.464 0 1 1 .464-.464.465.465 0 0 1-.464.459h-.006zm2.272-.741a.464.464 0 1 1 0-.929.464.464 0 0 1 0 .929zm2.261-.736a.464.464 0 1 1 .464-.464.464.464 0 0 1-.464.464l-.022-.001z" />
  <path d="M8.533 5.824a.732.732 0 0 0 .646.106l1.803-.532 1.685-.533-5.301-2.133a.657.657 0 0 0-.506-.047l-1.174.335-.72.203z" />
</svg>
