<svg
  xmlns="http://www.w3.org/2000/svg"
  width="24"
  height="24"
  viewBox="0 0 24 24"
  fill="none"
  stroke="currentColor"
  stroke-width="2"
  stroke-linecap="round"
  stroke-linejoin="round"
>
  <path d="M5.05 10.35L7 8.4H2.25c0 .05-.05.1-.1.15l-1.2 1.2c-.15.15-.45.15-.6 0s-.15-.45 0-.6l.75-.75H.45C.2 8.4 0 8.25 0 8s.2-.4.45-.4h.65l-.7-.7c-.15-.15-.15-.45 0-.6s.45-.15.6 0l1.15 1.2c.05.05.05.05.05.1H7L5.05 5.65c-.05 0-.1.05-.15.05H3.2c-.25 0-.4-.2-.4-.4 0-.25.2-.4.4-.4h1l-.65-.75c-.15-.15-.15-.45 0-.6s.45-.15.6 0l.7.7v-1c0-.25.2-.4.4-.4.25 0 .4.2.4.4v1.7c0 .05 0 .1-.05.15l1.95 1.95v-4.8c-.05 0-.1-.05-.1-.1L6.25.95C6.1.8 6.1.5 6.25.35s.45-.15.6 0l.7.7v-.6C7.6.2 7.75 0 8 0s.4.2.4.45v.65l.75-.75c.15-.15.45-.15.6 0s.15.45 0 .6l-1.2 1.2c-.05.05-.1.05-.15.1V7l1.95-1.95V3.2c0-.25.2-.4.4-.4.25 0 .4.2.4.4v1l.7-.7c.15-.15.45-.15.6 0s.15.45 0 .6l-.7.7h1.05c.25 0 .4.2.4.4 0 .25-.2.4-.4.4h-1.7c-.05 0-.1 0-.15-.05L9 7.6h4.8c0-.05.05-.05.05-.1l1.2-1.2c.15-.15.45-.15.6 0s.15.45 0 .6l-.7.7h.6c.25 0 .45.2.45.4 0 .25-.2.4-.45.4h-.65l.75.75c.15.15.15.45 0 .6s-.45.15-.6 0l-1.2-1.2c-.05-.05-.05-.1-.1-.15H9l1.95 1.95h1.8c.25 0 .4.2.4.4 0 .25-.2.4-.4.4h-1l.65.65c.15.15.15.45 0 .6s-.45.15-.6 0l-.7-.7v1.05c0 .25-.2.4-.4.4-.25 0-.4-.2-.4-.4v-1.7c0-.05 0-.1.05-.15L8.4 9v4.8c.05 0 .1.05.15.1l1.2 1.2c.15.15.15.45 0 .6s-.45.15-.6 0l-.75-.75v.65c0 .25-.2.45-.4.45-.25 0-.4-.2-.4-.45V15l-.7.7c-.15.15-.45.15-.6 0s-.15-.45 0-.6l1.2-1.2.1-.1V9l-1.95 1.95c0 .05.05.1.05.15v1.7c0 .25-.2.4-.4.4-.25 0-.4-.2-.4-.4v-1l-.7.7c-.15.15-.45.15-.6 0s-.15-.45 0-.6l.7-.7H3.2c-.25 0-.4-.2-.4-.4 0-.25.2-.4.4-.4h1.7c.05-.05.1-.05.15-.05z" />
</svg>
