<svg
  xmlns="http://www.w3.org/2000/svg"
  width="24"
  height="24"
  viewBox="0 0 24 24"
  fill="none"
  stroke="currentColor"
  stroke-width="2"
  stroke-linecap="round"
  stroke-linejoin="round"
>
  <path d="M11.829 8.4l-.107-.037a1.947 1.947 0 0 1-.939-1.016 2.738 2.738 0 0 1-.538.062h-.007c-.314 0-.611-.075-.873-.208l-.074-.048c-.037.032-.075.053-.112.091l-.075.075a1.52 1.52 0 0 0-.373 1.235c.028.203.096.394.195.565.156.26.388.471.664.602l.009.004c.091.045.198.083.309.11l.117.002a1.816 1.816 0 0 0 .223 0h.096c.108-.005.211-.02.309-.045l.08.002a1.6 1.6 0 0 0 .348-.153l.052-.039c.092-.062.172-.128.245-.202l.075-.075c.085-.095.16-.201.22-.317l.004-.009a1.49 1.49 0 0 0 .159-.593c.006-.107-.01.001-.01-.004z" />
  <path d="M9.269 6.651a1.553 1.553 0 0 0 1.409.28 1.208 1.208 0 0 1-.043-.35 1.928 1.928 0 0 1 .482-1.276 1.873 1.873 0 0 1-.445-.662 2.738 2.738 0 0 1-.538.062h-.007c-.314 0-.611-.075-.873-.208-.042-.022-.09-.059-.144-.091a1.528 1.528 0 0 0-.3 1.526c.033.094.074.184.123.269.084.171.199.323.336.45z" />
  <path d="M13.941 6.821a1.953 1.953 0 0 1-.934-1.016 2.738 2.738 0 0 1-.538.062h-.007c-.314 0-.611-.075-.873-.208-.048-.022-.096-.059-.149-.096a1.519 1.519 0 0 0-.394 1.218l-.001-.007v.037c.085.64.553 1.151 1.163 1.299l.117.002a1.816 1.816 0 0 0 .223 0h.096c.108-.005.211-.02.309-.045l.08.002a1.6 1.6 0 0 0 .348-.153l.052-.039c.092-.062.172-.128.245-.202l.075-.075c.185-.198.312-.452.356-.733a.36.36 0 0 1-.17-.045z" />
  <path d="M9.067 3.888c.1.094.214.176.338.241l.008.004a1.569 1.569 0 0 0 1.142.131 1.2 1.2 0 0 1-.042-.343c0-.745.422-1.391 1.039-1.713a1.444 1.444 0 0 0-.471-.659 1.506 1.506 0 0 0-.579-.283l-.117-.002a1.816 1.816 0 0 0-.223 0h-.096c-.108.005-.211.02-.309.045l-.08-.002a1.6 1.6 0 0 0-.348.153l-.052.039a1.578 1.578 0 0 0-.245.202l-.075.075a1.528 1.528 0 0 0-.3 1.526c.087.227.229.428.411.585z" />
  <path d="M16.16 4.304a1.543 1.543 0 0 0-.971-.739l-.117-.002a1.816 1.816 0 0 0-.223 0h-.096c-.108.005-.211.02-.309.045l-.053-.002a1.6 1.6 0 0 0-.348.153l.007-.004a1.555 1.555 0 0 0 .422 2.841l.106.002a1.816 1.816 0 0 0 .223 0h.096c.108-.005.211-.02.309-.045l.08.002a1.6 1.6 0 0 0 .348-.153l.052-.039c.092-.062.172-.128.245-.202l.075-.075a1.498 1.498 0 0 0 .372-1.234 1.578 1.578 0 0 0-.221-.553z" />
  <path d="M12.869 2.416h-.139a1.816 1.816 0 0 0-.223 0h-.096c-.108.005-.211.02-.309.045l-.053-.002a1.6 1.6 0 0 0-.348.153l.007-.004a1.544 1.544 0 0 0-.741 1.512l-.001-.007c.017.148.053.284.105.41l-.004-.01a1.544 1.544 0 0 0 1.878.92 1.2 1.2 0 0 1-.042-.343c0-.745.422-1.391 1.039-1.713a1.152 1.152 0 0 0-.252-.449 1.526 1.526 0 0 0-.348-.256l.189-.351.304-.533c.419.229.907.432 1.418.584l.134.014a.27.27 0 0 0 .082-.533A6.957 6.957 0 0 1 12.591.182a.267.267 0 0 0-.393.36c.351.356.742.671 1.167.938l-.299.581z" />
  <path d="M7.509 5.077c-.533-1.525-2.288-1.52-3.115-1.424l-.443 1.28a3.392 3.392 0 0 0 1.31-.366 2.367 2.367 0 0 1-1.525.627 1.383 1.383 0 0 1-1.27-.613 2.363 2.363 0 0 0 1.45.351l.141-1.231.267-1.515c.032-.187-.341-.229-.448-.096a7.443 7.443 0 0 0-.192 1.594C2.959 3.567.975 3.428.388 5.076c-.672 1.888.112 5.2 3.563 5.2s4.235-3.312 3.557-5.2z" />
  <path d="M10.608 15.371a4.682 4.682 0 0 1-4.677-4.683v-.023l-.533.001a5.21 5.21 0 1 0 10.422 0h-.533v.021a4.683 4.683 0 0 1-4.677 4.683z" />
  <path d="M10.608 15.072a4.379 4.379 0 0 0 4.379-4.379v-.028l-8.757.001v.027a4.379 4.379 0 0 0 4.379 4.379zm2.453-3.648a.93.93 0 0 1 .186.399.197.197 0 1 1-.371.005.932.932 0 0 1 .188-.406zm-.794 1.259a.93.93 0 0 1 .186.399.197.197 0 1 1-.371.005.932.932 0 0 1 .188-.406zm-.886-1.259a.93.93 0 0 1 .186.399.197.197 0 1 1-.371.005.927.927 0 0 1 .198-.405zm-.784 1.259a.93.93 0 0 1 .186.399.197.197 0 1 1-.371.005.927.927 0 0 1 .198-.405zm-.885-1.259a.93.93 0 0 1 .186.399.197.197 0 1 1-.371.005.927.927 0 0 1 .198-.405zm-.784 1.259a.93.93 0 0 1 .186.399.197.197 0 1 1-.371.005.927.927 0 0 1 .198-.405zm-.885-1.259a.93.93 0 0 1 .186.399.197.197 0 1 1-.371.005.935.935 0 0 1 .203-.405z" />
</svg>
