<svg
  xmlns="http://www.w3.org/2000/svg"
  width="24"
  height="24"
  viewBox="0 0 24 24"
  fill="none"
  stroke="currentColor"
  stroke-width="2"
  stroke-linecap="round"
  stroke-linejoin="round"
>
  <path d="M12.565 11.115a2.555 2.555 0 0 1-.882-.16 5.086 5.086 0 0 1-.531 1.098c-.317.495-.711.94-1.165 1.316.153.224.354.402.584.536l.127.058c.064.035.141.071.221.102l.158.042c.059.019.135.037.212.051l.172.002h.213a2.018 2.018 0 0 0 .235-.001h.165c.092-.024.169-.05.243-.08l.141-.048c.094-.044.173-.089.248-.138l.11-.065c.335-.245.587-.584.721-.978-.039-.046-.081-.073-.124-.11a2.538 2.538 0 0 1-.847-1.615z" />
  <path d="M12.101 7.355a7.41 7.41 0 0 1-.248 3.157c.22.025.458.07.707.07a2.456 2.456 0 0 1 1.121-1.877 2.678 2.678 0 0 1-.346-1.012l-.001-.012a2.545 2.545 0 0 1-1.245-.332z" />
  <path d="M15.888 9.957h-.003a2.546 2.546 0 0 1-1.706-.653c-.056-.051-.104-.115-.163-.174a2.003 2.003 0 0 0 .049 3.429l.127.058c.064.035.141.071.221.102l.158.042c.059.019.135.037.212.051l.172.002h.213a2.018 2.018 0 0 0 .235-.001h.165c.094-.024.172-.049.248-.079l.141-.049c.094-.044.173-.089.248-.138l.11-.065c.117-.086.22-.179.313-.281.11-.137.203-.292.274-.458-.059-.061-.128-.104-.187-.157a2.538 2.538 0 0 1-.826-1.621z" />
  <path d="M11.685 5.749c.098.232.191.515.263.806l.036.074c.355.328.831.53 1.354.533h.001a2.53 2.53 0 0 1 .637-1.464 2.564 2.564 0 0 1 1.357-.789.962.962 0 0 0-.028-.284 2.034 2.034 0 0 0-.337-.701 2.03 2.03 0 0 0-.584-.523l-.127-.058a1.91 1.91 0 0 0-.221-.102l-.168-.042a1.743 1.743 0 0 0-.212-.051l-.172-.002h-.208a2.018 2.018 0 0 0-.235 0h-.165a2.018 2.018 0 0 0-.248.079l-.136.049c-.087.047-.16.093-.23.143l-.111.065c-.117.086-.22.179-.313.281-.32.345-.52.802-.535 1.305.14.198.268.421.374.655z" />
  <path d="M19.776 8.16a2.05 2.05 0 0 0-.311-.23l-.127-.064a1.91 1.91 0 0 0-.221-.102l-.158-.042a1.743 1.743 0 0 0-.212-.051l-.172-.002h-.208a2.018 2.018 0 0 0-.235 0h-.165a2.025 2.025 0 0 0-1.574 2.091v.112c.043.533.294 1 .67 1.326l.002.002c.09.08.189.154.295.219l.126.058h.053c.059.027.117.059.181.08l.144.037c.059.019.135.037.212.051l.172.002h.208a2.018 2.018 0 0 0 .235 0h.165c.094-.024.172-.049.248-.079l.141-.049c.093-.046.172-.092.247-.143l.11-.065a2.022 2.022 0 0 0 .161-3.145z" />
  <path d="M16.864 5.627l-.064-.032a1.91 1.91 0 0 0-.221-.102l-.158-.042a1.743 1.743 0 0 0-.212-.051l-.172-.002h-.208a2.118 2.118 0 0 0-.24.001h-.16a2.03 2.03 0 0 0-1.565 1.973c0 1.116.903 2.022 2.018 2.027a2.536 2.536 0 0 1 .652-1.437 2.559 2.559 0 0 1 1.357-.79 1.85 1.85 0 0 0-.402-1.026l.382-.369.533-.533c.475.452.998.862 1.559 1.218a.463.463 0 0 0 .255.086.4.4 0 0 0 .215-.738 9.074 9.074 0 0 1-3.024-3.038c-.09-.172-.225-.26-.38-.26a.401.401 0 0 0-.357.585c.335.605.713 1.13 1.146 1.604l-.566.527z" />
  <path d="M5.216 4.267a5.845 5.845 0 0 0-3.121.42A3.342 3.342 0 0 0 .278 7.458c-.315 2.676 1.066 5.497 3.733 6.26 2.059.581 4.581.128 6.021-1.536a6.014 6.014 0 0 0 1.35-3.808c0-.31-.023-.615-.068-.913a3.85 3.85 0 0 0-1.371-2.708c-1.035-.746-2.475-.773-3.681-.57l-.565 1.909a5 5 0 0 0 1.896-.626c-.995 1.053-3.192 1.613-4.11.205a3.446 3.446 0 0 0 2.15.43l.138-1.833.213-1.68c.037-.315.219-.784-.245-.811s-.4.272-.437.571a16.649 16.649 0 0 0-.085 1.931z" />
</svg>
