<svg
  xmlns="http://www.w3.org/2000/svg"
  width="24"
  height="24"
  viewBox="0 0 24 24"
  fill="none"
  stroke="currentColor"
  stroke-width="2"
  stroke-linecap="round"
  stroke-linejoin="round"
>
  <path d="M5.55.4c-.45 0-.85.4-.85.85v.85l-.8.85h-.85V5.5c0 .85-1.7 1.7-1.7 2.55v4.65c0 .85.4 1.25 1.25 1.25s1.25-.4 1.25-1.25V11s0-.4.4-.4h.4v4.2c0 .4.4.85.85.85h7.6c.4 0 .85-.4.85-.85V1.3c0-.45-.4-.85-.85-.85L5.55.4zm6.75 5.05H6.4V2.1h5.9v3.35zM4.7 9.7h-.85c-.4 0-.85.4-.85.85v2.1c0 .4-.4.4-.4.4s-.4 0-.4-.4v-4.2c0-.85 1.7-1.7 1.7-2.55V4.65h.85L4.7 9.7z" />
</svg>
