<svg
  xmlns="http://www.w3.org/2000/svg"
  width="24"
  height="24"
  viewBox="0 0 24 24"
  fill="none"
  stroke="currentColor"
  stroke-width="2"
  stroke-linecap="round"
  stroke-linejoin="round"
>
  <path d="M14.321 3.951v4.301H6.914V3.951H0v9.481h15.802V3.951zm-8.943 8.74H.637v-.494h4.741zm0-.775H.637v-.494h4.741zm0-.805H.637v-.494h4.741zm0-5.516H.637v-.494h4.741zm0-.706H.637v-.494h4.741z" />
  <path d="M11.956.82c.049 0 .143 0 .143.049v.143l-.869 1.842 1.837.242c.099 0 .143.049.143.099v.143L8.958 7.703c0 .049-.049.049-.099.049H8.76c-.049 0-.099-.099-.049-.193l1.748-3.017-1.304-.193-.016.001a.128.128 0 0 1-.128-.128l.001-.016v.001l.143-3.24-.001-.016a.128.128 0 0 1 .144-.127H7.124v7.19h6.914V.819z" />
</svg>
