<svg
  xmlns="http://www.w3.org/2000/svg"
  width="24"
  height="24"
  viewBox="0 0 24 24"
  fill="none"
  stroke="currentColor"
  stroke-width="2"
  stroke-linecap="round"
  stroke-linejoin="round"
>
  <path d="M12.55 13.5c0-.35.2-.6.3-.95v-.2a.38.38 0 0 0-.1-.2c-.25-.4-.45-.85-.6-1.3-.05 0-.1.15-.1.25 0 .35.05.8.15 1.2l-.9-.15c-.1-.05-.25-.05-.3-.15-.2-.2 0-.5.1-.75.15-.35.2-.7.1-1.05-.15.05-.25.25-.3.4s-.05.3-.1.5c-.05.15-.15.3-.2.5-.05.15-.1.35-.05.55.05.15.25.3.45.3-.25.1-.55.15-.8.25s-.65.15-.8-.1c-.1.25-.25.5-.5.65-.05.05-.1.05-.15.15-.05.05 0 .15.05.15h-.75c-.1 0-.2.1-.25.15-.3.25-.65.45-1.05.4-.35-.05-.7-.45-.55-.8.05-.15.1-.2.2-.3.15-.2.2-.55.35-.8.3-.5.95-.7 1.15-1.2.05-.25.1-.55.35-.6-.1-.3-.45-.5-.7-.7s-.5-.5-.5-.85c0-.25.2-.45.4-.65.25-.2.55-.45.85-.6.15-.05.35-.15.5-.15.5-.05.9.2 1.35.45.25.2.5.45.55.8V9c0 .35.4.55.7.75.1.05.2.1.35.1.1 0 .25-.05.25-.2-.1-.05-.25-.15-.3-.3s.05-.35.2-.35c.1-.05.25.05.35.15s.2.2.3.25c.1.05.35 0 .3-.15 0-.05-.05-.1-.05-.15-.05-.15.05-.35-.05-.45s-.3 0-.45.1c-.2.1-.55 0-.7-.2-.1-.15-.1-.35-.1-.5 0-.2-.05-.35-.2-.45-.15-.05-.4-.05-.45.1-.4-.25-.95-.35-1.2-.8v-.15c0-.15.15-.2.3-.15.1.05.2.15.3.2s.25.1.35 0c.05-.05.1-.15.15-.2.05 0 .1 0 .15.05.5.15 1 .35 1.55.5.2.1.55.15.7 0 .05-.05.1-.2.15-.3s.3-.15.35 0c0-.2-.1-.4-.3-.45-.15 0-.2.25-.3.4-.15.2-.55.1-.55-.15V6.5c-.05-.15-.3-.25-.3-.45 0-.15.25-.15.35-.1s.25.1.4 0c.05-.05.05-.1.1-.15.2-.2.6-.05.85.15.2.2.4.35.6.55.05.1.15.2.2.35 0 .1-.05.15-.05.25 0 .25.15.5.35.65.1.05.3.15.45.2C15.45 3.8 12.1.5 7.95.5S.45 3.85.45 8c0 .25 0 .45.05.7l1.25-1c.15-.1.3-.25.25-.4 0 0-.05-.1-.05-.15-.1-.2.25-.3.35-.5.1-.15 0-.35 0-.55s.25-.35.4-.4c.15-.05.35-.1.55-.2.1-.1.25-.2.4-.2.2 0 .35.15.45.35.05.15.15.35.3.55-.2.1-.1.35 0 .5.1.2.2.4.1.55-.05.1-.2.15-.25.3-.05.1.1.2.25.3.25.25.4.65.3 1-.25-.05-.6-.05-.8.05-.15.1-.25.4-.5.45-.25.1-.6-.25-.9-.15-.3.05-.35.45-.65.6-.15-.2-.35-.35-.55-.55 0 .1-.05.25-.1.35l-.05.05c-.05 0-.1-.05-.15-.1-.1-.1-.3 0-.45 0H.6c0-.05-.05-.15-.05-.2.6 3.5 3.7 6.2 7.4 6.2 1.7 0 3.3-.6 4.55-1.55.1-.25.05-.4.05-.5zM11.3 4.4c-.15 0-.3-.1-.3-.25v.05c0-.1-.05-.25.05-.3.05 0 .1 0 .15.05.15.1.3.15.45.3-.1.1-.25.2-.35.15zM9.35 2.45c.05-.1.1-.15.2-.25.15-.2.2-.5.3-.75.05-.2.2-.4.25-.65 1.15.35 2.15.9 3.05 1.8-.1 0-.2-.05-.3-.05s-.2 0-.2.05v.15c.05.1 0 .3-.1.4-.1.05-.25.1-.4.05-.05-.05-.15-.2-.25-.25s-.3 0-.3.1c0 .15.25.2.2.35-.45.1-.95-.1-1.25-.45-.05-.1-.15-.15-.2-.15s-.1 0-.15.05c-.15.15-.45.25-.65.15-.2-.05-.3-.35-.2-.55zm-3.45.8c-.1 0-.15-.05-.25-.05-.15 0-.2.15-.35.2-.05.05-.15 0-.25 0-.4-.05-.75 0-1.05.1 0 .05 0 .1.05.1 0 .05.05.05.05.1 0 0-.05-.05-.05-.1-.25-.3-.7-.4-1.1-.25.1.2.25.45.45.45h.2c.1 0 .1.15.05.25-.05.05-.15.1-.25.15.1.15.1.35 0 .5-.15 0-.25-.15-.3-.3-.1-.1-.1-.3-.15-.45-.1-.35-.4-.7-.4-1.1l.15-.15C3.75 1.65 5.05.95 6.45.7v.15c0 .1-.1.2-.1.35v.2c0 .15-.05.25-.05.45 0 .15.15.3.25.25.2-.05.15-.3.2-.5.1-.3.7-.25.9-.6.15 0 .15.25.1.4s-.1.3-.05.45c.05.15.4.25.35.45 0 .05-.05.1-.1.15-.1.1-.1.3-.1.45s-.1.35-.25.35c-.2-.1-.35-.35-.5-.5s-.5-.2-.6 0c0 0 .05.05.1.05.15-.1.4 0 .35.2-.3-.2-.65.3-1.05.25zM9.35 14c0 .05-.05.15-.15.2s-.2.15-.3.2h-.25c-.1 0-.15.1-.25.1-.05 0-.2 0-.2-.15 0-.05 0-.1.05-.1.1-.1.15-.2.25-.3.05-.1.15-.15.25-.2.05 0 .15 0 .2.05.15 0 .3 0 .4-.1.05.05.1.2 0 .3z" />
  <path d="M15.6 7.95a7.6 7.6 0 1 1-15.2 0 7.6 7.6 0 0 1 15.2 0z" />
</svg>
