<svg
  xmlns="http://www.w3.org/2000/svg"
  width="24"
  height="24"
  viewBox="0 0 24 24"
  fill="none"
  stroke="currentColor"
  stroke-width="2"
  stroke-linecap="round"
  stroke-linejoin="round"
>
  <path d="M12.523 4.875c.384 2.485-1.499 4.229-3.056 8.24h.4C11.643 9.723 15.2 8.07 14.699 4.55 14.107.155 8 .001 8 .001s3.952 1.157 4.523 4.875z" />
  <path d="M8.293 13.109v.533h-.597v-.533h.597zm-1.84 0C4.938 9.066 3.072 7.312 3.477 4.832 4.085 1.115 8 0 8 0S1.941.091 1.307 4.485C.774 8 4.31 9.69 6.054 13.098h.533v.56h-.235c-.2 0-.363.162-.363.363 0 .176.128.323.297.352l.002 1.515c0 .062.05.112.112.112h3.2c.062 0 .112-.05.112-.112V14.4a.36.36 0 0 0-.064-.715h-.235v-.533h-.267v.533h-.613v-.533h.048S12.49 4.069 8 0c-4.501 4.021-.709 13.104-.709 13.104h.112v.533h-.571v-.533z" />
</svg>
