<svg
  xmlns="http://www.w3.org/2000/svg"
  width="24"
  height="24"
  viewBox="0 0 24 24"
  fill="none"
  stroke="currentColor"
  stroke-width="2"
  stroke-linecap="round"
  stroke-linejoin="round"
>
  <path d="M12.091 6.048a2.887 2.887 0 0 0-1.059-1.525c.023-.137.041-.287.041-.442 0-.717-.381-1.345-.952-1.692A2.21 2.21 0 0 0 8.925.464C8.427.154 7.553-.182 7.142.117a1.512 1.512 0 0 0-.375.999l.002.071a2.177 2.177 0 0 0-1.163 1.905 2.24 2.24 0 0 0-1.062 2.683c-.853.518-.757 1.787-.538 2.523 0 .064.533 2.133.533 2.133h6.667l.421-2.016a2.907 2.907 0 0 0 .542-1.698c0-.238-.028-.469-.082-.69zm-4.8-4.267a.367.367 0 0 0 .213-.33c.003-.246.036-.483.095-.709.508.097.959.32 1.315.646.26.228.425.564.425.938v.005a7.591 7.591 0 0 1-2.978.624 1.445 1.445 0 0 1 .915-1.197zm-1.216 1.91h.192a8.45 8.45 0 0 0 3.461-.736c.327.239.579.642.579 1.104 0 .12-.017.235-.048.345a14.234 14.234 0 0 1-4.992 1.174.945.945 0 0 1-.119-.494c0-.623.378-1.158.917-1.388zm-1.03 2.64a14.86 14.86 0 0 0 5.583-1.28c.302.313.598.707.744 1.169a2.124 2.124 0 0 1-.289 1.624l-6.454-.008c-.08-.448-.16-1.296.416-1.504z" />
  <path d="M4.965 11.541l.709 4.016A.535.535 0 0 0 6.2 16h3.28c.263 0 .481-.19.525-.44l.71-4.019H4.966z" />
</svg>
