<svg
  xmlns="http://www.w3.org/2000/svg"
  width="24"
  height="24"
  viewBox="0 0 24 24"
  fill="none"
  stroke="currentColor"
  stroke-width="2"
  stroke-linecap="round"
  stroke-linejoin="round"
>
  <path d="M14.139 4.656h-2.315l-.88-1.813a.743.743 0 0 0-.671-.427H5.728h-.001a.74.74 0 0 0-.669.422l-.882 1.818H1.861a.869.869 0 0 0-.869.869v7.184c0 .48.389.869.869.869h12.267c.48 0 .869-.389.869-.869V5.53v-.005a.87.87 0 0 0-.858-.869zM8 12.304a3.42 3.42 0 1 1 3.419-3.419 3.424 3.424 0 0 1-3.418 3.419z" />
  <path d="M10.235 8.885a2.235 2.235 0 1 1-4.47 0 2.235 2.235 0 0 1 4.47 0z" />
</svg>
