<svg
  xmlns="http://www.w3.org/2000/svg"
  width="24"
  height="24"
  viewBox="0 0 24 24"
  fill="none"
  stroke="currentColor"
  stroke-width="2"
  stroke-linecap="round"
  stroke-linejoin="round"
>
  <path d="M8.55 7.4c-.25 0-.5.05-.7.2V3.9c0-.4-.3-.7-.7-.7H2.9c-.35 0-.7.3-.7.7v3.7c-.2-.1-.45-.2-.7-.2-.8 0-1.4.65-1.4 1.4 0 .5.3.95.7 1.2v2c0 .6.45 1.05 1.05 1.05.2 0 .4-.05.6-.2.1.1.3.2.45.2h4.25c.2 0 .35-.05.45-.2.15.1.35.2.6.2.6 0 1.05-.45 1.05-1.05v-1.95c.4-.25.7-.7.7-1.2.05-.8-.6-1.45-1.4-1.45zM2.2 12c0 .2-.15.35-.35.35S1.5 12.2 1.5 12v-1.75c.25 0 .5-.05.7-.2V12zm-.7-2.45c-.4 0-.7-.3-.7-.7s.3-.7.7-.7.7.3.7.7-.3.7-.7.7zm5.65 2.8H2.9v-1.6c.2.1.45.2.7.2h2.8c.25 0 .5-.05.7-.2v1.6zm-.7-2.1h-2.8c-.4 0-.7-.3-.7-.7s.3-.7.7-.7h2.8c.4 0 .7.3.7.7s-.3.7-.7.7zm.7-1.95c-.2-.1-.45-.2-.7-.2h-2.8c-.25 0-.5.05-.7.2V3.9H7.2v4.4zm1.4 3.7c0 .2-.15.35-.35.35s-.35-.15-.35-.35v-1.95c.2.1.45.2.7.2V12zm0-2.45c-.4 0-.7-.3-.7-.7s.3-.7.7-.7c.4 0 .7.3.7.7s-.3.7-.7.7z" />
  <path d="M2.65 3.6H7.4v8.9H2.65V3.6z" />
  <path d="M1.1 8.85h2.15v3.65H1.1V8.85z" />
  <path d="M6.8 8.95h1.95v3.6H6.8v-3.6z" />
  <path d="M5.3 8.3h1.95v3.6H5.3V8.3z" />
  <path d="M2.75 8.8a1.05 1.05 0 1 1-2.1 0 1.05 1.05 0 0 1 2.1 0z" />
  <path d="M6.6 10.6a1.05 1.05 0 1 1-2.1 0 1.05 1.05 0 0 1 2.1 0z" />
  <path d="M9.55 8.95c0 .497-.448.9-1 .9s-1-.403-1-.9.448-.9 1-.9 1 .403 1 .9z" />
  <path d="M14.5 7.4c-.25 0-.5.05-.7.2V3.9c0-.4-.3-.7-.7-.7H8.85c-.4 0-.7.3-.7.7v3.7c-.2-.1-.45-.2-.7-.2-.8 0-1.4.65-1.4 1.4 0 .5.3.95.7 1.2v2c0 .6.45 1.05 1.05 1.05.2 0 .4-.05.6-.2.1.1.3.2.45.2h4.25c.2 0 .35-.05.45-.2.15.1.35.2.6.2.6 0 1.05-.45 1.05-1.05v-1.95c.4-.25.7-.7.7-1.2 0-.8-.65-1.45-1.4-1.45zM8.15 12c0 .2-.15.35-.35.35s-.35-.15-.35-.35v-1.75c.25 0 .5-.05.7-.2V12zm-.7-2.45c-.4 0-.7-.3-.7-.7s.3-.7.7-.7c.4 0 .7.3.7.7s-.35.7-.7.7zm5.65 2.8H8.85v-1.6c.2.1.45.2.7.2h2.8c.25 0 .5-.05.7-.2v1.6zm-.75-2.1h-2.8c-.4 0-.7-.3-.7-.7s.3-.7.7-.7h2.8c.4 0 .7.3.7.7.05.4-.3.7-.7.7zm.75-1.95c-.2-.1-.45-.2-.7-.2H9.6c-.25 0-.5.05-.7.2V3.9h4.25v4.4zm1.4 3.7c0 .2-.15.35-.35.35s-.35-.15-.35-.35v-1.95c.2.1.45.2.7.2V12zm0-2.45c-.4 0-.7-.3-.7-.7s.3-.7.7-.7c.4 0 .7.3.7.7s-.3.7-.7.7z" />
  <path d="M8.45 3.45h4.75v8.9H8.45v-8.9z" />
  <path d="M6.9 8.7h2.15v3.65H6.9V8.7z" />
  <path d="M12.6 8.8h1.95v3.6H12.6V8.8z" />
  <path d="M11.1 8.2h1.95v3.6H11.1V8.2z" />
  <path d="M8.55 8.65a1.05 1.05 0 1 1-2.1 0 1.05 1.05 0 0 1 2.1 0z" />
  <path d="M12.35 10.5a1.05 1.05 0 1 1-2.1 0 1.05 1.05 0 0 1 2.1 0z" />
  <path d="M15.35 8.85c0 .497-.448.9-1 .9s-1-.403-1-.9.448-.9 1-.9 1 .403 1 .9z" />
  <path d="M5.7 13.05h6.05l-2.9-3z" />
  <path d="M6.15 3a1.25 1.25 0 1 1-2.5 0 1.25 1.25 0 0 1 2.5 0z" />
  <path d="M12.35 3a1.25 1.25 0 1 1-2.5 0 1.25 1.25 0 0 1 2.5 0z" />
</svg>
