<svg
  xmlns="http://www.w3.org/2000/svg"
  width="24"
  height="24"
  viewBox="0 0 24 24"
  fill="none"
  stroke="currentColor"
  stroke-width="2"
  stroke-linecap="round"
  stroke-linejoin="round"
>
  <path d="M7.227 7.344h1.541c.215 0 .389.174.389.389v4.651a.389.389 0 0 1-.389.389H7.227a.389.389 0 0 1-.389-.389V7.733c0-.215.174-.389.389-.389z" />
  <path d="M9.44 4.667a1.44 1.44 0 1 1-2.88 0 1.44 1.44 0 0 1 2.88 0z" />
  <path d="M8 .08a7.92 7.92 0 1 0 0 15.84A7.92 7.92 0 0 0 8 .08zm0 14.773A6.853 6.853 0 1 1 8 1.147a6.853 6.853 0 0 1 0 13.706z" />
</svg>
