<svg
  xmlns="http://www.w3.org/2000/svg"
  width="24"
  height="24"
  viewBox="0 0 24 24"
  fill="none"
  stroke="currentColor"
  stroke-width="2"
  stroke-linecap="round"
  stroke-linejoin="round"
>
  <path d="M3.6 0h9.3a.74.74 0 0 1 .8.646V15.35a.741.741 0 0 1-.803.65h.003-9.3a.74.74 0 0 1-.8-.646V.65C2.75.3 3.15 0 3.6 0zm.85 1.65v5.1h7.6v-5.1zm4.1 6.25a3.65 3.65 0 1 0 3.65 3.65A3.67 3.67 0 0 0 8.551 7.9H8.55z" />
  <path d="M8.55 13.35a1.8 1.8 0 1 0-1.8-1.8v.005c0 .991.804 1.795 1.795 1.795h.005z" />
</svg>
