<svg
  xmlns="http://www.w3.org/2000/svg"
  width="24"
  height="24"
  viewBox="0 0 24 24"
  fill="none"
  stroke="currentColor"
  stroke-width="2"
  stroke-linecap="round"
  stroke-linejoin="round"
>
  <path d="M6 2.1a1.45 1.45 0 1 1-2.9 0 1.45 1.45 0 0 1 2.9 0z" />
  <path d="M14.05 6.85c-1.1-.7-2.1-1.05-3.3-1-1.85.05-2.8 1-3.2 1.35s-.8.55-1.6.75c-1.65.4-2.9-.35-3.4-.75-.2-.1-.3-.15-.35-.15h-.3c-.25 0-.25.25-.3.35v5.3c.05.55.15.8.7 1.2s1.2.35 1.2.35h9.15c.45-.05.9-.15 1.3-.6s.4-.95.4-.95V7.45c0-.35-.2-.55-.3-.6z" />
  <path d="M16 3.8c0-.35-.25-.35-.3-.35h-.25c-.35 0-.3.35-.3.35v9.85c0 .15-.05.6-.45 1-.45.35-.9.3-.9.3H2.15c-.2-.05-.6-.1-.9-.55-.3-.4-.25-1-.25-1V3.85c0-.3-.2-.4-.3-.4H.35c-.3 0-.35.2-.35.3v9.9c0 .7.25 1.25.85 1.75s1.35.45 1.35.45h11.6c.5 0 1.1-.2 1.65-.8s.5-1.4.5-1.4L16 3.8z" />
  <path d="M9.05 11.75s-.85-2.05-1-2.45-.45-.45-.85-.25c-.35.15-.9.5-1.45.75s-1.8.45-2.35-.8c0 0-1.45-2.7-.1-4.45.3-.4 1.05-.9 1.7-.5s.5 2.15.5 2.15l.15 1.7c.6-.3 1.2-.55 1.35-.65.45-.2 1.6-.6 2.15.8s1.05 2.8 1.05 2.8z" />
  <path d="M9.4 3.85c-.1-.25-.3-.45-.6-.65l-.2-.15c-.5-.3-.85-.65-.85-1s.3-.7.8-.95h-.7c-.5.3-.8.6-.8.95 0 .3.25.6.65.9l.35.25c.3.2.55.4.65.65.1.35-.05.7-.5 1h.7c.45-.25.65-.6.5-1z" />
  <path d="M11.3 3.9c-.1-.25-.3-.45-.6-.65l-.2-.1c-.5-.3-.85-.65-.85-1s.3-.7.8-.95H9.7c-.5.3-.8.6-.8.95 0 .3.25.6.65.9l.35.25c.35.2.6.4.65.65.1.35-.05.7-.5 1h.7c.5-.3.7-.65.55-1.05z" />
  <path d="M12.95 3.9c-.1-.25-.3-.45-.6-.65l-.2-.15c-.5-.3-.85-.65-.85-1s.3-.7.8-.95h-.75c-.5.3-.8.6-.8.95 0 .3.25.6.65.9l.35.25c.3.2.55.4.65.65.1.35-.05.7-.5 1h.7c.45-.25.65-.6.55-1z" />
</svg>
