<svg
  xmlns="http://www.w3.org/2000/svg"
  width="24"
  height="24"
  viewBox="0 0 24 24"
  fill="none"
  stroke="currentColor"
  stroke-width="2"
  stroke-linecap="round"
  stroke-linejoin="round"
>
  <path d="M17.173 5.045h-.533a.4.4 0 0 0-.147.028l-.104-1.169a.341.341 0 0 0-.336-.309H7.039a.34.34 0 0 0-.303.185l-1.26 2.541a.342.342 0 0 1-.304.187H3.945c-1.856 0-2.133.261-2.373.784-.069.155-.288.656-.533 1.259H.708v-.176a.123.123 0 0 0-.123-.123H.121a.123.123 0 0 0-.123.123v1.253c0 .068.055.123.123.123H.58l-.155.427a3.987 3.987 0 0 0-.297 1.1c.025.181.163.303.33.303h.43a.343.343 0 0 0 .277-.148l.966-1.372a.34.34 0 0 1 .277-.149h1.856a.34.34 0 0 1 .281.148l.934 1.388a.34.34 0 0 0 .282.149h6.149a.34.34 0 0 0 .292-.169l.774-1.346a.343.343 0 0 1 .293-.171h2.034c.119 0 .224.061.285.153l.849 1.329a.369.369 0 0 0 .403.138c.291-.063.696-.111.611-.533s-.384-1.232-.501-1.6h.224a.427.427 0 0 0 .427-.427v-3.52a.427.427 0 0 0-.426-.405h-.006zm-7.808.758a.178.178 0 0 1 0 .071l-.336.708a.165.165 0 0 1-.149.096H6.533a.165.165 0 0 1-.149-.23l.885-2.047a.164.164 0 0 1 .149-.101H9.2c.091 0 .165.074.165.165zM12.731 6a.156.156 0 0 1 0 .087l-.298.532a.166.166 0 0 1-.142.08h-2.034a.165.165 0 0 1-.165-.165V4.465c0-.091.074-.165.165-.165h2.309c.091 0 .165.074.165.165zm2.906.677h-2.005a.165.165 0 0 1-.165-.165V4.464c0-.091.074-.165.165-.165h1.931c.089 0 .162.071.165.16l.075 2.048v.005a.165.165 0 0 1-.165.165h-.006z" />
  <path d="M3.333 10.133a1.733 1.733 0 1 0 1.733 1.733v-.017a1.733 1.733 0 0 0-1.733-1.716zm0 2.347a.613.613 0 1 1 .613-.629c0 .34-.275.614-.613.614z" />
  <path d="M14.331 10.133a1.733 1.733 0 1 0 0 3.466 1.733 1.733 0 0 0 0-3.466zm0 2.347h-.01a.613.613 0 1 1 .613-.63v.001a.613.613 0 0 1-.602.613z" />
  <path d="M8.128 2.416h6.763c.144 0 .261.117.261.261v.368a.261.261 0 0 1-.261.261H8.128a.261.261 0 0 1-.261-.261v-.368c0-.144.117-.261.261-.261z" />
</svg>
