<svg
  xmlns="http://www.w3.org/2000/svg"
  width="24"
  height="24"
  viewBox="0 0 24 24"
  fill="none"
  stroke="currentColor"
  stroke-width="2"
  stroke-linecap="round"
  stroke-linejoin="round"
>
  <path d="M15.003 10.795h-.635a4.203 4.203 0 0 0-2.605-2.254l-.094-.008c-1.131-1.179-2.347-1.76-3.6-1.717a5.212 5.212 0 0 0-3.457 1.713 4.073 4.073 0 0 0-1.588.606l.015-8.132a.267.267 0 1 0-.534 0v.475H1.209v.485h1.296v.533H1.209v.485h1.296v.533H1.209v.485h1.296V9.583a3.692 3.692 0 0 0-.839 1.229l-.67.024a.997.997 0 0 0 0 1.994l1.632 2.475h10.741l1.632-2.507a.997.997 0 0 0 0-1.994zm-1.254 0h-.629a2.862 2.862 0 0 0-1.612-1.222 2.796 2.796 0 0 0-.707-.09h-.018c.001 0 0 0 0 0a4 4 0 0 0-1.835.443 2.101 2.101 0 0 0-.371-.389 4.395 4.395 0 0 1 2.189-.57c.299 0 .591.029.874.084.905.276 1.66.904 2.101 1.726zm-4.122 0a4.89 4.89 0 0 0-.308-.472 3.738 3.738 0 0 1 1.465-.307h.012c.198 0 .391.025.574.073.416.126.779.374 1.048.702zM7.131 8.741c.277-.17.611-.272.969-.277h.01c.385 0 .749.089 1.073.246a5.346 5.346 0 0 0-1.11.489 3.141 3.141 0 0 0-.91-.455zm.96-1.408h.011c1.041 0 1.988.406 2.69 1.068a4.549 4.549 0 0 0-.998.105 2.477 2.477 0 0 0-1.645-.598H8.1a2.484 2.484 0 0 0-1.642.647 5.131 5.131 0 0 0-.978-.093h-.038a4.378 4.378 0 0 1 2.636-1.13zm-2.624 1.68a4.017 4.017 0 0 1 3.522 1.761l-.636.014a3.564 3.564 0 0 0-2.894-1.242c-1.506 0-2.253.634-2.626 1.242h-.592c.384-.789 1.253-1.771 3.227-1.776zM7.6 10.789H3.499a2.556 2.556 0 0 1 1.993-.708 3.157 3.157 0 0 1 2.118.718z" />
  <path d="M3.803 4.523a.267.267 0 0 0 .267-.267V1.003a.267.267 0 1 0-.534 0v3.264a.267.267 0 0 0 .266.256z" />
  <path d="M4.837 4.523a.267.267 0 0 0 .267-.267v-.304h1.509l.896-.859h7.221v-.757H7.509l-.896-.853H5.104v-.48a.267.267 0 1 0-.534 0v3.264a.267.267 0 0 0 .266.256zm1.067-1.067h-.8v-.533h.827zm0-1.504v.533h-.8v-.533z" />
</svg>
