<svg
  xmlns="http://www.w3.org/2000/svg"
  width="24"
  height="24"
  viewBox="0 0 24 24"
  fill="none"
  stroke="currentColor"
  stroke-width="2"
  stroke-linecap="round"
  stroke-linejoin="round"
>
  <path d="M7.803 1.611a1.59 1.59 0 1 1-3.178 0 1.59 1.59 0 0 1 3.178 0z" />
  <path d="M4.757 8.779l-.901-2.576V9.27a.746.746 0 0 0 .039.224l1.716-.357z" />
  <path d="M5.184 8.379l1.424.608 1.925-.085.123-.341-2.347-1.067-.533-1.6.533-.16.443 1.403 1.472.677V6.321l.741.624.272 1.333.043.197.091.432 1.381-.069-.645-2.56-2-2.133a.76.76 0 0 0-.635-.341H4.619a.762.762 0 0 0-.762.74v.044z" />
  <path d="M15.611 9.899a1.413 1.413 0 1 1-2.826 0 1.413 1.413 0 0 1 2.826 0z" />
  <path d="M10.965 12.507H.533v3.472h.843v-2.197h10.251l-.043-.08-.619-1.195z" />
  <path d="M12.811 15.979h.837v-1.083l-.837-.443v1.525z" />
  <path d="M13.04 12.544l-.816-2.32c-.133-.533-.384-.944-.971-.923s-1.141.064-1.707.091l-3.2.144-5.195 1.061c-.432.091-1.099.448-.693.987.203.272.8.187 1.109.187h9.632l.859 1.659 2.517 1.328c.624.24 1.28-.267.72-.885z" />
</svg>
