<svg
  xmlns="http://www.w3.org/2000/svg"
  width="24"
  height="24"
  viewBox="0 0 24 24"
  fill="none"
  stroke="currentColor"
  stroke-width="2"
  stroke-linecap="round"
  stroke-linejoin="round"
>
  <path d="M4.507 11.483a9.843 9.843 0 0 1-.449-1.208l.449-.002v-.848a9.022 9.022 0 0 1-.699-.133 12.111 12.111 0 0 1-.266-2.199l9.418-.02v-.422a6.49 6.49 0 1 0-8.5 6.174zM2.912 9.067a9.46 9.46 0 0 1-1.894-.787C.955 7.946.875 7.528.844 7.096l1.866-.018c.02.718.093 1.404.215 2.072zM.853 6.24c.028-.45.104-.87.224-1.272a11.76 11.76 0 0 1 1.769-.685c-.043.567-.116 1.251-.136 1.948zm2.667 0c.027-.801.125-1.564.287-2.302.649-.072 1.422-.176 2.214-.204l.022 2.506zm3.333-5.221c.455.031.878.11 1.283.235.25.524.508 1.147.7 1.798-.572-.043-1.261-.118-1.964-.138zm-.81 1.888c-.722.021-1.411.095-2.082.221.295-.724.552-1.337.865-1.916.342-.067.771-.152 1.213-.186zm.832.826c.805.026 1.571.126 2.311.293.064.64.16 1.403.184 2.184l-2.496.02zm5.253 2.496h-1.92a13.755 13.755 0 0 0-.215-2.046c.742.296 1.375.569 1.966.906.061.319.137.719.168 1.131zm-.715-2.352c-.437-.189-.97-.371-1.518-.515-.245-.65-.427-1.183-.645-1.697.924.595 1.647 1.318 2.148 2.185zM3.616 1.792c-.174.415-.346.927-.483 1.452-.619.243-1.123.418-1.61.625.572-.879 1.253-1.57 2.067-2.063zM1.6 9.472c.414.185.921.367 1.443.513.238.629.41 1.141.613 1.636-.875-.592-1.561-1.29-2.041-2.122z" />
  <path d="M15.312 7.899H6.021a.688.688 0 0 0-.688.688v6.555c0 .38.308.688.688.688h9.291c.38 0 .688-.308.688-.688V8.588a.688.688 0 0 0-.688-.688zm-1.829 6.933H6.288V8.917h7.195zm1.274-2.448a.624.624 0 1 1 .624-.652v.007a.624.624 0 0 1-.624.624h-.006zm0-2.053a.624.624 0 1 1 .624-.624.624.624 0 0 1-.624.608h-.006z" />
</svg>
