<svg
  xmlns="http://www.w3.org/2000/svg"
  width="24"
  height="24"
  viewBox="0 0 24 24"
  fill="none"
  stroke="currentColor"
  stroke-width="2"
  stroke-linecap="round"
  stroke-linejoin="round"
>
  <path d="M8.069 6.501c-1.067 0-1.659 1.067-1.659 2.133 0 .56.24.917.811.917.928 0 1.568-1.179 1.568-2.048 0-.533-.256-1.003-.72-1.003z" />
  <path d="M8 .08a7.92 7.92 0 1 0 0 15.84A7.92 7.92 0 0 0 8 .08zm1.6 9.477c.64 0 1.408-1.029 1.408-2.245 0-1.797-1.387-2.816-2.997-2.816h-.014a3.365 3.365 0 0 0-3.362 3.511 3.37 3.37 0 0 0 3.369 3.477h.058a3.298 3.298 0 0 0 2.66-1.152l.91-.005a4.19 4.19 0 0 1-3.534 1.942h-.079a4.267 4.267 0 0 1-.02-8.534c2.134 0 3.905 1.467 3.905 3.483s-1.6 3.227-2.667 3.227h-.022a.7.7 0 0 1-.699-.699l.001-.034-.048.002a2.08 2.08 0 0 1-1.411.73c-.984.001-1.576-.799-1.576-1.797 0-1.499 1.008-3.045 2.565-3.045l.057-.001c.549 0 1.014.363 1.168.862l.002.009.181-.651h.837l-.96 3.173c-.03.085-.051.182-.058.284-.011.201.09.281.325.281z" />
</svg>
