<svg
  xmlns="http://www.w3.org/2000/svg"
  width="24"
  height="24"
  viewBox="0 0 24 24"
  fill="none"
  stroke="currentColor"
  stroke-width="2"
  stroke-linecap="round"
  stroke-linejoin="round"
>
  <path d="M12.64 9.76a2.955 2.955 0 1 0 0 5.91 2.955 2.955 0 0 0 0-5.91zm.533 2.171l-.112.533h-1.067v.539h1.003l-.112.533h-.8c.03.074.064.137.104.196.12.208.346.348.604.348h.008a.633.633 0 0 0 .53-.286c.086-.135.149-.291.181-.458l.695-.008a1.924 1.924 0 0 1-.466 1.069 1.238 1.238 0 0 1-.922.409l-.038-.001a1.346 1.346 0 0 1-1.132-.529 1.941 1.941 0 0 1-.32-.683l-.861-.013.112-.533h.667v-.283-.256h-.779l.112-.533h.741c.068-.331.212-.621.413-.862a1.292 1.292 0 0 1 1.067-.488 1.333 1.333 0 0 1 1.232.655c.136.219.222.475.238.749l-.752.004a1.185 1.185 0 0 0-.179-.436.656.656 0 0 0-.525-.262h-.017.001a.678.678 0 0 0-.601.364c-.04.068-.074.142-.101.219z" />
  <path d="M12.005 5.451v1.424H11.2l1.445 1.899 1.445-1.899h-.757V5.451a2.832 2.832 0 0 0-2.826-2.827H7.381v1.333h3.125c.826 0 1.496.668 1.499 1.493z" />
  <path d="M3.936 10.549V9.125h.779L3.27 7.226 1.819 9.125h.784v1.424a2.832 2.832 0 0 0 2.832 2.832h3.099v-1.333H5.43a1.499 1.499 0 0 1-1.493-1.499z" />
  <path d="M6.315 3.291v-.005A2.955 2.955 0 1 0 3.36 6.241c1.63 0 2.952-1.32 2.955-2.949zM2.437 4.987a1.167 1.167 0 0 1-.452-1.072l.73.006c.009.168.047.324.11.467a.538.538 0 0 0 .411.226l.001-1.152-.219-.064a1.412 1.412 0 0 1-.73-.42 1.018 1.018 0 0 1-.215-.627v-.026a1.193 1.193 0 0 1 .061-.466 1.07 1.07 0 0 1 .667-.608c.131-.038.275-.063.424-.071L3.23.817h.261v.368c.257.01.494.09.693.222.281.191.466.515.466.882l-.001.057-.709-.003a.982.982 0 0 0-.082-.358.417.417 0 0 0-.361-.207h-.005v1.035c.329.097.615.23.878.397a.96.96 0 0 1 .35.744l-.001.05a1.067 1.067 0 0 1-.496.987c-.212.129-.46.21-.725.226l-.005.534h-.261v-.533a1.854 1.854 0 0 1-.804-.234z" />
  <path d="M3.232 1.781H3.21a.472.472 0 0 0-.325.129.457.457 0 0 0-.112.332v.017c0 .14.067.265.17.344a.973.973 0 0 0 .288.133z" />
  <path d="M3.973 4.085v-.004a.46.46 0 0 0-.159-.348 1.131 1.131 0 0 0-.312-.158l-.008 1.064a.67.67 0 0 0 .312-.098.504.504 0 0 0 .168-.46z" />
</svg>
