<svg
  xmlns="http://www.w3.org/2000/svg"
  width="24"
  height="24"
  viewBox="0 0 24 24"
  fill="none"
  stroke="currentColor"
  stroke-width="2"
  stroke-linecap="round"
  stroke-linejoin="round"
>
  <path d="M6.315 3.291v-.005A2.955 2.955 0 1 0 3.36 6.241c1.63 0 2.952-1.32 2.955-2.949zM2.549 5.264v-1.76l-.416.16V3.2l.443-.16v-.4l-.443.16v-.464l.443-.165v-.853h.747v.576l1.067-.395v.469l-1.067.389v.4l1.067-.395v.469l-1.093.368v1.344h.002a.618.618 0 0 0 .342-.103.96.96 0 0 0 .273-.277c.082-.126.146-.268.187-.42.043-.16.067-.332.067-.51v-.036l.72.002v.019c0 .277-.043.543-.122.794-.073.233-.198.45-.359.634-.169.185-.38.334-.616.431a2.313 2.313 0 0 1-.862.165l-.059-.001z" />
  <path d="M12.64 9.76a2.955 2.955 0 1 0 0 5.91 2.955 2.955 0 0 0 0-5.91zm.533 2.171l-.112.533h-1.067v.539h1.003l-.112.533h-.8c.03.074.064.137.104.196.12.208.346.348.604.348h.008a.633.633 0 0 0 .53-.286c.086-.135.149-.291.181-.458l.695-.008a1.924 1.924 0 0 1-.466 1.069 1.233 1.233 0 0 1-.919.409l-.041-.001a1.346 1.346 0 0 1-1.132-.529 1.941 1.941 0 0 1-.32-.683l-.861-.013.112-.533h.667v-.539h-.779l.112-.533h.741c.068-.331.212-.621.413-.862a1.292 1.292 0 0 1 1.067-.488 1.333 1.333 0 0 1 1.232.655c.136.219.222.475.238.749l-.752.004a1.185 1.185 0 0 0-.179-.436.656.656 0 0 0-.525-.262h-.017.001a.678.678 0 0 0-.601.364c-.04.068-.074.142-.101.219z" />
  <path d="M12.005 5.451v1.424H11.2l1.445 1.899 1.445-1.899h-.757V5.451a2.832 2.832 0 0 0-2.826-2.827H7.381v1.333h3.125c.826 0 1.496.668 1.499 1.493z" />
  <path d="M3.936 10.549V9.125h.779L3.27 7.226 1.819 9.125h.784v1.424a2.832 2.832 0 0 0 2.832 2.832h3.099v-1.333H5.43a1.499 1.499 0 0 1-1.493-1.499z" />
</svg>
