<svg
  xmlns="http://www.w3.org/2000/svg"
  width="24"
  height="24"
  viewBox="0 0 24 24"
  fill="none"
  stroke="currentColor"
  stroke-width="2"
  stroke-linecap="round"
  stroke-linejoin="round"
>
  <path d="M14.267 5.525a6.56 6.56 0 0 0-.95-3.08c0-.002-.032-.023-.069-.023s-.069.021-.085.051a6.503 6.503 0 0 0-.928 3.035l2.026.016z" />
  <path d="M3.76 5.525a6.558 6.558 0 0 0-.944-3.08c0-.002-.032-.023-.069-.023s-.069.021-.085.051a6.503 6.503 0 0 0-.928 3.035l2.026.016z" />
  <path d="M14.277 6.064h-2.08a.48.48 0 0 0 0 .96h.037v3.792h-.624a3.447 3.447 0 0 0-2.413-3.193 11.188 11.188 0 0 1-1.271-.496c-.23.175-.619.33-1.016.465-1.477.46-2.478 1.72-2.521 3.22l-.629.005V7.03h.037a.48.48 0 0 0 0-.96H1.722a.48.48 0 0 0 0 .96v8.971h4.8v-1.344c0-.06.018-.115.049-.161.3-.502.766-.879 1.321-1.061a.295.295 0 0 1 .173-.004c.57.186 1.035.563 1.331 1.055a.308.308 0 0 1 .054.171v1.344h4.8V7.03a.48.48 0 0 0 0-.96z" />
</svg>
