<svg
  xmlns="http://www.w3.org/2000/svg"
  width="24"
  height="24"
  viewBox="0 0 24 24"
  fill="none"
  stroke="currentColor"
  stroke-width="2"
  stroke-linecap="round"
  stroke-linejoin="round"
>
  <path d="M.533 7.76v1.392h2.363V7.76s1.163-.827-1.179-2.363C-.624 6.933.533 7.76.533 7.76z" />
  <path d="M13.099 7.76v1.392h2.368V7.76s1.163-.837-1.184-2.363c-2.341 1.536-1.184 2.363-1.184 2.363z" />
  <path d="M15.776 9.525H12.8l.16.693h.16v1.104h-2.4V8.143c.459-.427 1.813-2.187-2.581-5.152v-.587a.304.304 0 1 0-.268-.001l.002.587c-4.496 3.035-2.971 4.8-2.549 5.184v3.147H2.897v-1.104h.16l.16-.693H.225l.16.693h.149v5.781h2.784v-1.277c0-.047.018-.089.048-.121l.48-.501a.176.176 0 0 1 .256 0l.48.501c.03.031.048.074.048.121v1.277h2.373v-2.133a.96.96 0 0 1 1.92 0v2.133h2.443v-1.277c0-.047.018-.089.048-.121l.48-.501a.176.176 0 0 1 .256 0l.48.501c.03.031.048.074.048.121v1.277h2.789v-5.781h.16z" />
</svg>
