<svg
  xmlns="http://www.w3.org/2000/svg"
  width="24"
  height="24"
  viewBox="0 0 24 24"
  fill="none"
  stroke="currentColor"
  stroke-width="2"
  stroke-linecap="round"
  stroke-linejoin="round"
>
  <path d="M5.05 12.25c1.35 0 2.45-1.1 2.45-2.45S6.4 7.35 5.05 7.35 2.6 8.5 2.6 9.85s1.1 2.4 2.45 2.4zm0-4.25c1 0 1.85.8 1.85 1.85 0 1-.8 1.85-1.85 1.85-1 0-1.85-.8-1.85-1.85S4.05 8 5.05 8z" />
  <path d="M1.4 2.2v11.6h7.3V2.2H1.4zm6.7 11H2V2.8h6.1v10.4z" />
  <path d="M5.05 6.5c.85 0 1.5-.7 1.5-1.5 0-.85-.7-1.5-1.5-1.5-.85 0-1.5.7-1.5 1.5-.05.8.65 1.5 1.5 1.5zm0-2.45c.5 0 .9.4.9.9s-.4.9-.9.9-.9-.4-.9-.9.4-.9.9-.9z" />
  <path d="M5.05 11.05c.7 0 1.2-.55 1.2-1.2 0-.7-.55-1.2-1.2-1.2s-1.2.55-1.2 1.2c-.05.65.5 1.2 1.2 1.2zm0-1.85c.35 0 .6.25.6.6s-.25.6-.6.6-.6-.25-.6-.6c0-.3.25-.6.6-.6z" />
  <path d="M11.75 3.1l-.4.6c1.85 1 3.15 2.9 3.25 5.1l.7-.3c-.2-2.3-1.6-4.3-3.55-5.4z" />
  <path d="M10.9 4.35l-.4.6c1.6.8 2.65 2.4 2.65 4.3v.2l.75-.3a5.53 5.53 0 0 0-3-4.8z" />
  <path d="M10.1 5.6l-.35.5c1.25.65 2.1 1.9 2.1 3.4v.2l.6-.25c-.05-1.7-1-3.15-2.35-3.85z" />
  <path d="M9.5 6.9l-.25.35c.85.45 1.45 1.3 1.45 2.35v.1l.4-.15c0-1.15-.65-2.15-1.6-2.65z" />
</svg>
