<svg
  xmlns="http://www.w3.org/2000/svg"
  width="24"
  height="24"
  viewBox="0 0 24 24"
  fill="none"
  stroke="currentColor"
  stroke-width="2"
  stroke-linecap="round"
  stroke-linejoin="round"
>
  <path d="M15.2.15H.8C.4.15.15.4.15.8v14.4c0 .4.25.65.65.65h14.4c.4 0 .65-.25.65-.65V.8c0-.4-.25-.65-.65-.65zm-.65 14.4H1.45V4.7h13.1v9.85zm0-10.5H1.45v-2.6h13.1v2.6z" />
  <path d="M4.7 2.75a.65.65 0 1 1-1.3 0 .65.65 0 0 1 1.3 0z" />
  <path d="M7.35 2.75a.65.65 0 1 1-1.3 0 .65.65 0 0 1 1.3 0z" />
  <path d="M9.95 2.75a.65.65 0 1 1-1.3 0 .65.65 0 0 1 1.3 0z" />
  <path d="M12.6 2.75a.65.65 0 1 1-1.3 0 .65.65 0 0 1 1.3 0z" />
  <path d="M13.9 5.4H2.1v8.5h11.8V5.4zm-.65 7.85H2.75v-7.2h10.5v7.2z" />
  <path d="M6.05 6.7H10v.65H6.05V6.7z" />
</svg>
