<svg
  xmlns="http://www.w3.org/2000/svg"
  width="24"
  height="24"
  viewBox="0 0 24 24"
  fill="none"
  stroke="currentColor"
  stroke-width="2"
  stroke-linecap="round"
  stroke-linejoin="round"
>
  <path d="M15.429 1.781h-2.053l-.331.603h2.709l-.325-.603z" />
  <path d="M17.349 4.117l-.469-.251V2.709l-.987-1.568h-.72l-.139-.907a.305.305 0 0 0-.296-.235h-.67a.304.304 0 0 0-.298.254l-.139.908h-.72l-.987 1.547v1.157l-.469.251a.533.533 0 0 0-.254.644l.884 2.386h2.176V2.607l-1.968 1.067v-.853l.827-1.307h2.56l.816 1.301v.848l-1.968-1.067v4.539h2.176l.896-2.379a.533.533 0 0 0-.248-.638z" />
  <path d="M.677 6.736v.272a.353.353 0 0 0 .704 0v-.272h3.12v.272a.353.353 0 0 0 .704 0v-.272h.405a.293.293 0 0 0 .293-.293V1.11a.719.719 0 0 0-.566-.703A10.92 10.92 0 0 0 3.098.181l-.169.001-.162-.001c-.791 0-1.563.082-2.308.238-.237.072-.461.351-.461.683V6.444c0 .162.131.293.293.293zM3.931 6.4H1.947v-.533h1.984zm.917-.405a.405.405 0 1 1 .405-.405l.001.021a.405.405 0 0 1-.4.405zM1.253.784c0-.085.069-.155.155-.155h3.061c.085 0 .155.069.155.155v.128a.155.155 0 0 1-.155.155H1.408a.155.155 0 0 1-.155-.155zm-.634.96c0-.162.131-.293.293-.293h4.053c.162 0 .293.131.293.293v2.229a.293.293 0 0 1-.293.293H.912a.293.293 0 0 1-.293-.293zm.405 3.461a.405.405 0 1 1-.405.405c0-.224.181-.405.405-.405h.006z" />
  <path d="M16.901 12.72l-5.701.763a1.171 1.171 0 0 1-.208.534 7.641 7.641 0 0 0-.203-1.215 4.173 4.173 0 0 0-.748-1.558l.706-.31a.139.139 0 1 0-.081-.266l-.954.234a1.585 1.585 0 0 0-.777-.309l-.109-1.099a.123.123 0 1 0-.246 0l-.112 1.099a1.607 1.607 0 0 0-.788.312l-.945-.238a.125.125 0 0 0-.087.234l.7.32a4.183 4.183 0 0 0-.746 1.571 7.383 7.383 0 0 0-.201 1.19l-.002.028a1.153 1.153 0 0 1-.207-.528l-5.659-.763a.24.24 0 0 0-.271.08.172.172 0 0 0 .031.23c.321.301.71.533 1.142.672l1.691.443-.048.043a.897.897 0 0 0-.298.566l-.002.058.002.056v-.002c0 .46.345.84.79.895h.112c.46 0 .84-.345.895-.79l.002-.058-.002-.056a.871.871 0 0 0-.077-.36l2.402.635a2.3 2.3 0 0 0 3.623.005l2.404-.634a.88.88 0 0 0-.075.357l-.002.053.002.056a.902.902 0 0 0 .895.792H13.867a.903.903 0 0 0 .795-.895v-.001l.002-.053-.002-.056a.897.897 0 0 0-.298-.567l-.049-.043 1.669-.437a3.026 3.026 0 0 0 1.164-.679.167.167 0 0 0 .061-.13.168.168 0 0 0-.031-.098.239.239 0 0 0-.278-.079zm-13.29 2.592zm.458-.379a.406.406 0 0 1-.4.357h-.053a.406.406 0 0 1-.357-.4l-.001-.024.001-.025a.406.406 0 0 1 .4-.356h.075a.406.406 0 0 1 .357.4.393.393 0 0 1-.022.05zm4.464-2.362H7.84a.421.421 0 0 1 0-.842h.693zm1.035 0H8.88v-.837h.688a.421.421 0 0 1 0 .842zm4.48 2.565a.405.405 0 0 1-.254.133h-.061a.406.406 0 0 1-.399-.334l-.001-.026.001-.025a.405.405 0 0 1 .355-.399h.05a.406.406 0 0 1 .4.355l.001.026-.001.025a.4.4 0 0 1-.091.245z" />
  <path d="M6.4 14.016z" />
  <path d="M9.835 3.131l-.933-1.067a.383.383 0 1 0-.581.502l.432.501H7.686a.384.384 0 0 0 0 .768h1.067l-.432.501a.384.384 0 1 0 .58.467l.892-1.032a.491.491 0 0 0 .041-.642z" />
  <path d="M14.933 9.925l-.651.117.533-.923a.385.385 0 0 0-.661-.396l-.534.924-.208-.629a.385.385 0 1 0-.73.243l.447 1.347s.128.389.485.325l1.44-.267a.385.385 0 0 0-.122-.742z" />
  <path d="M4.427 8.763l-1.408-.155a.458.458 0 0 0-.533.339l-.001.003-.352 1.387a.38.38 0 0 0 .269.468l.099.001h.002a.383.383 0 0 0 .371-.285l.166-.643.624.896a.385.385 0 1 0 .633-.438l-.612-.879.656.075h.043l.021.001a.385.385 0 0 0 .023-.769z" />
</svg>
