<svg
  xmlns="http://www.w3.org/2000/svg"
  width="24"
  height="24"
  viewBox="0 0 24 24"
  fill="none"
  stroke="currentColor"
  stroke-width="2"
  stroke-linecap="round"
  stroke-linejoin="round"
>
  <path d="M13.973 2.32a.266.266 0 0 1-.175-.132C13.6 1.819 12.8.645 10.859.987a.26.26 0 0 1-.229-.064A3.711 3.711 0 0 0 7.989.071a3.718 3.718 0 0 0-2.624.863.255.255 0 0 1-.225.059C3.2.647 2.4 1.82 2.203 2.188a.266.266 0 0 1-.174.133C-.639 2.924-.058 5.441.337 6.588a.268.268 0 0 0 .469.06 2.315 2.315 0 0 1 2.101-.939h.002a.272.272 0 0 0 .212-.101 2.398 2.398 0 0 1 2.764-.8.258.258 0 0 0 .065.007.266.266 0 0 0 .17-.061 3.06 3.06 0 0 1 1.878-.698 3.07 3.07 0 0 1 1.913.708.26.26 0 0 0 .226.038 2.398 2.398 0 0 1 2.725.794.273.273 0 0 0 .216.107h.013a2.311 2.311 0 0 1 2.08.917.27.27 0 0 0 .224.121.265.265 0 0 0 .249-.172c.417-1.122.971-3.644-1.669-4.247z" />
  <path d="M14.763 7.067a.242.242 0 0 0-.325.095l-3.153 5.745H9.973c.17.187.275.436.277.709v.363h.853c.085 0 .16-.044.202-.111l3.553-6.47a.24.24 0 0 0-.095-.33z" />
  <path d="M1.563 7.157a.24.24 0 0 0-.455.107c0 .045.012.087.034.123l3.551 6.479a.243.243 0 0 0 .208.123h.795v-.363a1.06 1.06 0 0 1 .278-.71l-1.259.001z" />
  <path d="M8.992 8.064a1.035 1.035 0 1 1-2.07 0 1.035 1.035 0 0 1 2.07 0z" />
  <path d="M9.227 12.56v-1.963l1.387 1.728a.155.155 0 0 0 .256.001l.374-.593a.155.155 0 0 0-.001-.176c-.218-.298-.96-1.306-1.21-1.669a1.066 1.066 0 0 0-.798-.421H6.769a1.067 1.067 0 0 0-.798.419c-.253.36-.994 1.373-1.213 1.672a.155.155 0 0 0 .001.176l.378.597a.155.155 0 0 0 .256.001l1.387-1.729v1.957c.589 0 1.067.478 1.067 1.067v.363h.299v-.363c0-.589.478-1.067 1.067-1.067z" />
  <path d="M6.757 13.035a.587.587 0 0 0-.587.587v1.728a.587.587 0 1 0 1.168-.002v-1.726a.587.587 0 0 0-.581-.587z" />
  <path d="M9.184 13.035a.587.587 0 0 0-.587.587v1.728a.587.587 0 1 0 1.168-.002v-1.726a.587.587 0 0 0-.581-.587z" />
</svg>
