<svg
  xmlns="http://www.w3.org/2000/svg"
  width="24"
  height="24"
  viewBox="0 0 24 24"
  fill="none"
  stroke="currentColor"
  stroke-width="2"
  stroke-linecap="round"
  stroke-linejoin="round"
>
  <path d="M14.293 8.245V5.909l-1.147-1.483s-.624-2.224-.811-3.013S11.69.314 11.14.314H3.919c-.533 0-1.003.309-1.195 1.099s-.816 3.013-.816 3.013L.761 5.909v2.779H.494a.283.283 0 0 0-.283.283v1.163c0 .156.127.283.283.283h1.328V11.58c0 .321.26.581.581.581h.837a.58.58 0 0 0 .581-.581v-1.152h3.643a4.224 4.224 0 1 0 6.833-2.176zm-2.73 6.64a3.424 3.424 0 1 1 0-6.848 3.424 3.424 0 0 1 0 6.848zm-.736-7.584a4.18 4.18 0 0 0-1.725.708L4.267 8V6.752h6.56zm1.749-.677h.016a.734.734 0 0 1 .697.986 3.967 3.967 0 0 0-1.415-.356.72.72 0 0 1 .707-.63zM3.861 1.067H11.2l.981 3.349H2.88zM2.48 6.624a.741.741 0 1 1 0 1.483.741.741 0 0 1 0-1.483z" />
  <path d="M13.403 10.384a1.152 1.152 0 0 0-.674-.717 1.698 1.698 0 0 0-.618-.116l-.049.001h-1.854v4.101h.901v-1.467h.949l.046.001c.219 0 .429-.041.621-.117.16-.066.306-.167.425-.294.109-.118.193-.258.244-.414a1.558 1.558 0 0 0-.001-.995zm-.864.816a.485.485 0 0 1-.174.185.683.683 0 0 1-.249.091 1.9 1.9 0 0 1-.309 0h-.697v-1.221h.699a1.731 1.731 0 0 1 .305 0 .684.684 0 0 1 .247.092.493.493 0 0 1 .172.182.784.784 0 0 1-.001.642z" />
</svg>
