<svg
  xmlns="http://www.w3.org/2000/svg"
  width="24"
  height="24"
  viewBox="0 0 24 24"
  fill="none"
  stroke="currentColor"
  stroke-width="2"
  stroke-linecap="round"
  stroke-linejoin="round"
>
  <path d="M12.05 12.55c-.3-.45-.65-.8-.9-1.15-.65-.8-1.4-1.05-2.3-.4-.5.4-.9.35-1.35-.05-1.25-1-2.05-2.3-2.25-3.8 0-.25-.05-.45.05-.7 0-.35.3-.65.75-.75.4-.15.8-.3.95-.8.2-.65-.85-3.3-1.35-3.75C5.4 1 5.2.9 4.8.9 3.15.95 2.2 2 2.35 3.6c.1.85.3 1.7.55 2.5.95 3.6 2.95 6.65 6.05 9.05.2.25.45.3.5.4 1 .3 2.45-.3 3.05-1.1.5-.85-.1-1.35-.45-1.9z" />
</svg>
