<svg
  xmlns="http://www.w3.org/2000/svg"
  width="24"
  height="24"
  viewBox="0 0 24 24"
  fill="none"
  stroke="currentColor"
  stroke-width="2"
  stroke-linecap="round"
  stroke-linejoin="round"
>
  <path d="M8 .08a7.92 7.92 0 1 0 0 15.84A7.92 7.92 0 0 0 8 .08zm2.971 11.248a3.29 3.29 0 0 0 1.343-2.355c.225-1.8-.495-4.616-1.956-4.616S8.177 7.173 8.401 8.96c.09.977.595 1.82 1.335 2.362s-.044 1.478-.135 3.329a6.658 6.658 0 0 1-3.208-.01c.008-1.841-.045-3.313-.045-3.313l1.003-1.6V4.357H6.85v3.984h-.411V4.357h-.501v3.984h-.411V4.357h-.496v3.984H4.62V4.357h-.501v5.392l1.003 1.6-.101 2.832c-2.31-1.135-3.873-3.47-3.873-6.171a6.853 6.853 0 1 1 13.706 0 6.853 6.853 0 0 1-3.747 6.111c-.092-1.593-.135-2.793-.135-2.793z" />
</svg>
