<svg
  xmlns="http://www.w3.org/2000/svg"
  width="24"
  height="24"
  viewBox="0 0 24 24"
  fill="none"
  stroke="currentColor"
  stroke-width="2"
  stroke-linecap="round"
  stroke-linejoin="round"
>
  <path d="M6.613 7.232a1.152 1.152 0 1 1-2.305 0 1.152 1.152 0 0 1 2.305 0z" />
  <path d="M14.139 1.013H1.872a.907.907 0 0 0-.907.907v10.624c0 .501.406.907.907.907h12.267a.907.907 0 0 0 .907-.907V1.925 1.92a.907.907 0 0 0-.907-.907zm.042 10.278c0 .713-.578 1.291-1.291 1.291H3.114a1.291 1.291 0 0 1-1.291-1.291V3.2v-.027c0-.713.578-1.291 1.291-1.291H12.891c.713 0 1.291.578 1.291 1.291v.028z" />
  <path d="M12.885 2.283H3.108a.891.891 0 0 0-.891.891v8.117c0 .492.399.891.891.891h9.776a.891.891 0 0 0 .891-.891V3.2v-.027a.891.891 0 0 0-.891-.891zM5.461 8.917a1.685 1.685 0 1 1 0-3.37 1.685 1.685 0 0 1 0 3.37zm4.715.918h-.981v-.981h.981zm0-1.915h-.981v-.987h.981zm0-1.915h-.981v-.987h.981zm1.851 3.835h-.987v-.987h.981zm0-1.915h-.987v-.992h.981zm0-1.914h-.987v-.992h.981z" />
  <path d="M2.027 13.824l.395 1.163h3.541l.395-1.163H2.027z" />
  <path d="M9.829 13.824l.395 1.163h3.541l.395-1.163H9.829z" />
</svg>
