<svg
  xmlns="http://www.w3.org/2000/svg"
  width="24"
  height="24"
  viewBox="0 0 24 24"
  fill="none"
  stroke="currentColor"
  stroke-width="2"
  stroke-linecap="round"
  stroke-linejoin="round"
>
  <path d="M11.55 13.35L7.3 9.1l2.85-3.65c.2.15.5.15.7-.05s.2-.5 0-.7c-.2-.2-.5-.2-.7 0s-.2.5-.05.7L6.45 8.25l-3.9-3.9c-.15-.1-.25-.15-.35-.15-.05 0-.1 0-.15.05-.1.05-.1.1-.15.15-.7.85-.65 2-.4 3 .45 1.65 1.55 3.05 2.7 4.25 1.15 1.15 2.55 2.15 4.1 2.65 1.05.35 2.35.4 3.2-.4.2-.15.2-.4.05-.55z" />
  <path d="M5.65 12.45c-.45-.35-.9-.75-1.35-1.2-.5-.5-.9-1-1.25-1.45-.9 1.9-1.75 3.9-2.65 5.8-.1.15 0 .4.2.4h5.1c.05 0 .1-.05.1-.05.1-.05.15-.1.15-.25-.05-1.1-.2-2.2-.3-3.25z" />
  <path d="M10.25 1.9c2.45.35 3.6 1.55 3.95 4 0 .25 0 .55.25.55s.25-.2.25-.4V5.9c.05-2.35-2-4.5-4.4-4.55-.2 0-.6-.15-.6.25 0 .3.35.2.55.3z" />
  <path d="M10.7 2.55c-.25-.05-.55-.15-.6.15-.05.4.25.35.55.4 1.55.35 2.05.85 2.35 2.4v.2c0 .15.05.35.35.25.15 0 .2-.05.2-.2V5.5c0-1.5-1.3-2.8-2.85-2.95z" />
  <path d="M10.85 3.7c-.15 0-.35.05-.35.2-.15.25.05.35.25.35.6.15.95.45 1 1.05 0 .15.05.2.05.25.05 0 .15.05.25.05l.05-.05c.15-.05.15-.2.15-.35.1-.7-.75-1.5-1.4-1.5z" />
</svg>
