<svg
  xmlns="http://www.w3.org/2000/svg"
  width="24"
  height="24"
  viewBox="0 0 24 24"
  fill="none"
  stroke="currentColor"
  stroke-width="2"
  stroke-linecap="round"
  stroke-linejoin="round"
>
  <path d="M4.75 10.45c.9-.1 1.75-.35 2.5-.75l.5-.25C8.9 8.8 10.25 8.4 11.7 8.4c1.4 0 2.7.35 3.85 1v-.9a7.75 7.75 0 0 0-3.85-1c-1.25 0-2.45.3-3.5.8l-.95.45c-.8.4-1.65.7-2.6.8-1.45.15-2.8-.05-4.05-.6v.9c1.3.55 2.7.8 4.15.6z" />
  <path d="M4.85 8.5v-.7H7.1c.05 0 .1-.05.15-.05l.95-.45c.5-.25 1.05-.45 1.6-.6V2.8c0-.4.35-.75.75-.75s.7.3.75.65h1a1.754 1.754 0 0 0-3.5 0v2.15h-4V2.8c0-.4.35-.75.75-.75s.7.3.75.65h1c-.05-.9-.8-1.65-1.75-1.65S3.8 1.85 3.8 2.8v5.8c.25 0 .55 0 .8-.05.15 0 .2-.05.25-.05zm0-2.65h4v1h-4v-1z" />
  <path d="M4.55 12.85c.9-.1 1.75-.35 2.5-.75l.5-.25c1.15-.65 2.5-1.05 3.95-1.05 1.4 0 2.7.35 3.85 1v-.95a7.75 7.75 0 0 0-3.85-1c-1.25 0-2.45.3-3.5.8l-.95.45c-.8.4-1.65.7-2.6.8-1.45.15-2.8-.05-4.05-.6v.9c1.3.55 2.7.8 4.15.65z" />
  <path d="M4.55 14.9c.9-.1 1.75-.35 2.5-.75l.5-.25c1.15-.65 2.5-1.05 3.95-1.05 1.4 0 2.7.35 3.85 1v-.95a7.75 7.75 0 0 0-3.85-1c-1.25 0-2.45.3-3.5.8l-.95.45c-.8.4-1.65.7-2.6.8-1.45.15-2.8-.05-4.05-.6v.9c1.3.55 2.7.8 4.15.65z" />
</svg>
