<svg
  xmlns="http://www.w3.org/2000/svg"
  width="24"
  height="24"
  viewBox="0 0 24 24"
  fill="none"
  stroke="currentColor"
  stroke-width="2"
  stroke-linecap="round"
  stroke-linejoin="round"
>
  <path d="M10.176 8.944a.722.722 0 0 0-.752-.169l-.555-.562a3.003 3.003 0 1 0-.711.715l.551.566a.724.724 0 0 0 .17.747l1.995 1.995a.726.726 0 0 0 1.034 0l.261-.261a.726.726 0 0 0 0-1.034zm-5.285-.901a2.187 2.187 0 1 1 1.547.64h-.001c-.604 0-1.15-.245-1.546-.64z" />
  <path d="M8 .08a7.92 7.92 0 1 0 0 15.84A7.92 7.92 0 0 0 8 .08zm0 14.773A6.853 6.853 0 1 1 8 1.147a6.853 6.853 0 0 1 0 13.706z" />
</svg>
