<svg
  xmlns="http://www.w3.org/2000/svg"
  width="24"
  height="24"
  viewBox="0 0 24 24"
  fill="none"
  stroke="currentColor"
  stroke-width="2"
  stroke-linecap="round"
  stroke-linejoin="round"
>
  <path d="M15.147 1.835H12.55a2.232 2.232 0 0 0-.446-.293l.355-.726a.405.405 0 0 0-.724-.364l-.433.845a3.574 3.574 0 0 0-1.296.003L9.601.454a.401.401 0 1 0-.714.366l.367.718a2.257 2.257 0 0 0-.462.301l-2.578-.003h-.005a.768.768 0 0 0-.768.768v4.64l.88-.048V2.748h7.632v5.003h-.619a.986.986 0 0 1 .287.924c-.014.067.001.047.001.074h1.531a.768.768 0 0 0 .768-.746V2.605a.768.768 0 0 0-.768-.768h-.006zm-.246 3.424a.449.449 0 1 1 .448-.459v.017a.449.449 0 0 1-.448.448zm0-1.6a.449.449 0 1 1 .448-.459v.011a.449.449 0 0 1-.448.448z" />
  <path d="M12.8 8.053c-.704-.139-4.224-.363-5.291-.363s-4.592.224-5.291.363c-.475.139-.304.421-.304.8v.677c.207.018.397.074.569.159.524.268.961 1.292 1.239 2.129a19.53 19.53 0 0 1 3.38-.235h.806l.284-.002c1.087 0 2.155.086 3.196.252.168-.831.611-1.86 1.139-2.148.163-.081.353-.136.554-.154.006-.336.006-.592.006-.678.011-.379.187-.661-.288-.8z" />
  <path d="M13.867 10.133h-.117l-.192-.037h-.448a1.074 1.074 0 0 0-.321.099c-.527.269-1.135 2.269-1.135 2.269a15.986 15.986 0 0 0-3.754-.336h-.806a16.583 16.583 0 0 0-3.841.355c-1.109.236-.49-2.051-1.018-2.35a1.033 1.033 0 0 0-.309-.095l-.006-.001h-.453l-.192.037h-.048l-.112.059H1.03c-.784.288-1.131.405-.891.997s.784 1.781.784 1.781v2.261c0 .379 0 .533.304.533h1.904l.379-.587h8l.379.587h1.872c.315 0 .304-.181.304-.533v-2.229s.533-1.195.784-1.781-.107-.709-.891-.997h-.037z" />
</svg>
