<svg
  xmlns="http://www.w3.org/2000/svg"
  width="24"
  height="24"
  viewBox="0 0 24 24"
  fill="none"
  stroke="currentColor"
  stroke-width="2"
  stroke-linecap="round"
  stroke-linejoin="round"
>
  <path d="M11.6 6.45H4.1c-.85 0-1.6.85-1.6 2.05v3.05c0 .15.15.3.25.3H12.9c.1 0 .15-.2.15-.3V8.5c0-1.2-.6-2.05-1.45-2.05z" />
  <path d="M13.05 9.2c0-.15-.1-.25-.2-.25H2.7c-.1 0-.2.1-.2.25v2.35c0 .15.1.25.2.25h10.15c.1 0 .2-.1.2-.25V9.2z" />
  <path d="M2.55 12.45H13.1v.9H2.55v-.9z" />
  <path d="M11.7 15.05h.7c.1 0 .15-.2.15-.5v-.85h-.9v.85c-.1.3 0 .5.05.5z" />
  <path d="M11.55 14.35v.05h.95v-.7h-.9v.65z" />
  <path d="M11.55.75H3.8c-.05 0-.15.05-.15.25v4.85h8.05V1c-.05-.2-.05-.25-.15-.25zM9.4 5.85H5.85c0-.85-.2-1.65-.2-1.65 0-.15.1-.25.25-.25 0 0 .9.15 1.75.15.8 0 1.65-.15 1.65-.15.15 0 .25.15.25.25.05 0-.15.85-.15 1.65z" />
  <path d="M3.3 15.05H4c.1 0 .15-.2.15-.5v-.85h-1v.85c0 .3.05.5.15.5z" />
  <path d="M3.15 14.35v.05h.9v-.7h-.9v.65z" />
</svg>
