<svg
  xmlns="http://www.w3.org/2000/svg"
  width="24"
  height="24"
  viewBox="0 0 24 24"
  fill="none"
  stroke="currentColor"
  stroke-width="2"
  stroke-linecap="round"
  stroke-linejoin="round"
>
  <path d="M4.907 11.008a1.05 1.05 0 1 1-2.102 0 1.05 1.05 0 0 1 2.102 0z" />
  <path d="M5.456 12.059h6.277l1.067-1.173 1.179 1.173h1.269s.843-1.2.533-1.115c-.371.121-.678.246-.975.388s-1.681-1.946-2.188-1.946-1.883 1.6-1.883 1.6a9.431 9.431 0 0 0-2.551-.532c-1.3-.044-2.846.99-2.9 1.065-.421.651.171.539.171.539z" />
  <path d="M.085 10.485v-.117a.54.54 0 0 0 0 .12z" />
  <path d="M9.067 12.8c-7.808 0-8.848-1.824-8.981-2.315.677 4.197 7.301 4.224 8.981 4.224s8.304 0 8.981-4.229c-.133.496-1.173 2.32-8.981 2.32z" />
  <path d="M18.048 10.485a.54.54 0 0 0 0-.12c.016.04.011.077 0 .12z" />
  <path d="M13.184 2.88l.384.784.384-.784.864-.123-.624-.608.149-.859-.773.405-.768-.405.144.859-.624.608.864.123z" />
  <path d="M7.413 3.717l.336.677.331-.677.752-.107-.544-.528.128-.747-.667.352-.672-.352.128.747-.544.528.752.107z" />
  <path d="M14.896 6.869l-.395.384.544.08.24.496.245-.496.544-.08-.395-.384.096-.539-.491.256-.485-.256.096.539z" />
  <path d="M10.075 6.437l.245.496.24-.496.544-.08-.389-.384.091-.539-.485.256-.491-.256.096.539-.395.384.544.08z" />
  <path d="M3.984 6.736c.517-.17.94-.507 1.216-.945a1.82 1.82 0 0 1-.927.252 1.792 1.792 0 0 1-.14-3.579 2.272 2.272 0 1 0-.132 4.262z" />
</svg>
