<svg
  xmlns="http://www.w3.org/2000/svg"
  width="24"
  height="24"
  viewBox="0 0 24 24"
  fill="none"
  stroke="currentColor"
  stroke-width="2"
  stroke-linecap="round"
  stroke-linejoin="round"
>
  <path d="M12.997 10.885l-3.253-4.8a.849.849 0 0 0-.654-.218H6.907a.85.85 0 0 0-.634.287l-.001.001-3.253 4.8H1.627V16h1.269v-3.653h2.619v-1.269a1.425 1.425 0 0 1 .001-.196l-.982.004 1.515-2.261v1.381a1.347 1.347 0 0 1 1.949.31 1.367 1.367 0 0 1 1.125-.595c.314 0 .603.107.833.288L9.953 8.62l1.515 2.261h-.997a1.425 1.425 0 0 1-.001.196v1.27h2.619V16h1.269v-5.115z" />
  <path d="M9.68 3.179a1.68 1.68 0 1 1-3.36 0 1.68 1.68 0 0 1 3.36 0z" />
  <path d="M7.701 11.077a.827.827 0 1 0-1.654 0v3.275a.827.827 0 1 0 1.654 0z" />
  <path d="M9.952 11.077a.827.827 0 1 0-1.654 0v3.275a.827.827 0 1 0 1.654 0z" />
  <path d="M3.259 7.339c.928-.533 1.493-1.664.741-2.571a2.369 2.369 0 0 1-.496-2.385c.084-.244-1.605 1.195-.384 2.683.257.342.412.774.412 1.242 0 .379-.101.734-.278 1.04z" />
  <path d="M12.197 7.339c.928-.533 1.493-1.664.741-2.571a2.369 2.369 0 0 1-.496-2.385c.084-.244-1.605 1.195-.384 2.683.257.342.412.774.412 1.242 0 .379-.101.734-.278 1.04z" />
</svg>
