<svg
  xmlns="http://www.w3.org/2000/svg"
  width="24"
  height="24"
  viewBox="0 0 24 24"
  fill="none"
  stroke="currentColor"
  stroke-width="2"
  stroke-linecap="round"
  stroke-linejoin="round"
>
  <path d="M.2 5.75l4.6 4.55" />
  <path d="M4.65 10.25h11.1" />
  <path d="M6.95 10.35l-1.25 1.2" />
  <path d="M12.15 10.25l1.25 1.25" />
  <path d="M12.65 9.3h-7.2C5.2 9.3 5 9.1 5 8.85V8.8c0-.25.2-.45.45-.45h7.2c.25 0 .45.2.45.45v.05c0 .2-.2.45-.45.45z" />
  <path d="M5 9.05L1.85 5.9c-.2-.2-.2-.5 0-.65.2-.2.5-.2.65 0L5.65 8.4c.2.2.2.5 0 .65-.15.2-.45.2-.65 0z" />
</svg>
