<svg
  xmlns="http://www.w3.org/2000/svg"
  width="24"
  height="24"
  viewBox="0 0 24 24"
  fill="none"
  stroke="currentColor"
  stroke-width="2"
  stroke-linecap="round"
  stroke-linejoin="round"
>
  <path d="M10.533 12.736s-.261-1.355-1.259-1.355-1.152.608-2.037.608-1.312-.747-1.867-.747-.981.747-1.867.747-1.067-.608-2.037-.608S.197 12.736.197 12.736h10.336z" />
  <path d="M14.437 13.701c-.997 0-1.152.608-2.037.608s-1.312-.747-1.867-.747-.981.747-1.867.747-1.067-.608-2.037-.608a1.15 1.15 0 0 0-.984.644c-.121.21-.215.445-.272.694l10.322.017a2.502 2.502 0 0 0-.279-.716 1.142 1.142 0 0 0-.978-.638z" />
  <path d="M5.467 10.667h10.336a2.258 2.258 0 0 0-.535-1.069 1.005 1.005 0 0 0-.709-.291h-.041c-.381 0-.737.109-1.038.298a1.815 1.815 0 0 1-.982.305 1.753 1.753 0 0 1-.957-.313l.043.004a4.1 4.1 0 1 0-7.365-.432c-.762-.091-.965-.619-1.903-.619-.693 0-1.029.656-1.173 1.067-.031.082-.06.184-.083.289l4.712.015a2.49 2.49 0 0 0-.301.729z" />
  <path d="M8.203 2.608L8.406.944h-.795l.203 1.664h.389z" />
  <path d="M5.664 3.184l-.656-1.541-.688.4 1.003 1.339.341-.197z" />
  <path d="M3.755 4.955L2.411 3.947l-.395.688 1.541.656.197-.336z" />
  <path d="M2.981 7.44l-1.664-.203v.795l1.664-.197V7.44z" />
  <path d="M13.035 7.829l1.664.203v-.795l-1.664.203v.389z" />
  <path d="M14 4.635l-.4-.688-1.339 1.008.197.336 1.541-.656z" />
  <path d="M11.696 2.043l-.688-.4-.656 1.541.336.197 1.008-1.339z" />
</svg>
