<svg
  xmlns="http://www.w3.org/2000/svg"
  width="24"
  height="24"
  viewBox="0 0 24 24"
  fill="none"
  stroke="currentColor"
  stroke-width="2"
  stroke-linecap="round"
  stroke-linejoin="round"
>
  <path d="M12.448.677L5.216.096a.65.65 0 0 0-.698.595l-.171 2.136-3.408.603a1.068 1.068 0 0 0-.853 1.222l1.796 10.383c.095.494.521.863 1.034.869h.182l7.147-1.237a1.068 1.068 0 0 0 .853-1.222l-.17-.991.565.048a.65.65 0 0 0 .698-.595l.848-10.509a.65.65 0 0 0-.59-.72zm-2.133 12.896a.25.25 0 0 1-.18.293L2.96 15.098a.252.252 0 0 1-.293-.201L.875 4.506a.25.25 0 0 1 .19-.287l7.148-1.238h.043l.029-.002c.128 0 .233.096.249.219zM11.2 11.2a.2.2 0 0 1-.197.181h-.251l-.085-.405h.149l.731-8.928-5.68-.448-.08.997-.389.069.107-1.301a.2.2 0 0 1 .069-.133.194.194 0 0 1 .145-.048l6.058.491a.203.203 0 0 1 .182.202v.012z" />
  <path d="M4.869 10.8a.812.812 0 0 0 .654-.491l.002-.005a2.075 2.075 0 0 1-.198 1.371l.005.026 1.339-.229v-.037a2.122 2.122 0 0 1-.617-1.21l-.001-.012a.811.811 0 0 0 .79.25.974.974 0 0 0 .792-1.248c-.089-.526-.745-1.06-1.129-1.364S5.487 7.03 5.178 6.784c-.208.325-.597.955-.896 1.44s-.693 1.147-.603 1.669a.977.977 0 0 0 1.196.906z" />
  <path d="M16.347 10.091c.102.001.199.02.288.055l.656.243.688-1.856a.411.411 0 0 0-.237-.532l-2.915-1.068a.411.411 0 0 0-.532.237l-1.068 2.915a.411.411 0 0 0 .237.532l1.88.705.261-.688a.813.813 0 0 1 .74-.544zm.368-1.51a.347.347 0 1 1 .2.448.347.347 0 0 1-.205-.45zm-2.23 1.462a.347.347 0 1 1-.2-.448.346.346 0 0 1 .194.449zm.31-1.814a.347.347 0 1 1 .448-.2.347.347 0 0 1-.455.2zm.48.96a.347.347 0 1 1 .2.448.347.347 0 0 1-.205-.45z" />
  <path d="M19.397 11.611l-2.912-1.067a.374.374 0 0 0-.157.001h-.029a.44.44 0 0 0-.108 0h-.041l-.08.059-.032.032a.403.403 0 0 0-.079.12l-1.068 2.915a.411.411 0 0 0 .237.532l2.915 1.068a.374.374 0 0 0 .157-.001h.029a.44.44 0 0 0 .108 0h.041l.08-.059.032-.032a.403.403 0 0 0 .079-.12l1.068-2.915a.411.411 0 0 0-.237-.532zm-3.05 1.936a.347.347 0 1 1 .023-.124.352.352 0 0 1-.023.126zm2.469-1.067a.347.347 0 1 1-.2-.448.347.347 0 0 1 .2.465z" />
</svg>
