<svg
  xmlns="http://www.w3.org/2000/svg"
  width="24"
  height="24"
  viewBox="0 0 24 24"
  fill="none"
  stroke="currentColor"
  stroke-width="2"
  stroke-linecap="round"
  stroke-linejoin="round"
>
  <path d="M15.035 11.36h-.267V8.581l-1.147-1.483s-.624-2.224-.821-3.013-.64-1.099-1.189-1.099h-.88V1.839a.672.672 0 0 0-.672-.672H5.942a.672.672 0 0 0-.672.672v1.147h-.88c-.533 0-1.003.309-1.195 1.099s-.811 3.013-.811 3.013L1.232 8.581v2.779H.965a.283.283 0 0 0-.283.283V12.8c0 .156.127.283.283.283h1.328v1.168c0 .321.26.581.581.581h.859a.58.58 0 0 0 .581-.581v-1.152h7.392v1.152c0 .314.248.569.559.581h.854a.58.58 0 0 0 .581-.581v-1.152h1.328a.283.283 0 0 0 .283-.283v-1.173a.283.283 0 0 0-.277-.283zm-10.288-.693V9.424h6.555v1.243zm8.304-1.392a.741.741 0 1 1-.741.741c.012-.4.339-.72.741-.72zm-8.72-5.542h7.339l.981 3.349H3.355zM2.949 9.296a.741.741 0 1 1 0 1.483.741.741 0 0 1 0-1.483z" />
</svg>
