<svg
  xmlns="http://www.w3.org/2000/svg"
  width="24"
  height="24"
  viewBox="0 0 24 24"
  fill="none"
  stroke="currentColor"
  stroke-width="2"
  stroke-linecap="round"
  stroke-linejoin="round"
>
  <path d="M11.056 3.733h2.315l-.405-1.264a.652.652 0 0 0-.603-.405H8.448a.651.651 0 0 0-.601.401l-.38 1.268h3.616z" />
  <path d="M16.944 7.765a7.013 7.013 0 0 0-.824-.285c-.143-.036-.213-.097-.247-.177l-1.206-2.717a.728.728 0 0 0-.628-.411H6.64a1.032 1.032 0 0 0-.681.382L3.941 7.332a.286.286 0 0 1-.207.133 7.27 7.27 0 0 0-2.471.702c-.784.445-1.152 2.648-1.269 3.522a.3.3 0 0 0 .297.336h2.103a2.4 2.4 0 0 1 4.8 0h3.792a2.4 2.4 0 0 1 4.8 0h.681a.3.3 0 0 0 .179-.059l.869-.645a.302.302 0 0 0 .123-.24V8.836a1.014 1.014 0 0 0-.686-1.07zm-7.035-.298a.24.24 0 0 1-.24.24H5.594a.24.24 0 0 1-.187-.39l1.477-2.101a.242.242 0 0 1 .187-.091h2.597a.24.24 0 0 1 .24.24zm4.315.24H11.2a.24.24 0 0 1-.24-.24V5.334a.24.24 0 0 1 .239-.219h2.3a.24.24 0 0 1 .223.158l.737 2.103a.24.24 0 0 1-.226.32h-.009z" />
  <path d="M15.04 11.435a1.82 1.82 0 0 0-3.494.71c.002.311.083.603.223.857a1.813 1.813 0 0 0 3.265-1.577zm-.917.709a.763.763 0 0 1-.763.763.801.801 0 0 1-.766-.827c0-.023.001-.045.003-.067v.003a.747.747 0 0 1 1.27-.406.754.754 0 0 1 .197.401l.001.004a.625.625 0 0 1 0 .131z" />
  <path d="M6.459 11.435a1.82 1.82 0 0 0-3.494.71c.002.322.089.623.239.883a1.815 1.815 0 1 0 3.249-1.619zm-.912.709a.763.763 0 0 1-.746.757h-.06a.76.76 0 0 1-.699-.746.625.625 0 0 1 0-.131v.003a.742.742 0 0 1 1.472-.004v.004a.625.625 0 0 1 0 .131z" />
</svg>
