<svg
  xmlns="http://www.w3.org/2000/svg"
  width="24"
  height="24"
  viewBox="0 0 24 24"
  fill="none"
  stroke="currentColor"
  stroke-width="2"
  stroke-linecap="round"
  stroke-linejoin="round"
>
  <path d="M13.029 4.731c-.886-2.635-3.333-4.5-6.216-4.5A6.544 6.544 0 0 0 4.584 12.93c1.126 1.716 3.001 2.829 5.136 2.829a6.01 6.01 0 0 0 3.332-11.015zm-6.218 7.536h-.027a5.483 5.483 0 1 1 5.483-5.489c0 3.02-2.439 5.47-5.454 5.488z" />
  <path d="M6.811 2.784a.667.667 0 0 0-.667.667v2.667H4.043a.667.667 0 1 0 0 1.334h2.768a.667.667 0 0 0 .656-.667V3.451a.667.667 0 0 0-.655-.667z" />
</svg>
