<svg
  xmlns="http://www.w3.org/2000/svg"
  width="24"
  height="24"
  viewBox="0 0 24 24"
  fill="none"
  stroke="currentColor"
  stroke-width="2"
  stroke-linecap="round"
  stroke-linejoin="round"
>
  <path d="M15.867 5.781C13.686.576 8 .832 8 .832S2.315.576.133 5.781h15.733z" />
  <path d="M.133 6.171l.432.896h4.576l.405-.896H.133z" />
  <path d="M5.547 6.171l.405.896h4.347l.411-.896H5.547z" />
  <path d="M10.709 6.171l.405.896h4.347l.405-.896h-5.157z" />
  <path d="M8.656.533S8.315 0 8 0s-.656.533-.656.533h1.317z" />
  <path d="M14.208 10.283h-.8a.118.118 0 0 0-.101.063l-.87 1.761H9.93l-.592 1.227H3.199a.229.229 0 0 0-.229.229v.891c0 .127.103.229.229.229h.811l-.533 1.12a.117.117 0 0 0 .107.165h.807a.118.118 0 0 0 .104-.063l.582-1.217h2.485v.843a.443.443 0 0 0 .886 0v-.832h3.104l.581 1.216c.02.038.059.064.105.064h.829a.117.117 0 0 0 .106-.166l-.661-1.413a.118.118 0 0 0-.026-.032v-.224l1.829-3.733.001-.011a.117.117 0 0 0-.107-.117zm-3.845 2.57h1.707l-.245.496h-1.691z" />
  <path d="M7.557 7.611h.885v5.2h-.885v-5.2z" />
</svg>
