<svg
  xmlns="http://www.w3.org/2000/svg"
  width="24"
  height="24"
  viewBox="0 0 24 24"
  fill="none"
  stroke="currentColor"
  stroke-width="2"
  stroke-linecap="round"
  stroke-linejoin="round"
>
  <path d="M12.88 5.333a1.068 1.068 0 0 0-1.486-.312L6.363 8.64 4.8 7.045a1.067 1.067 0 0 0-1.525 1.49l2.132 2.25a1.064 1.064 0 0 0 1.364.157l5.777-4.104a1.067 1.067 0 0 0 .328-1.508z" />
  <path d="M8 .08a7.92 7.92 0 1 0 0 15.84A7.92 7.92 0 0 0 8 .08zm0 14.773A6.853 6.853 0 1 1 8 1.147a6.853 6.853 0 0 1 0 13.706z" />
</svg>
