<svg
  xmlns="http://www.w3.org/2000/svg"
  width="24"
  height="24"
  viewBox="0 0 24 24"
  fill="none"
  stroke="currentColor"
  stroke-width="2"
  stroke-linecap="round"
  stroke-linejoin="round"
>
  <path d="M7.397 3.781v4.005H4.549a.8.8 0 1 0 0 1.6h3.648a.8.8 0 0 0 .8-.8v-4.8a.8.8 0 1 0-1.6 0z" />
  <path d="M8 .08h-.021a7.92 7.92 0 1 0 2.604 15.402l.046-1.156a6.747 6.747 0 0 1-2.647.531c-3.794 0-6.869-3.075-6.869-6.869s3.075-6.869 6.869-6.869a6.869 6.869 0 0 1 6.053 10.119l-1.769-1.103-.283 3.403-.112 1.344c2.413-1.387 4.012-3.949 4.012-6.885A7.916 7.916 0 0 0 8.001.082z" />
</svg>
