<svg
  xmlns="http://www.w3.org/2000/svg"
  width="24"
  height="24"
  viewBox="0 0 24 24"
  fill="none"
  stroke="currentColor"
  stroke-width="2"
  stroke-linecap="round"
  stroke-linejoin="round"
>
  <path d="M16.576 11.525c0-1.909-4.048-2.907-8.043-2.907S.49 9.599.49 11.525c0 1.643 2.971 2.523 5.755 2.795l.107-1.067c-3.125-.309-4.8-1.205-4.8-1.733 0-.624 2.464-1.84 6.976-1.84s6.976 1.216 6.976 1.84-1.936 1.573-5.52 1.813l.757-.651a.532.532 0 0 0-.361-.925.529.529 0 0 0-.338.121l-1.855 1.599v.032h-.032a.486.486 0 0 0-.031.056.51.51 0 0 0 0 .586.41.41 0 0 0 .032.059l.031-.002v.032l1.856 1.6a.533.533 0 0 0 .699-.805l-.784-.635c3.477-.219 6.619-1.195 6.619-2.875z" />
  <path d="M14.832 4.635H1.307a.352.352 0 0 0-.293.535l1.722 2.569a.352.352 0 0 0 .291.155H14.4a.352.352 0 0 0 .341-.264l.747-3.01z" />
  <path d="M3.579 4.101H14.4a.347.347 0 0 0 .335-.424l-.176-.808a.347.347 0 0 0-.336-.272h-.536a.347.347 0 0 1-.327-.232l-.342-1.032a.348.348 0 0 0-.33-.267H7.589l.288-1.067h-.656a.384.384 0 0 0-.314.169l-.678.897H5.098a.345.345 0 0 0-.298.18L3.29 3.567a.347.347 0 0 0 .287.534zM5.2 1.6h7.355l.299.901c.12.353.448.603.835.603h.391l.096.437H3.925z" />
  <path d="M11.621.064H9.712l-.176.725h2.085V.064z" />
  <path d="M5.856 2.219h.816v.816h-.816v-.816z" />
  <path d="M7.536 2.219h.816v.816h-.816v-.816z" />
  <path d="M9.216 2.219h.816v.816h-.816v-.816z" />
  <path d="M10.891 2.219h.816v.816h-.816v-.816z" />
</svg>
