<svg
  xmlns="http://www.w3.org/2000/svg"
  width="24"
  height="24"
  viewBox="0 0 24 24"
  fill="none"
  stroke="currentColor"
  stroke-width="2"
  stroke-linecap="round"
  stroke-linejoin="round"
>
  <path d="M13.029.475A22.867 22.867 0 0 0 7.982 0c-.079-.002-.192-.002-.305-.002-1.666 0-3.292.174-4.86.504-.529.127-1.031.729-1.031 1.447v10.58c0 .339.275.613.613.613h1.237l-1.152 2.859h1.573l.576-1.429h6.736l.571 1.429h1.568l-1.152-2.859h1.243a.613.613 0 0 0 .613-.613V1.953 1.95A1.51 1.51 0 0 0 13.038.478zm-8.565.794c0-.18.146-.325.325-.325h6.41c.18 0 .325.146.325.325v.251c0 .18-.146.325-.325.325h-6.4a.325.325 0 0 1-.325-.325zM3.141 3.275a.614.614 0 0 1 .591-.608h8.534c.339 0 .613.275.613.613v4.661a.614.614 0 0 1-.613.592H3.733a.613.613 0 0 1-.613-.613zm-.368 8.181a.752.752 0 1 1 1.505 0 .752.752 0 0 1-1.505 0zm8.363 2.533H4.864l.341-.843h5.589zm1.339-1.781a.752.752 0 1 1 0-1.505.752.752 0 0 1 0 1.505z" />
</svg>
