<svg
  xmlns="http://www.w3.org/2000/svg"
  width="24"
  height="24"
  viewBox="0 0 24 24"
  fill="none"
  stroke="currentColor"
  stroke-width="2"
  stroke-linecap="round"
  stroke-linejoin="round"
>
  <path d="M18.667 5.189c0-.563-.456-1.019-1.019-1.019H1.019C.456 4.17 0 4.626 0 5.189v7.28h1.216a1.307 1.307 0 1 0 2.383.99l.066-.009a1.308 1.308 0 0 0 2.553.008l6.279-.009a1.308 1.308 0 0 0 2.553.008l.066-.009a1.307 1.307 0 1 0 2.381-.987l1.171.005zm-3.734.838c0-.159.129-.288.288-.288h1.739c.159 0 .288.129.288.288v1.739a.288.288 0 0 1-.288.288h-1.723a.288.288 0 0 1-.288-.288zm-.709 6.848h-.891a.535.535 0 0 1 .905-.002zm-1.728 0H6.213a1.27 1.27 0 0 0-.174-.41l6.632.005a1.302 1.302 0 0 0-.169.396zm-7.557-.256a.534.534 0 0 1 .452.254l-.905.002a.534.534 0 0 1 .453-.256zm6.624-6.592c0-.159.129-.288.288-.288h1.739c.159 0 .288.129.288.288v1.739a.288.288 0 0 1-.288.288h-1.739a.288.288 0 0 1-.288-.288zm-3.387 0c0-.159.129-.288.288-.288h1.739c.159 0 .288.129.288.288v1.739a.288.288 0 0 1-.288.288H8.464a.288.288 0 0 1-.288-.288zm-3.376 0c0-.159.129-.288.288-.288h1.739c.159 0 .288.129.288.288v1.739a.288.288 0 0 1-.288.288H5.078a.289.289 0 0 1-.277-.288zm-3.387 0c0-.159.129-.288.288-.288h1.744c.159 0 .288.129.288.288v3.611a.288.288 0 0 1-.288.288H1.69a.288.288 0 0 1-.288-.288zm2.422 6.442a1.302 1.302 0 0 0-.169.396l-.071.009a1.27 1.27 0 0 0-.174-.41zM2.32 13.717a.55.55 0 0 1 0-1.098.534.534 0 0 1 .452.254l-.452.002a.288.288 0 0 0 0 .576h.459a.535.535 0 0 1-.458.267zm2.619 0a.532.532 0 0 1-.457-.264l.921-.003a.534.534 0 0 1-.462.267h-.002zm8.832 0a.532.532 0 0 1-.457-.264l.921-.003a.535.535 0 0 1-.459.267zm2.618 0a.532.532 0 0 1-.457-.264l.457-.003a.288.288 0 0 0 0-.576h-.453a.534.534 0 0 1 .453-.256.549.549 0 1 1 0 1.098zm-1.274-.842h-.075a1.27 1.27 0 0 0-.174-.41l.414.005a1.265 1.265 0 0 0-.158.397z" />
  <path d="M2.843 2.848l.037.037a.259.259 0 0 0 .037.037l1.312.886a.288.288 0 0 0 .321 0l1.316-.879a.297.297 0 0 0 .069-.068l.001-.001a.296.296 0 0 0 .037-.083v-.002a.324.324 0 0 0-.001-.114v.002a.268.268 0 0 0-.038-.086l.001.001-.037-.037a.254.254 0 0 0-.033-.087l-1.317-.879a.29.29 0 0 0-.327.001l-1.3.879a.278.278 0 0 0-.042.042l-.038.038a.296.296 0 0 0-.037.083v.002a.278.278 0 0 0 0 .114v-.002a.293.293 0 0 0 .038.119zm1.546-.715l.789.533-.789.533-.789-.533z" />
  <path d="M12.8 2.848l.037.037a.259.259 0 0 0 .037.037l1.307.88a.288.288 0 0 0 .321 0l1.306-.879a.297.297 0 0 0 .069-.068l.001-.001a.296.296 0 0 0 .037-.083v-.002a.278.278 0 0 0-.001-.114v.002a.268.268 0 0 0-.038-.086l.001.001-.037-.037a.278.278 0 0 0-.042-.042l-1.313-.918a.29.29 0 0 0-.327.001l-1.3.879a.278.278 0 0 0-.042.042l-.016.033a.296.296 0 0 0-.037.083v.002a.278.278 0 0 0 .001.114v-.002a.286.286 0 0 0 .038.124zm1.525-.715l.789.533-.789.533-.789-.533z" />
</svg>
