<svg
  xmlns="http://www.w3.org/2000/svg"
  width="24"
  height="24"
  viewBox="0 0 24 24"
  fill="none"
  stroke="currentColor"
  stroke-width="2"
  stroke-linecap="round"
  stroke-linejoin="round"
>
  <path d="M9.899 8.709H5.942l-2.741.581v.843l2.741.533h4.107l2.725-.533V9.29l-2.725-.571z" />
  <path d="M9.888 11.109H6.101a.79.79 0 0 1-.18 0l-2.722-.586v.587l1.397.293v3.381c0 .459 1.515.827 3.381.827s3.381-.373 3.381-.827v-3.387l1.397-.293v-.587l-2.715.565a.764.764 0 0 1-.152.026z" />
  <path d="M-.005 7.051h1.403V16H-.005V7.051z" />
  <path d="M9.925 8.16l1.403.229v-3.12H9.925V8.16z" />
  <path d="M11.781 4.267a.533.533 0 0 0-.533-.533h-1.115a.533.533 0 1 0 0 1.066h1.136a.534.534 0 0 0 .512-.533z" />
  <path d="M4.661 8.389l1.403-.229V5.269H4.661v3.12z" />
  <path d="M6.4 4.267a.533.533 0 0 0-.533-.533H4.742a.533.533 0 1 0 0 1.066h1.125a.533.533 0 0 0 .533-.533z" />
  <path d="M14.603 7.051h1.403V16h-1.403V7.051z" />
  <path d="M14.789 5.536a.533.533 0 1 0 0 1.066H16V5.535z" />
  <path d="M1.211 5.536H0v1.067h1.211a.533.533 0 1 0 0-1.066z" />
  <path d="M14.821 4.859H16V0H0v4.859h1.173s-.149-2.107 1.205-2.608 2.208.949 2.208.949h1.403S6.49.997 8 .997 10 3.2 10 3.2h1.403s.816-1.461 2.208-.944 1.211 2.603 1.211 2.603z" />
</svg>
