<svg
  xmlns="http://www.w3.org/2000/svg"
  width="24"
  height="24"
  viewBox="0 0 24 24"
  fill="none"
  stroke="currentColor"
  stroke-width="2"
  stroke-linecap="round"
  stroke-linejoin="round"
>
  <path d="M15.429 1.781h-2.053l-.331.603h2.709l-.325-.603z" />
  <path d="M17.6 4.757a.531.531 0 0 0-.242-.644l-.472-.252V2.709l-.992-1.568h-.72l-.139-.907a.305.305 0 0 0-.296-.235h-.67a.304.304 0 0 0-.298.254l-.139.908h-.72l-.987 1.547v1.157l-.469.251a.533.533 0 0 0-.254.644l.031.076h1.488c.424 0 .768.344.768.768v1.541h.779V2.606L12.3 3.673V2.82l.821-1.307h2.56l.816 1.301v.848l-1.968-1.067v4.539h2.176z" />
  <path d="M4.832 4.843h1.067V1.11v-.001a.72.72 0 0 0-.561-.702A10.928 10.928 0 0 0 3.099.181L2.93.182 2.768.181C1.977.181 1.205.263.46.419c-.237.072-.461.351-.461.683V6.444c0 .162.131.293.293.293h.405v.272a.353.353 0 0 0 .704 0v-.272h2.667V5.612c0-.422.341-.765.762-.768zM1.253.784c0-.085.069-.155.155-.155h3.061c.085 0 .155.069.155.155v.128a.155.155 0 0 1-.155.155H1.408a.155.155 0 0 1-.155-.155zm-.634.96c0-.162.131-.293.293-.293h4.053c.162 0 .293.131.293.293v2.229a.293.293 0 0 1-.293.293H.912a.293.293 0 0 1-.293-.293zm.405 4.267a.405.405 0 1 1 .405-.405v.005a.405.405 0 0 1-.4.405zm2.907.389H1.947v-.533h1.984z" />
  <path d="M6.597 12.848a7.145 7.145 0 0 0-.195 1.133l-.002.03a1.153 1.153 0 0 1-.207-.528L.534 12.72a.24.24 0 0 0-.271.08.172.172 0 0 0 .031.23c.321.301.71.533 1.142.672l1.691.443-.048.043a.897.897 0 0 0-.298.566l-.002.058.002.056v-.002c0 .46.345.84.79.895h.112c.46 0 .84-.345.895-.79l.002-.058-.002-.056a.871.871 0 0 0-.077-.36l2.402.635a2.3 2.3 0 0 0 3.623.005l2.404-.634a.88.88 0 0 0-.075.357l-.002.053.002.056a.902.902 0 0 0 .895.792H13.868a.903.903 0 0 0 .795-.895v-.001l.002-.053-.002-.056a.897.897 0 0 0-.298-.567l-.049-.043 1.669-.437a3.026 3.026 0 0 0 1.164-.679.167.167 0 0 0 .061-.13.168.168 0 0 0-.031-.098.24.24 0 0 0-.247-.079l-5.732.762a1.171 1.171 0 0 1-.208.534 7.641 7.641 0 0 0-.203-1.215 5.047 5.047 0 0 0-.482-1.189l-3.224.026a4.927 4.927 0 0 0-.477 1.175zm-2.986 2.464zm.458-.379a.406.406 0 0 1-.4.357h-.053a.406.406 0 0 1-.357-.4l-.001-.024.001-.025a.406.406 0 0 1 .4-.356h.075a.406.406 0 0 1 .357.4.393.393 0 0 1-.022.05zm9.376-.314a.394.394 0 0 1 .254-.133h.05a.406.406 0 0 1 .4.355l.001.026-.001.025a.405.405 0 0 1-.355.399h-.058a.405.405 0 0 1-.402-.355l-.001-.026.001-.025v-.015c0-.105.041-.201.107-.273zM8.88 11.733h.688a.421.421 0 0 1 0 .842H8.88zm-1.04 0h.693v.843H7.84a.421.421 0 0 1 0-.842z" />
  <path d="M6.4 14.016z" />
  <path d="M12.731 5.611H4.832v5.253h7.899zM6.304 8.24a1.34 1.34 0 0 1 2.525-.621 1.07 1.07 0 0 0-1.936.621 1.067 1.067 0 0 0 1.937.617 1.338 1.338 0 0 1-2.526-.617zm3.472.357l-.363-.064-.261.267-.053-.368-.331-.165.331-.165.053-.368.256.267.363-.064-.171.331z" />
  <path d="M9.851 3.147l-.949-1.099a.384.384 0 1 0-.581.502l.431.501H7.685a.384.384 0 0 0 0 .768h1.067l-.432.501a.382.382 0 0 0 0 .534h.565l.965-1.12a.472.472 0 0 0-.001-.587z" />
  <path d="M3.829 8.763l-1.413-.155a.454.454 0 0 0-.533.344l-.363 1.384a.38.38 0 0 0 .269.468l.099.001h.002a.383.383 0 0 0 .371-.285l.166-.643.635.896a.385.385 0 1 0 .633-.438l-.607-.879.645.075h.053a.378.378 0 0 0 .277-.128v-.534a.38.38 0 0 0-.233-.107z" />
  <path d="M15.808 9.925l-.651.117.533-.923a.385.385 0 0 0-.661-.396l-.534.924-.208-.629a.385.385 0 1 0-.73.243l.421 1.272a.535.535 0 0 0 .649.378l-.004.001 1.317-.245a.385.385 0 1 0-.135-.757z" />
</svg>
