<svg
  xmlns="http://www.w3.org/2000/svg"
  width="24"
  height="24"
  viewBox="0 0 24 24"
  fill="none"
  stroke="currentColor"
  stroke-width="2"
  stroke-linecap="round"
  stroke-linejoin="round"
>
  <path d="M6.7 6.95H1.25C.65 6.95.1 7.6.1 8.45v2.25c0 .1.1.25.2.25h7.4c.05 0 .1-.15.1-.25V8.45c-.05-.9-.5-1.5-1.1-1.5z" />
  <path d="M7.75 8.95c0-.1-.05-.2-.15-.2H.2c-.05 0-.15.1-.15.2v1.75c0 .1.05.2.15.2h7.4c.05 0 .15-.1.15-.2V8.95z" />
  <path d="M.1 11.3h7.7v.65H.1v-.65z" />
  <path d="M6.75 13.2h.5c.05 0 .1-.15.1-.35v-.55-.05H6.7V12.85c-.05.2 0 .35.05.35z" />
  <path d="M6.65 12.7c0 .05 0 .05 0 0l.7.05v-.5-.05H6.7v.5z" />
  <path d="M6.65 2.8H1c-.05 0-.15.05-.15.15V6.5H6.7V2.95c.05-.1 0-.15-.05-.15zM5.1 6.5H2.5c0-.6-.15-1.2-.15-1.2 0-.1.1-.2.2-.2 0 0 .65.15 1.25.15s1.2-.1 1.2-.1c.1 0 .2.1.2.2 0-.05-.1.55-.1 1.15z" />
  <path d="M.6 13.2h.5c.05 0 .1-.15.1-.35v-.55-.05H.55V12.85c0 .2 0 .35.05.35z" />
  <path d="M.55 12.7c0 .05 0 .05 0 0l.7.05v-.5-.05h-.7v.5z" />
  <path d="M14.85 6.95H9.4c-.6 0-1.15.65-1.15 1.5v2.25c0 .1.1.25.2.25h7.4c.05 0 .1-.15.1-.25V8.45c-.05-.9-.5-1.5-1.1-1.5z" />
  <path d="M15.9 8.95c0-.1-.05-.2-.15-.2h-7.4c-.05 0-.15.1-.15.2v1.75c0 .1.05.2.15.2h7.4c.05 0 .15-.1.15-.2V8.95z" />
  <path d="M8.25 11.3h7.7v.65h-7.7v-.65z" />
  <path d="M14.9 13.2h.5c.05 0 .1-.15.1-.35v-.55-.05h-.65V12.85c-.05.2 0 .35.05.35z" />
  <path d="M14.8 12.7c0 .05.05.05 0 0l.7.05v-.5-.05h-.65v.5z" />
  <path d="M14.8 2.8H9.2c-.05 0-.15.05-.15.15V6.5h5.85V2.95c0-.1-.05-.15-.1-.15zm-1.55 3.7h-2.6c0-.6-.15-1.2-.15-1.2 0-.1.1-.2.2-.2 0 0 .65.15 1.25.15s1.2-.1 1.2-.1c.1 0 .2.1.2.2.05-.05-.1.55-.1 1.15z" />
  <path d="M8.8 13.2h.5c.05 0 .1-.15.1-.35v-.55-.05h-.65V12.85c-.05.2 0 .35.05.35z" />
  <path d="M8.7 12.7c0 .05 0 .05 0 0l.7.05v-.5-.05h-.65v.5z" />
</svg>
