<svg
  xmlns="http://www.w3.org/2000/svg"
  width="24"
  height="24"
  viewBox="0 0 24 24"
  fill="none"
  stroke="currentColor"
  stroke-width="2"
  stroke-linecap="round"
  stroke-linejoin="round"
>
  <path d="M14.032 4.725h-1.68v.832h1.68c.628 0 1.138.508 1.141 1.136v3.798a1.141 1.141 0 0 1-1.141 1.136h-.565a.533.533 0 0 0-.533.533v.752l-1.024-1.115a.533.533 0 0 0-.396-.176H7.468a1.142 1.142 0 0 1-1.136-1.136v-.192h-.827v.192c0 1.086.877 1.967 1.962 1.973h3.905l1.445 1.6a.531.531 0 0 0 .395.176h.001a.534.534 0 0 0 .538-.535v-1.241h.277c1.088 0 1.97-.88 1.973-1.968V6.692a1.973 1.973 0 0 0-1.968-1.968z" />
  <path d="M10.891 9.221c.234-.154.417-.368.53-.62.037-.085.067-.174.087-.266.019-.092.028-.188.028-.285V3.2a1.43 1.43 0 0 0-1.429-1.429H1.43A1.43 1.43 0 0 0 .001 3.2V8.012c0 .098.01.193.028.285a1.437 1.437 0 0 0 .611.884c.212.141.463.227.733.238l.003 1.829a.214.214 0 0 0 .378.129l.864-1.12.635-.827h6.843a1.425 1.425 0 0 0 .801-.211zM2.747 6.4a.757.757 0 1 1 0-1.514.757.757 0 0 1 0 1.514zm3.045 0a.757.757 0 1 1 0-1.514.757.757 0 0 1 0 1.514zm3.045 0a.757.757 0 1 1 .762-.774v.017a.757.757 0 0 1-.757.757h-.006z" />
</svg>
