<svg
  xmlns="http://www.w3.org/2000/svg"
  width="24"
  height="24"
  viewBox="0 0 24 24"
  fill="none"
  stroke="currentColor"
  stroke-width="2"
  stroke-linecap="round"
  stroke-linejoin="round"
>
  <path d="M9.76 4.427a3.072 3.072 0 1 1-6.143.001 3.072 3.072 0 0 1 6.143-.001z" />
  <path d="M16.059 10.667v-.006a4.224 4.224 0 0 0-7.92-2.047c-.386-.024-.82-.049-1.26-.049l-.201.002a10.478 10.478 0 0 0-3.393.495c-.961.321-1.77 1.098-2.147 2.088-.414 1.281-.826 2.903-1.149 4.557l13.44.294c-.048-.235-.149-.736-.277-1.339a4.24 4.24 0 0 0 2.907-3.993zm-4.224 3.424a3.424 3.424 0 1 1 3.424-3.424 3.43 3.43 0 0 1-3.429 3.408z" />
  <path d="M13.253 12.528l-.261-1.515 1.099-1.072-1.52-.219-.677-1.381-.683 1.381-1.52.219 1.099 1.072-.256 1.515 1.36-.715 1.36.715z" />
</svg>
