<svg
  xmlns="http://www.w3.org/2000/svg"
  width="24"
  height="24"
  viewBox="0 0 24 24"
  fill="none"
  stroke="currentColor"
  stroke-width="2"
  stroke-linecap="round"
  stroke-linejoin="round"
>
  <path d="M16.827 2.448H4.742c-.472.005-.87.316-1.006.744L2.667 6.4S0 7.195 0 8.389v3.547h2.059v-.075a2.3 2.3 0 1 1 4.602 0v.075H11.2v-.075a2.3 2.3 0 1 1 4.602 0v.075h1.797V3.2a.768.768 0 0 0-.768-.752h-.006zM6.283 6.933c0 .15-.122.272-.272.272H4.145a.272.272 0 0 1-.272-.272v-.067c0-.19.031-.372.089-.542L4.849 3.6a.28.28 0 0 1 .261-.187h.901c.15 0 .272.122.272.272zm4.976 0a.277.277 0 0 1-.277.277H7.467a.277.277 0 0 1-.277-.277V3.69c0-.153.124-.277.277-.277h3.52c.153 0 .277.124.277.277zm5.274-2.208v2.208c0 .15-.122.272-.272.272H12.41a.272.272 0 0 1-.272-.272V3.685c0-.15.122-.272.272-.272h3.813a.32.32 0 0 1 .309.32z" />
  <path d="M4.352 10.133a1.696 1.696 0 1 0 0 3.391 1.696 1.696 0 0 0 0-3.391zm0 2.406a.71.71 0 0 1 .005-1.418.71.71 0 0 1 .709.709l-.001.028v-.001a.71.71 0 0 1-.709.709H4.35z" />
  <path d="M13.488 10.133a1.696 1.696 0 1 0 0 3.391 1.696 1.696 0 0 0 0-3.391zm0 2.406a.71.71 0 1 1 .709-.709l.001.027a.71.71 0 0 1-.709.709h-.001z" />
</svg>
