<svg
  xmlns="http://www.w3.org/2000/svg"
  width="24"
  height="24"
  viewBox="0 0 24 24"
  fill="none"
  stroke="currentColor"
  stroke-width="2"
  stroke-linecap="round"
  stroke-linejoin="round"
>
  <path d="M4.357 8.688a2.165 2.165 0 0 0 2.752-1.054c.742.665.806 2.686.806 3.187s.891.384.891 0C8.854 7.072 3.654 3.2 3.654 3.2c1.72.878 3.15 2.099 4.244 3.583C9.057 6.314 9.1 5.13 8.625 4.25 7.196 1.53 2.134 1.066.796 1.381a.197.197 0 0 0-.112.32c1.114 1.53 1.312 6.202 3.674 6.986z" />
  <path d="M10.24 8.192a8.373 8.373 0 0 1 2.945-2.501c-.992.737-1.874 1.633-2.595 2.652s.76 1.636 2.147 1.177c1.648-.533 1.792-3.808 2.565-4.875a.14.14 0 0 0-.074-.224c-.929-.214-4.47.106-5.484 1.984a1.21 1.21 0 0 0 .489 1.783z" />
  <path d="M17.429 10.133c0-.747-.864-1.557-1.819-1.952l-.059.107c.576.32 1.264.837 1.264 1.477 0 1.36-3.2 2.821-8 2.821s-8-1.456-8-2.821c0-.64.688-1.157 1.264-1.477l-.059-.107C1.028 8.592.169 9.408.169 10.133c0 1.253 1.6 2.48 4.08 3.2l.117.533c.036.162.15.291.301.346.478.177 1.699.497 4.195.497s3.733-.325 4.192-.496a.475.475 0 0 0 .277-.344l.123-.536c2.416-.741 3.973-1.947 3.973-3.2z" />
</svg>
