<svg
  xmlns="http://www.w3.org/2000/svg"
  width="24"
  height="24"
  viewBox="0 0 24 24"
  fill="none"
  stroke="currentColor"
  stroke-width="2"
  stroke-linecap="round"
  stroke-linejoin="round"
>
  <path d="M15.189 2.635H.789a.81.81 0 0 0-.789.81v9.109a.81.81 0 0 0 .811.811h14.4a.81.81 0 0 0 .789-.81V3.446a.81.81 0 0 0-.811-.811zM2.496 12.123a.256.256 0 0 1-.256.256H1.216a.256.256 0 0 1-.256-.256v-1.024c0-.141.115-.256.256-.256H2.24c.141 0 .256.115.256.256zm0-2.411a.256.256 0 0 1-.256.256H1.216a.256.256 0 0 1-.256-.256V8.693c0-.141.115-.256.256-.256H2.24c.141 0 .256.115.256.256zm0-2.411a.256.256 0 0 1-.256.256H1.216a.256.256 0 0 1-.256-.256V6.282c0-.141.115-.256.256-.256H2.24c.141 0 .256.115.256.256zm0-2.41a.256.256 0 0 1-.256.256H1.216a.256.256 0 0 1-.256-.256V3.878c0-.141.115-.256.256-.256H2.24c.141 0 .256.115.256.256zm10.048 7.04a.449.449 0 0 1-.448.448H3.904a.449.449 0 0 1-.448-.448V4.07c0-.247.201-.448.448-.448h8.192c.247 0 .448.201.448.448zm2.496.197a.256.256 0 0 1-.256.256H13.76a.256.256 0 0 1-.256-.256v-1.029c0-.141.115-.256.256-.256h1.024c.141 0 .256.115.256.256zm0-2.411a.256.256 0 0 1-.256.256H13.76a.256.256 0 0 1-.256-.256V8.693c0-.141.115-.256.256-.256h1.024c.141 0 .256.115.256.256zm0-2.41a.256.256 0 0 1-.256.256H13.76a.256.256 0 0 1-.256-.256V6.283c0-.141.115-.256.256-.256h1.024c.141 0 .256.115.256.256zm0-2.411a.256.256 0 0 1-.256.256H13.76a.256.256 0 0 1-.256-.256V3.877c0-.141.115-.256.256-.256h1.024c.141 0 .256.115.256.256z" />
  <path d="M8 5.179a2.821 2.821 0 1 0 0 5.642 2.821 2.821 0 0 0 0-5.642zm-.587 3.925V6.933L9.285 8z" />
</svg>
