<svg
  xmlns="http://www.w3.org/2000/svg"
  width="24"
  height="24"
  viewBox="0 0 24 24"
  fill="none"
  stroke="currentColor"
  stroke-width="2"
  stroke-linecap="round"
  stroke-linejoin="round"
>
  <path d="M14.8 11.563a7.578 7.578 0 0 0 .882-3.571 7.66 7.66 0 0 0-2.705-5.849 8.715 8.715 0 0 0-2.606 1.993c2.572 1.545 4.304 4.271 4.429 7.41z" />
  <path d="M12.011 1.435a7.515 7.515 0 0 0-2.49-.984l-.049.034C5.003 2.133 4.555 6.602 4.528 8.037a6.677 6.677 0 0 0 3.127-.485l-.044-.026c.091-.661.645-3.893 4.4-6.091z" />
  <path d="M9.755 10.896a7.997 7.997 0 0 0-1.703-2.36 7.777 7.777 0 0 1-2.972.6A8.812 8.812 0 0 1 .299 7.639c.032.132.032.239.032.351v.005c0 .827.131 1.623.373 2.37 1.291 1.012 4.859 3.247 9.051.532z" />
  <path d="M9.717 4.981a6.2 6.2 0 0 0-1.025 2.633c1.81 1.728 2.941 4.133 2.941 6.804 0 .121-.002.242-.007.362a8.2 8.2 0 0 0 2.012-1.58c.079-.41.121-.876.121-1.351 0-2.938-1.613-5.5-4.002-6.847z" />
  <path d="M10.133 11.899a8.27 8.27 0 0 1-4.442 1.349 8.757 8.757 0 0 1-4.225-1.143c1.422 2.167 3.796 3.568 6.498 3.568.917 0 1.797-.162 2.612-.458-.038-.18-.029-.409-.029-.64 0-.956-.151-1.877-.431-2.739z" />
  <path d="M3.472 7.872c.069-1.552.597-5.403 3.941-7.547A7.696 7.696 0 0 0 .489 6.392 7.324 7.324 0 0 0 3.416 7.86z" />
</svg>
