<svg
  xmlns="http://www.w3.org/2000/svg"
  width="24"
  height="24"
  viewBox="0 0 24 24"
  fill="none"
  stroke="currentColor"
  stroke-width="2"
  stroke-linecap="round"
  stroke-linejoin="round"
>
  <path d="M5.8 2.65c.25.45.9.65 1.35.35.45-.25.65-.9.35-1.35-.25-.45-.9-.65-1.35-.35-.45.25-.6.85-.35 1.35z" />
  <path d="M5.75 10.75S6 9 6.1 8.6c.05-.3-.15-.45-.45-.55C5.35 8 4.8 8 4.35 8c-.5 0-1.45-.45-1.3-1.5 0 0 .15-2.45 1.8-3.1.4-.15 1.05-.15 1.4.35s.5 1.85.5 1.85 1.45 0 1.8.1c.7.1.75.55 0 .6-1.3.15-2.1.2-2.3 0-.25-.25-.5-.85-.5-.85l-.6 1.25c.55.05 1.05.1 1.2.1.4.05 1.35.25 1.15 1.5-.2 1.15-.45 2.45-.45 2.45z" />
  <path d="M1.35 10.55l10.4 1.35s1.25.1 1.55-.95" />
  <path d="M4.4 15.8c1-.1 1.9-.4 2.7-.9l.5-.3c1.25-.8 2.7-1.25 4.25-1.25 1.5 0 2.9.4 4.1 1.2V13.4c-1.25-.8-2.65-1.2-4.1-1.2-1.35 0-2.65.35-3.75.95l-1.05.5c-.9.45-1.75.85-2.8.95-1.55.15-3.05-.05-4.4-.75V15c1.55.7 3 .95 4.55.8z" />
  <path d="M8.5 5.95h7.35" />
</svg>
