<svg
  xmlns="http://www.w3.org/2000/svg"
  width="24"
  height="24"
  viewBox="0 0 24 24"
  fill="none"
  stroke="currentColor"
  stroke-width="2"
  stroke-linecap="round"
  stroke-linejoin="round"
>
  <path d="M2.392 4.688a1.04 1.04 0 1 1-.084 2.08 1.04 1.04 0 0 1 .084-2.08z" />
  <path d="M4.123 13.253h.107c.387.017.752.075 1.102.168.123.033.32.071.521.096l.264.002h.001c.189 0 .373-.021.549-.062.171-.036.337-.105.486-.198.223-.158.42-.344.586-.556l.106-.123a8.79 8.79 0 0 1 .213-.224c-.352-.981-1.131-2.837-2.043-2.997a1.408 1.408 0 0 0-1.384.598L3.732 7.93l2.736-1.787a18.636 18.636 0 0 0 2.706 5.609.244.244 0 0 1 .143-.127h.027l.107-.032c.234-.057.502-.09.778-.091.4.007.783.068 1.145.178l.093.024h.053c1.259-2.069 2.224-5.616 2.107-5.808S6.171-.451 6.112-.003c-.12.679-.188 1.46-.188 2.258 0 .999.107 1.972.311 2.91-.715.331-3.483 1.995-3.814 2.161-.533.261-.699.581-.277 1.925s1.125 2.693 1.989 2.549 1.115-.965 1.632-.96c.389 0 .768 1.189.933 1.781-2.133-.469-4.768-1.013-5.333-1.013-.651 0 .485.971 1.877 1.712a4.082 4.082 0 0 1 .885-.069z" />
  <path d="M15.269 11.653V10.01c-1.184.112-.971 1.712-2.133 2.203-.067.029-.154.06-.243.086l-.098.005-.171.037h-.677l-.16-.027h-.091l-.203-.048h-.075l-.219-.069a3.543 3.543 0 0 0-.967-.149c-.236 0-.462.027-.679.079l-.092.028a2.37 2.37 0 0 0-1.191.8c-.239.306-.51.565-.813.781-.205.129-.43.222-.67.272a3.122 3.122 0 0 1-.457.066l-.191.001a2.322 2.322 0 0 1-.306 0h.007c-.43-.101-.974-.195-1.528-.26l-.072-.007h-.443a3.879 3.879 0 0 0-.462.068l.024-.004a3.458 3.458 0 0 0-2.621 2.11l1.629.023c.423-.311.927-.54 1.474-.652l.025-.004c.141-.032.312-.058.486-.074l.149-.001h.4c.135.012.256.029.374.052l.063-.004.293.064.315.075h.08c.092.021.208.039.327.052l.015.001a2.399 2.399 0 0 0 .36 0h.098c.163-.012.313-.035.458-.068 1.392-.3 1.339-1.559 2.774-1.884.086-.02.195-.039.306-.052l.11-.001h.571l.203.032h.043l.235.053h.085l.16.043.181.048h.091l.16.037h.064l.224.037h.645l.155-.037h.075l.245-.085c.981-.368 1.013-1.525 1.659-1.984z" />
  <path d="M14.491 15.024c-1.403.581-1.984-.443-3.547-.091a2.682 2.682 0 0 0-1.504 1.058l5.829.009v-1.664a1.69 1.69 0 0 1-.768.684z" />
</svg>
