<svg
  xmlns="http://www.w3.org/2000/svg"
  width="24"
  height="24"
  viewBox="0 0 24 24"
  fill="none"
  stroke="currentColor"
  stroke-width="2"
  stroke-linecap="round"
  stroke-linejoin="round"
>
  <path d="M8 .08a7.92 7.92 0 1 0 0 15.84A7.92 7.92 0 0 0 8 .08zm0 14.773A6.853 6.853 0 1 1 8 1.147a6.853 6.853 0 0 1 0 13.706z" />
  <path d="M10.56 5.44a.797.797 0 0 0-1.13 0L8.001 6.869 6.572 5.44a.8.8 0 0 0-1.13 1.131L6.871 8 5.442 9.429a.8.8 0 1 0 1.13 1.131l1.43-1.43 1.429 1.429a.8.8 0 0 0 1.13-1.131L9.132 7.999l1.429-1.429a.797.797 0 0 0 0-1.13z" />
</svg>
