<svg
  xmlns="http://www.w3.org/2000/svg"
  width="24"
  height="24"
  viewBox="0 0 24 24"
  fill="none"
  stroke="currentColor"
  stroke-width="2"
  stroke-linecap="round"
  stroke-linejoin="round"
>
  <path d="M23.712 2.891a.911.911 0 0 0-1.267-.264l-1.01.654v-.155c0-.589-.478-1.067-1.067-1.067h-4.523c-.589 0-1.067.478-1.067 1.067v4.539c0 .589.478 1.067 1.067 1.067h4.539c.589 0 1.067-.478 1.067-1.067V5.457l2.016-1.301a.912.912 0 0 0 .244-1.267zm-3.077.906l-1.819 1.179-1.003-1.067a.913.913 0 1 0-1.322 1.264l1.525 1.6a.91.91 0 0 0 1.187.158l1.453-.942V7.68a.251.251 0 0 1-.251.251h-4.56a.251.251 0 0 1-.251-.251V3.125c0-.138.112-.251.251-.251h4.539c.138 0 .251.112.251.251z" />
  <path d="M.139 13.925h14.443a6.225 6.225 0 0 0 3.565-1.328l-16.931.01z" />
  <path d="M1.733 11.968h17.2a14.718 14.718 0 0 0 2.175-2.33L3.679 9.6z" />
  <path d="M5.168 8.112l-.635.827h8.533l-1.269-.976-1.749.469h-2.08V7.333c1.989 0 2.555-.352 2.555-.352l-.475-.363-3.2.235-.779-.757H4.901l.533.912c-.475.053-.891.101-1.035.123-.336.064-.757.96.768.981z" />
</svg>
