<svg
  xmlns="http://www.w3.org/2000/svg"
  width="24"
  height="24"
  viewBox="0 0 24 24"
  fill="none"
  stroke="currentColor"
  stroke-width="2"
  stroke-linecap="round"
  stroke-linejoin="round"
>
  <path d="M.171 11.915h14.437a6.233 6.233 0 0 0 3.539-1.333l-16.904.01z" />
  <path d="M3.733 7.563L1.76 9.958h17.205a14.75 14.75 0 0 0 2.175-2.355z" />
  <path d="M5.195 6.101l-.635.832h8.533l-1.269-.976-1.755.443H8V5.333c1.989 0 2.555-.352 2.555-.352l-.475-.363-3.2.235-.789-.768H4.928l.533.912c-.475.053-.891.101-1.035.123-.331.064-.752.96.768.981z" />
</svg>
