<svg
  xmlns="http://www.w3.org/2000/svg"
  width="24"
  height="24"
  viewBox="0 0 24 24"
  fill="none"
  stroke="currentColor"
  stroke-width="2"
  stroke-linecap="round"
  stroke-linejoin="round"
>
  <path d="M6.5 10.05h5.55c.2 0 .3-.15.3-.3V6.7h3.2c.1 0 .2-.05.25-.1s.1-.15.1-.25c-.1-.95-1.25-1.8-1.4-1.85-.05-.05-.1-.05-.2-.05H12c-.2 0-.3.15-.3.3V7.2H8.8c.2-.9.15-1.8-.45-2-.05 0-.15-.05-.2-.05-.65 0-1.25.9-1.55 1.8-.05.1-.05.15-.1.25H3.85L5.9 5.35c.15-.1.15-.3 0-.45-.1-.15-.3-.15-.45 0L3 7.15l-.1.1H.4c-.15 0-.3.15-.3.3 0 .05-.05.5.45 1.05.6.65 2.15 1.45 5.95 1.45zm7.7-5c.25.2.7.55.9.95h-2.75v-.95zm-6.05.75c.1.05.25.5.05 1.3h-1c.35-.85.8-1.3.95-1.3z" />
  <path d="M7.3 5.7h1.4v1.75H7.3V5.7z" />
  <path d="M7.6 7.1c0 .304-.134.55-.3.55S7 7.404 7 7.1c0-.304.134-.55.3-.55s.3.246.3.55z" />
  <path d="M12.15 4.9h2.65v1.3h-2.65V4.9z" />
  <path d="M14.65 5.4h.65v.85h-.65V5.4z" />
</svg>
