<svg xmlns="http://www.w3.org/2000/svg" width="24" height="24" viewBox="0 0 24 24" fill="none" stroke="currentColor" stroke-width="2" stroke-linecap="round" stroke-linejoin="round" class="feather feather-accommodation-2"><path d="M9.333 7.925H1.6V4.224a.805.805 0 1 0-1.599.003v8.354h1.371l1.6-1.669h12.709l1.6 1.669h1.387V7.925z"></path><path d="M18.629 6.763a.764.764 0 0 0-.454-.697l-.005-.685c0-.589-.478-1.067-1.067-1.067H9.38c-.589 0-1.067.478-1.067 1.067V6H2.014v1.525h15.851a.763.763 0 0 0 .763-.763zM8.917 5.381c0-.256.208-.464.464-.464h7.685c.256 0 .464.208.464.464v.309H8.917z"></path><path d="M4.395 3.813H2.016v1.781h4.16c0-.984-.798-1.781-1.781-1.781z"></path></svg>