<svg xmlns="http://www.w3.org/2000/svg" width="24" height="24" viewBox="0 0 24 24" fill="none" stroke="currentColor" stroke-width="2" stroke-linecap="round" stroke-linejoin="round" class="feather feather-ask"><path d="M9.323 14.683a1.233 1.233 0 1 1-2.465-.001 1.233 1.233 0 0 1 2.465.001z"></path><path d="M8 .085a5.088 5.088 0 0 0-5.083 5.082 1.067 1.067 0 0 0 2.134 0 2.95 2.95 0 0 1 5.864-.438L7.344 8.223c-.198.194-.32.463-.32.762v2.214a1.067 1.067 0 0 0 2.134 0V9.444l3.605-3.509c.198-.194.32-.463.32-.762v-.001A5.088 5.088 0 0 0 8.001.084z"></path></svg>