<svg xmlns="http://www.w3.org/2000/svg" width="24" height="24" viewBox="0 0 24 24" fill="none" stroke="currentColor" stroke-width="2" stroke-linecap="round" stroke-linejoin="round" class="feather feather-atv"><path d="M15.765 6.731l.016.001c.11 0 .202-.077.224-.18l.096-.492a.229.229 0 0 0-.148-.261l-4.802-1.67a.23.23 0 0 0-.266.089c-.31.481-1.27 1.958-1.382 2.134s-.373.485-1.189.197c-.709-.24-4.581-1.467-5.461-1.749a.223.223 0 0 0-.271.122l-.811 2.012s4.347-.624 5.307 2.853a.23.23 0 0 0 .218.176h3.012a.224.224 0 0 0 .214-.158c.192-.7 1.211-3.351 5.243-3.074z"></path><path d="M11.157 3.456a.3.3 0 0 0 .195.207l.994.315-.517-1.845a.3.3 0 0 0-.288-.219H7.61v.533l3.349.309z"></path><path d="M14.107 4.293v-.56h.293V2.384h-.283v-.491a1.2 1.2 0 1 0 0 2.4z"></path><path d="M5.957 9.808l.229-.133-.427-.741-.24.139a2.986 2.986 0 0 0-.479-.481l.133-.245-.741-.427-.133.229a2.842 2.842 0 0 0-.659-.148l-.013-.273h-.853V8a2.932 2.932 0 0 0-.687.178l-.113-.236-.741.427.139.24a2.986 2.986 0 0 0-.481.479l-.245-.133-.432.72.229.133a2.82 2.82 0 0 0-.169.651L0 10.474v.853h.272c.036.251.097.478.183.692l-.236.113.427.741.24-.139c.144.182.304.341.479.481l-.133.245.741.405.133-.229c.193.077.418.136.651.169l.015.274h.853v-.272c.249-.034.474-.094.687-.178l.113.236.741-.427-.139-.24c.182-.144.341-.304.481-.479l.245.133.427-.741-.229-.133a2.82 2.82 0 0 0 .169-.651l.279-.015v-.853h-.272a2.947 2.947 0 0 0-.178-.671zM3.2 12.149a1.243 1.243 0 1 1 0-2.486 1.243 1.243 0 0 1 0 2.486z"></path><path d="M17.6 11.333v-.853h-.272a2.932 2.932 0 0 0-.178-.687l.236-.113-.427-.741-.24.139a2.986 2.986 0 0 0-.479-.481l.133-.245-.741-.427-.133.229a2.828 2.828 0 0 0-.659-.153l-.013-.273h-.853V8a2.932 2.932 0 0 0-.687.178l-.113-.236-.741.427.139.24a2.986 2.986 0 0 0-.481.479l-.245-.133-.427.741.229.133a2.82 2.82 0 0 0-.169.651l-.279.015v.853h.272c.034.249.094.474.178.687l-.236.113.427.741.24-.139c.144.182.304.341.479.481l-.133.245.741.427.133-.229c.193.077.418.136.651.169l.015.274h.859v-.272c.249-.034.474-.094.687-.178l.113.236.741-.427-.139-.24c.182-.144.341-.304.481-.479l.245.133.427-.741-.229-.133a2.82 2.82 0 0 0 .169-.651zm-3.2.816a1.243 1.243 0 1 1 0-2.486 1.243 1.243 0 0 1 0 2.486z"></path><path d="M4.267 4.907l2.971.928a.449.449 0 0 0 .27-.853L4.54 4.053a.449.449 0 0 0-.275.853z"></path></svg>