<svg xmlns="http://www.w3.org/2000/svg" width="24" height="24" viewBox="0 0 24 24" fill="none" stroke="currentColor" stroke-width="2" stroke-linecap="round" stroke-linejoin="round" class="feather feather-audio"><path d="M4.576 8v2.085l4.725 2.213V3.701L4.576 5.914v2.085z"></path><path d="M.267 6.624v2.747c0 .389.315.704.704.704h2.667V5.926H.971a.704.704 0 0 0-.704.698z"></path><path d="M10.949 6.544a.421.421 0 0 0-.037.593c.2.229.322.53.322.861s-.122.632-.324.863a.421.421 0 1 0 .629.534 2.129 2.129 0 0 0-.001-2.836.42.42 0 0 0-.59-.014z"></path><path d="M14.293 4.171a.422.422 0 1 0-.635.532c.764.871 1.23 2.019 1.23 3.275s-.466 2.405-1.234 3.28a.421.421 0 1 0 .633.53c.894-1.019 1.438-2.36 1.438-3.829s-.545-2.81-1.443-3.833z"></path><path d="M12.917 5.376a.422.422 0 1 0-.635.532c.484.55.779 1.276.779 2.07s-.295 1.52-.781 2.073a.421.421 0 1 0 .631.532c.612-.699.985-1.618.985-2.623s-.373-1.925-.988-2.626z"></path></svg>