<svg xmlns="http://www.w3.org/2000/svg" width="24" height="24" viewBox="0 0 24 24" fill="none" stroke="currentColor" stroke-width="2" stroke-linecap="round" stroke-linejoin="round" class="feather feather-bbq"><path d="M14.107 4.011h-.002a.944.944 0 0 0-.925.757l-.87.006v.144a3.344 3.344 0 0 0-.323-1.156.287.287 0 0 0-.252-.156h-.758a.298.298 0 0 0-.271.424c.105.212.19.46.241.72l-.456.019v-.501a.405.405 0 0 0-.405-.405h-.533a.405.405 0 0 0-.405.405v.533h-.347a3.618 3.618 0 0 0-.314-1.014.288.288 0 0 0-.257-.149h-.763a.298.298 0 0 0-.271.424c.111.202.204.438.267.687l-.454.021v-.501a.405.405 0 0 0-.405-.405h-.533a.405.405 0 0 0-.405.405v.533h-.331a3.67 3.67 0 0 0-.33-1.046.288.288 0 0 0-.257-.149h-.752a.299.299 0 0 0-.261.423c.105.212.19.46.241.72l-.466.019v-.501a.405.405 0 0 0-.405-.405h-.533a.405.405 0 0 0-.4.405v.533H.951v.363h1.227v.533c0 .224.181.405.405.405h.533a.405.405 0 0 0 .405-.405v-.533h.459a3.03 3.03 0 0 1-.253.722.3.3 0 0 0 .28.404h.747a.293.293 0 0 0 .266-.169c.142-.286.251-.615.312-.961l.35-.022v.533c0 .224.181.405.405.405h.533a.405.405 0 0 0 .405-.405v-.533h.443c-.058.276-.144.52-.259.748a.3.3 0 0 0 .28.404h.753a.293.293 0 0 0 .266-.169c.139-.289.245-.623.302-.973l.349-.021v.533c0 .224.181.405.405.405h.533a.405.405 0 0 0 .405-.405v-.533h.459c-.059.28-.147.528-.264.759a.3.3 0 0 0 .28.404h.763a.293.293 0 0 0 .266-.169c.164-.333.275-.718.314-1.124l.001.13h.875a.944.944 0 1 0 .928-1.125zM4.704 5.936h-.608c.14-.286.232-.62.256-.973a2.633 2.633 0 0 0-.263-1.005l.615.016c.137.286.23.619.261.971-.03.373-.123.706-.268 1.01zm3.488 0h-.603c.14-.286.232-.62.256-.973a2.633 2.633 0 0 0-.263-1.005l.61.016c.138.286.231.62.261.971-.03.372-.123.706-.268 1.009zm3.488 0h-.603c.14-.286.232-.62.256-.973a2.633 2.633 0 0 0-.263-1.005l.61.016c.138.286.231.62.261.971a2.823 2.823 0 0 1-.263 1.009zm2.427-.405a.58.58 0 1 1 0-1.162.58.58 0 0 1 0 1.162z"></path><path d="M3.243 2.667a.929.929 0 0 0 .403-1.4 1.287 1.287 0 0 1-.273-1.275 1.011 1.011 0 0 0-.436.826c0 .239.085.459.227.63a1.124 1.124 0 0 1 .076 1.225z"></path><path d="M5.952 2.667a.929.929 0 0 0 .403-1.4 1.287 1.287 0 0 1-.273-1.275c-.268.189-.44.489-.44.829 0 .238.085.457.225.627a1.123 1.123 0 0 1 .081 1.225z"></path><path d="M8.661 2.667a.93.93 0 0 0 .404-1.379 1.286 1.286 0 0 1-.272-1.296 1.011 1.011 0 0 0-.436.826c0 .239.085.459.227.63a1.124 1.124 0 0 1 .076 1.225z"></path><path d="M11.371 2.667a.929.929 0 0 0 .403-1.4 1.285 1.285 0 0 1-.267-1.276 1.011 1.011 0 0 0-.436.826c0 .239.085.459.227.63a1.123 1.123 0 0 1 .071 1.225z"></path><path d="M2.048 6.933H1.6v.357h.448a5.39 5.39 0 0 0 1.724 3.618l-.951 4.302a.651.651 0 0 0 1.274.26l.38-1.658h5.973l.379 1.653a.652.652 0 1 0 1.274-.276l-.975-4.289a5.38 5.38 0 0 0 1.727-3.605l.449-.016v-.347H2.049zm.885.358h.901a4.908 4.908 0 0 0 2.681 3.977 5.061 5.061 0 0 1-3.578-3.94zm1.659 6.005l.357-1.563c.729.392 1.595.622 2.515.622s1.786-.23 2.544-.636l.328 1.577z"></path></svg>