<svg xmlns="http://www.w3.org/2000/svg" width="24" height="24" viewBox="0 0 24 24" fill="none" stroke="currentColor" stroke-width="2" stroke-linecap="round" stroke-linejoin="round" class="feather feather-billiards"><path d="M7.851 7.467a4.269 4.269 0 0 1 3.272-1.744 3.617 3.617 0 0 0 .494-1.841 3.733 3.733 0 1 0-6.971 1.859 4.188 4.188 0 0 1 3.198 1.714zm.026-5.499A1.877 1.877 0 1 1 6 3.845a1.877 1.877 0 0 1 1.877-1.856z"></path><path d="M7.627 3.984c-.379.24-.571.48-.571.699v.002a.224.224 0 0 0 .252.222h1.14c.139 0 .224-.053.224-.192l.001-.018a.176.176 0 0 0-.176-.176l-.029.002h-.911c.037-.117.251-.24.592-.437s.533-.341.533-.747a.705.705 0 0 0-.782-.597.742.742 0 0 0-.807.652c0 .158.096.206.224.206s.16-.059.192-.171a.368.368 0 0 1 .396-.32l.015-.001c.168 0 .304.136.304.304v.006c-.027.245-.176.314-.597.565z"></path><path d="M4.4 13.781h.013a3.732 3.732 0 0 0 3.12-1.682 4.4 4.4 0 0 1-.521-2.073c0-.756.196-1.465.541-2.08a3.807 3.807 0 0 0-3.111-1.632 3.733 3.733 0 0 0-.043 7.466zm0-5.632a1.877 1.877 0 1 1-1.877 1.877v-.005c0-1.037.841-1.877 1.877-1.877z"></path><path d="M4.304 10.331l.033.001a.64.64 0 0 0 .463-.198v.053c0 .277-.117.587-.432.587s-.256-.261-.459-.261a.192.192 0 0 0-.192.192v.006c0 .186.245.394.608.394.565 0 .917-.32.917-1.221 0-.48-.192-.981-.837-.981a.72.72 0 0 0-.79.717l.001.043v.02c0 .359.291.651.651.651l.04-.001zm.091-1.067h.018a.34.34 0 0 1 .341.341l-.002.039.001.025a.347.347 0 0 1-.347.347h-.012l-.024.001a.33.33 0 0 1-.328-.376.335.335 0 0 1 .353-.393z"></path><path d="M7.547 10.027a3.733 3.733 0 1 0 7.465 0 3.733 3.733 0 0 0-7.465 0zm5.632 0a1.877 1.877 0 1 1-3.754 0 1.877 1.877 0 0 1 3.754 0z"></path><path d="M10.635 9.136l-.112.651a.972.972 0 0 0 0 .164l-.001.008c0 .106.086.192.192.192l.017-.001c.154 0 .223-.149.463-.149a.363.363 0 0 1 .411.36v.015a.39.39 0 0 1-.389.389c-.325 0-.325-.293-.533-.293h-.011a.208.208 0 0 0-.208.208c0 .16.197.432.72.432a.747.747 0 0 0 .843-.741v-.018l.001-.028a.672.672 0 0 0-.723-.67h-.015a.65.65 0 0 0-.405.14l.001-.001.08-.459h.768l.022.001a.176.176 0 0 0 .176-.176l-.001-.018.001-.017a.176.176 0 0 0-.176-.176l-.029.002h-.9c-.1.01-.18.087-.192.186z"></path><path d="M.192 15.893l14.427-.123v-1.12L.192 14.527v1.365z"></path><path d="M15.253 14.661h-.251v1.109h.251a.555.555 0 0 0 0-1.11z"></path></svg>