<svg xmlns="http://www.w3.org/2000/svg" width="24" height="24" viewBox="0 0 24 24" fill="none" stroke="currentColor" stroke-width="2" stroke-linecap="round" stroke-linejoin="round" class="feather feather-blue-cruise"><path d="M14.565 12.939L9.653.672 8.634 12.016c2.565-1.173 5.931.923 5.931.923z"></path><path d="M7.611 11.733L8.891.682.704 11.098c4.299-1.28 6.907.635 6.907.635z"></path><path d="M9.029 15.045c.72 0 1.365-.597 2.315-.597s1.344.571 2.293.571h.039c.192 0 .377-.031.549-.089l.34-1.367C9.267 13.297 4.3 12.644-.531 11.624s.877 1.619 3.731 3.72h.997c.869 0 1.173-.891 2.485-.891 1.2-.005 1.632.592 2.347.592z"></path><path d="M15.808 15.109c-.997 0-1.189.571-2.085.571s-1.344-.571-2.293-.571-1.6.597-2.315.597-1.147-.597-2.347-.597c-1.307 0-1.611.891-2.501.891h13.227a2.436 2.436 0 0 0-1.676-.89z"></path></svg>