<svg xmlns="http://www.w3.org/2000/svg" width="24" height="24" viewBox="0 0 24 24" fill="none" stroke="currentColor" stroke-width="2" stroke-linecap="round" stroke-linejoin="round" class="feather feather-booking-manager-2"><path d="M16.08 1.536H4.453a.987.987 0 0 0-.987.987v1.925H1.535A1.542 1.542 0 0 0-.001 5.984v6.934a1.542 1.542 0 0 0 1.536 1.536h11.627a1.542 1.542 0 0 0 1.536-1.536v-2.464h1.381a.987.987 0 0 0 .987-.987V2.523a.987.987 0 0 0-.987-.987zm-2.917 11.829H1.536a.437.437 0 0 1-.437-.437v-1.067H13.6v1.067a.437.437 0 0 1-.437.437zM1.099 9.755V5.984c0-.242.196-.437.437-.437h11.627c.242 0 .437.196.437.437v3.765z"></path></svg>