<svg xmlns="http://www.w3.org/2000/svg" width="24" height="24" viewBox="0 0 24 24" fill="none" stroke="currentColor" stroke-width="2" stroke-linecap="round" stroke-linejoin="round" class="feather feather-breakfast"><path d="M15.189 7.915H5.864a.235.235 0 0 0-.211.338 1.6 1.6 0 0 0 1.492 1.065h6.763a1.602 1.602 0 0 0 1.49-1.056.273.273 0 0 0 .027-.112.235.235 0 0 0-.235-.235h-.002z"></path><path d="M16.272 1.739a2.325 2.325 0 0 0-1.497-.672h-.007a.32.32 0 0 0-.314-.32h-7.84a.32.32 0 0 0-.32.32c.075 3.803 1.099 5.691 1.424 6.192a.31.31 0 0 0 .261.144h5.099a.31.31 0 0 0 .261-.143c.234-.376.443-.807.605-1.261.927-.047 2.607-.581 2.815-2.383a2.258 2.258 0 0 0-.489-1.881zm-.427 1.76a1.73 1.73 0 0 1-1.595 1.482c.229-.88.395-1.909.457-2.965.338-.019.637.123.861.341a1.39 1.39 0 0 1 .276 1.15z"></path><path d="M12.085 11.28a3.156 3.156 0 0 0-1.446-.346c-.311 0-.612.044-.896.127a2.255 2.255 0 0 0-1.738-.795c-.526 0-1.011.172-1.403.463a2.28 2.28 0 0 0-1.391-.463 2.35 2.35 0 0 0-1.758.787 3.237 3.237 0 0 0-2.34.235 1.92 1.92 0 0 0-.814 1.414 1.672 1.672 0 0 0 .39 1.395c.937 1.065 3.31 1.177 4.868 1.177h1.445c1.44 0 4.443.053 5.525-1.173a1.65 1.65 0 0 0 .388-1.397 1.899 1.899 0 0 0-.824-1.42zm-5.6-.149l.064.048c-.176.533-.677 1.925-1.168 1.824-.592-.123.123-1.707.384-2.245.275.087.514.213.726.372zm2.496-.192c.217.135.403.294.563.477l.061.072c-.176.363-.533 1.067-.827.997-.389-.144.016-1.136.203-1.552zm-6.346 1.776c-.347-.128 0-.971.171-1.36.243.023.464.065.678.124z"></path></svg>