<svg xmlns="http://www.w3.org/2000/svg" width="24" height="24" viewBox="0 0 24 24" fill="none" stroke="currentColor" stroke-width="2" stroke-linecap="round" stroke-linejoin="round" class="feather feather-camel"><path d="M17.541 6.229c-.4-1.712-2.075-2.357-2.213-2.72s.027-2.245-1.755-2.245c-2.32 0-1.259 2.693-2.448 2.773s-.459-2.688-2.864-2.528c-2.843.192-.832 4.117-2.443 4.117-1.216 0-.779-1.451-1.552-2.357s-.795-.603-.795-.603a.78.78 0 0 0-.949-.462c-.72.159-.298.319-.394.532s-.928-.181-1.6.203-.528.736-.48.997 0 .4.581.224 1.227.581 1.227 1.248-.843 3.056 1.536 4.565 3.467.357 3.467.357c.187.565.295 1.216.295 1.892 0 .366-.032.724-.092 1.073-.021.208.309.496.144.496a.621.621 0 0 0-.444.123c-.158.122-.846.644-.846.746a7.463 7.463 0 0 0 2.045-.005c.142-.075.185-.417.185-.758.04-.714.148-1.383.32-2.027.166-.597-.016-1.605.416-1.605s2.368.832 5.333-1.333c.224-.192.224.395.224.656.225.686.472 1.266.762 1.82s-.373 2.233-.565 2.356-.304-.101-.421.08a4.296 4.296 0 0 0-.453.701c-.054.184 1.759.211 1.759-.072s.501-2.443.885-2.805.059-.784 0-1.024-.261-1.669-.261-1.669 1.803-1.035 1.397-2.747z"></path></svg>