<svg xmlns="http://www.w3.org/2000/svg" width="24" height="24" viewBox="0 0 24 24" fill="none" stroke="currentColor" stroke-width="2" stroke-linecap="round" stroke-linejoin="round" class="feather feather-canoe"><path d="M12.25 7.9c0 4.05-1.85 7.35-2.75 7.35s-2.75-3.3-2.75-7.35S8.6.55 9.5.55c.9.05 2.75 3.3 2.75 7.35z"></path><path d="M9.5 7c-1.1 0-1.85 3.45-1.2 4.25.15.2.45.35.7.35h.95c.25 0 .55-.1.7-.35.7-.8-.05-4.25-1.15-4.25z"></path><path d="M4.85 4.25l.65-.5V1.7c-.55-.4-1.4-.4-1.9 0v2.05l.65.5v7.3l-.65.5v2.05c.55.4 1.4.4 1.9 0v-2.05l-.65-.5v-7.3z"></path><path d="M3.6 1.7v2.05l.65.5v7.3l-.65.5v2.05c.25.2.6.3.95.3V1.35c-.35.05-.7.15-.95.35z"></path></svg>