<svg xmlns="http://www.w3.org/2000/svg" width="24" height="24" viewBox="0 0 24 24" fill="none" stroke="currentColor" stroke-width="2" stroke-linecap="round" stroke-linejoin="round" class="feather feather-child"><path d="M6.949 3.291a1.856 1.856 0 1 1-3.712 0 1.856 1.856 0 0 1 3.712 0z"></path><path d="M15.621 3.291a1.856 1.856 0 1 1-3.712 0 1.856 1.856 0 0 1 3.712 0z"></path><path d="M18.4 4.667a.816.816 0 1 0-1.099-1.209l-2.218 2.01a2.602 2.602 0 0 1-1.479.613 2.612 2.612 0 0 1-1.501-.616l-2.21-2.002a.793.793 0 0 0-.456-.192h-.205a.796.796 0 0 0-.46.193l-2.218 2.01a2.602 2.602 0 0 1-1.479.613 2.618 2.618 0 0 1-1.501-.616l-2.21-2.008a.814.814 0 0 0-1.387.583c0 .249.112.472.287.622l2.241 2.033c.363.367.588.872.588 1.43l-.001.078v5.538a.816.816 0 1 0 1.632 0V10.67h.699v3.077a.816.816 0 1 0 1.632 0V8.19l-.001-.07c0-.547.216-1.043.567-1.408l1.711-1.551 2.32 2.133v.053l-1.141 4.656h1.141v1.771a.816.816 0 1 0 1.632 0v-1.797h.699v1.771a.816.816 0 1 0 1.632 0v-1.771h1.141l-1.141-4.656v-.123z"></path></svg>