<svg xmlns="http://www.w3.org/2000/svg" width="24" height="24" viewBox="0 0 24 24" fill="none" stroke="currentColor" stroke-width="2" stroke-linecap="round" stroke-linejoin="round" class="feather feather-contact"><path d="M14.304 2.453H1.696a1.6 1.6 0 0 0-1.6 1.6v7.893a1.6 1.6 0 0 0 1.6 1.6h12.608a1.6 1.6 0 0 0 1.6-1.6V4.053a1.6 1.6 0 0 0-1.6-1.6zM1.696 3.52h12.608c.295 0 .533.239.533.533v.923L8 9.067 1.163 4.976v-.923c0-.295.239-.533.533-.533zm12.608 8.96H1.696a.533.533 0 0 1-.533-.533V6.219L8 10.294l6.837-4.075v5.728a.533.533 0 0 1-.533.533z"></path></svg>