<svg xmlns="http://www.w3.org/2000/svg" width="24" height="24" viewBox="0 0 24 24" fill="none" stroke="currentColor" stroke-width="2" stroke-linecap="round" stroke-linejoin="round" class="feather feather-contact-2"><path d="M8 .16a7.84 7.84 0 1 0 0 15.68A7.84 7.84 0 0 0 8 .16zm0 14.635a6.795 6.795 0 1 1-.003-13.59 6.795 6.795 0 0 1 .004 13.59z"></path><path d="M11.611 11.835l-1.349-2.133a.349.349 0 0 0-.487-.112l-.708.575c-.336.16-.645-.171-1.2-.88L6.736 7.466c-.229-.469-.416-.944-.091-1.184l.789-.416a.349.349 0 0 0 .112-.487l.001.001-1.349-2.133a.346.346 0 0 0-.481-.111l-.703.533c-.416.363-1.429 2.043.784 5.643 2.299 3.733 4.379 3.653 4.901 3.392l.811-.384a.352.352 0 0 0 .106-.487z"></path></svg>