<svg xmlns="http://www.w3.org/2000/svg" width="24" height="24" viewBox="0 0 24 24" fill="none" stroke="currentColor" stroke-width="2" stroke-linecap="round" stroke-linejoin="round" class="feather feather-copyright-2"><path d="M10.992 12.325l-.011-.005-.069.043-.539.384v2.331H1.136V3.014h2.005V.923h7.232v3.776l.8-1.456V.123H2.768L.336 2.576v13.301h10.837v-3.696l-.16.112-.021.032z"></path><path d="M2.603 4.496h6.309v.8H2.603v-.8z"></path><path d="M2.603 6.587v.8h6.288l.021-.032v-.768H2.603z"></path><path d="M2.603 9.472h5.141l.437-.8H2.602v.8z"></path><path d="M2.603 11.563h4.645l.037-.8H2.602v.8z"></path><path d="M8.16 13.648l.752-.523.219-.16 1.472-1.035-2.763-1.525-.011.176-.011.181-.037.8-.032.64-.091 1.803.501-.357z"></path><path d="M2.603 13.648h4.539l.037-.8H2.603v.8z"></path><path d="M12.8 1.36l-.373.683.288.16.469.256L15.2 3.568l.149-.272.224-.411a.605.605 0 0 0-.237-.825l-1.688-.94a.574.574 0 0 0-.206-.053h-.05a.56.56 0 0 0-.212.001l.004-.001a.601.601 0 0 0-.167.087l-.041.031a.625.625 0 0 0-.137.162z"></path><path d="M14.955 4.037l-2.011-1.115-3.36 6.096-.299-.16 1.088-1.979.8-1.451L12.565 2.9l.08-.139-.459-.251-4.091 7.424 2.768 1.525 2.699-4.907 1.317-2.379.075-.139z"></path></svg>