<svg xmlns="http://www.w3.org/2000/svg" width="24" height="24" viewBox="0 0 24 24" fill="none" stroke="currentColor" stroke-width="2" stroke-linecap="round" stroke-linejoin="round" class="feather feather-dart"><path d="M14.693 3.787l-.533.597a1.006 1.006 0 0 1-.478.302c.567.96.906 2.117.906 3.352a6.603 6.603 0 1 1-13.206 0 6.603 6.603 0 0 1 9.363-6 .725.725 0 0 1 .2-.514l.532-.607a7.829 7.829 0 0 0-3.51-.818 7.936 7.936 0 1 0 6.691 3.667z"></path><path d="M10.491 3.387a5.264 5.264 0 1 0 1.839 1.651l-.916 1.052a3.925 3.925 0 1 1-1.82-1.665z"></path><path d="M7.269 6.992l1.333-1.493a2.502 2.502 0 0 0-.601-.08 2.587 2.587 0 1 0 2.586 2.587V8a2.53 2.53 0 0 0-.15-.839L9.013 8.779a1.285 1.285 0 0 1-.23.2 1.242 1.242 0 0 1-.783.28h-.01a1.248 1.248 0 0 1-.725-2.264z"></path><path d="M11.509 3.365v.006c0 .055-.02.105-.054.143L7.754 7.658a.444.444 0 0 0 .179.714l.056.001a.333.333 0 0 0 .226 0l.056.001a.449.449 0 0 0 .149-.106l3.696-4.16a.208.208 0 0 1 .063-.047l.081-.001.912-.112h.251a.22.22 0 0 0 .144-.074l1.696-1.899a.21.21 0 0 0 .053-.116l.001-.022-.001-.022a.223.223 0 0 0 0-.08.217.217 0 0 0-.032-.036.203.203 0 0 0-.048-.053h-.048c-.012-.003-.026-.004-.04-.004s-.028.001-.041.004l-1.161.064h-.144l-.032-.043c-.003-.013-.004-.028-.004-.043s.002-.03.004-.044l-.144-1.3a.211.211 0 0 0-.043-.113v.001a.227.227 0 0 0-.084-.063l-.001-.001a.236.236 0 0 0-.097.001h-.068a.21.21 0 0 0-.101.059l-1.685 1.883a.217.217 0 0 0-.053.143v.006z"></path></svg>