<svg xmlns="http://www.w3.org/2000/svg" width="24" height="24" viewBox="0 0 24 24" fill="none" stroke="currentColor" stroke-width="2" stroke-linecap="round" stroke-linejoin="round" class="feather feather-deck-shower"><path d="M12.05 1.05h-3.2c-1.1-.5-2.3-.45-3.3.05l5.4 3.1c-.05-.75-.3-1.5-.75-2.1h1.85c.75 0 1.35.6 1.35 1.35V15.8c0-.3.2-.15.5-.15s.55.45.55-.55V2.75c-.05-.65-1.1-1.7-2.4-1.7z"></path><path d="M4.514 2.576l.675-1.169 5.889 3.401-.675 1.169-5.889-3.401z"></path><path d="M4.303 3.025l.15-.26 5.889 3.401-.15.26-5.889-3.401z"></path><path d="M4.4 3.9c-.05.1-.05.2.05.25s.2 0 .25-.05c0-.1.05-.45.05-.45s-.35.2-.35.25z"></path><path d="M5.3 4.8c.05-.1.1-.4.1-.4s-.35.15-.4.25c-.05.1 0 .2.05.25.1 0 .2 0 .25-.1z"></path><path d="M6.6 6.25c-.05.1 0 .2.05.25.1.05.2 0 .25-.05.05-.1.1-.4.1-.4s-.35.15-.4.2z"></path><path d="M6 5c-.05.1 0 .2.05.25.1.05.2 0 .25-.05.05-.1.1-.4.1-.4s-.35.15-.4.2z"></path><path d="M8.15 6.1c.05-.1.1-.4.1-.4s-.35.15-.4.25c-.05.1 0 .2.05.25.1 0 .2-.05.25-.1z"></path><path d="M8 7.15c-.05.1 0 .2.05.25.1.05.2 0 .25-.05.05-.1.1-.4.1-.4s-.35.15-.4.2z"></path><path d="M8.7 6.4c-.05.1 0 .2.05.25.1.05.2 0 .25-.05.05-.1.1-.4.1-.4s-.35.1-.4.2z"></path><path d="M9 7.15c-.05.1 0 .2.05.25.1.05.2 0 .25-.05s.1-.4.1-.4-.35.1-.4.2z"></path><path d="M6.75 5.25c-.05.1 0 .2.05.25.1.05.2 0 .25-.05.05-.1.1-.4.1-.4s-.35.15-.4.2z"></path><path d="M5.2 5.8c-.05.1 0 .2.05.25.1.05.2 0 .25-.05s.1-.4.1-.4-.35.1-.4.2z"></path><path d="M4.2 15.15h10.25v.95H4.2v-.95z"></path></svg>