<svg xmlns="http://www.w3.org/2000/svg" width="24" height="24" viewBox="0 0 24 24" fill="none" stroke="currentColor" stroke-width="2" stroke-linecap="round" stroke-linejoin="round" class="feather feather-destination-package-tour"><path d="M5.792 5.486H5.55v-.32h-.261v-.27h-.187V2.235h.187v-.251h.261v-.338L2.917.457.288 1.646v.338H.59v.251h.187v2.661H.59v.251H.288v.338H.046v.32h5.746zm-3.232-.59V2.235h.183v-.251h.384v.251h.187v2.661h-.183v.251h-.389v-.251zm2.011-2.661v2.661h-.169v.251h-.384v-.251h-.187V2.235h.187v-.251h.384v.251zM1.289 4.896V2.235h.187v-.251h.384v.251h.187v2.661H1.86v.251h-.384v-.251z"></path><path d="M8.123 9.833V9.12h-.261v.713H7.86c-.733 0-1.332.576-1.37 1.3l2.971.003a1.373 1.373 0 0 0-1.338-1.303z"></path><path d="M4.16 13.019a.197.197 0 0 1 .388-.001v.422h.521v-.421a.197.197 0 0 1 .388-.001v.422h.521v-.421a.197.197 0 0 1 .388-.001v.422h.521v-.421a.197.197 0 0 1 .388-.001v.422h.521v-.421a.197.197 0 0 1 .388-.001v.422h.521v-.421a.197.197 0 0 1 .388-.001v.422h.503v-.421a.197.197 0 0 1 .388-.001v.422h.526v-.421a.197.197 0 0 1 .388-.001v.422h.526v-.421a.197.197 0 0 1 .388-.001v.422h.457v-.914H3.702v.914h.457z"></path><path d="M4.622 12.306h.357a.76.76 0 0 1 .802-.709l.041-.001c.402 0 .731.312.757.707l.617.002a.76.76 0 0 1 .802-.709l.041-.001c.402 0 .731.312.757.707l.617.002a.806.806 0 0 1 1.6-.004l.357.004v-.878H4.623z"></path><path d="M2.583 9.838l-.462 1.499h.923l-.462-1.499z"></path><path d="M2.121 11.429h.923v.224h-.923v-.224z"></path><path d="M2.304 11.808h.562v.567h-.562v-.567z"></path><path d="M3.141 12.526H2.026v.229l.21.197h.69l.215-.197v-.229z"></path><path d="M2.025 14.176l.21.197h.69l.215-.197v-.224H2.025v.224z"></path><path d="M2.304 13.102h.562v.695h-.562v-.695z"></path><path d="M12.846 11.337h.923l-.462-1.499-.462 1.499z"></path><path d="M12.846 11.429h.923v.224h-.923v-.224z"></path><path d="M13.029 11.808h.562v.567h-.562v-.567z"></path><path d="M13.861 12.526H12.75v.229l.21.197h.69l.21-.197v-.229z"></path><path d="M13.307 14.373h.343l.21-.197v-.224h-1.111v.224l.21.197h.347z"></path><path d="M13.586 14.528h-.558v.517h-.325v-.599a.841.841 0 0 0-.841-.814h-.027a.885.885 0 0 0-.6.234.914.914 0 0 0-1.212 0 .877.877 0 0 0-.598-.234h-.027a.841.841 0 0 0-.841.813v.6H7.314v-.599a.841.841 0 0 0-.841-.814h-.027a.885.885 0 0 0-.6.234.914.914 0 0 0-1.212 0 .877.877 0 0 0-.598-.234h-.004a.841.841 0 0 0-.832.812v.6h-.338v-.517h-.576v.517h-.402v.498H13.98v-.498h-.389zm-1.751-.407h.009c.182 0 .331.144.338.324v.6h-.69v-.599a.339.339 0 0 1 .338-.325h.005zm-1.211 0h.009c.182 0 .331.144.338.324v.6h-.69v-.599a.339.339 0 0 1 .338-.325h.01zm-1.554.325a.348.348 0 0 1 .69-.002v.601h-.69zm-2.601-.325h.009c.182 0 .331.144.338.324v.6h-.69v-.599a.339.339 0 0 1 .338-.325h.01zm-1.212 0h.009c.182 0 .331.144.338.324v.6h-.69v-.599a.339.339 0 0 1 .338-.325h.01zm-1.554.325a.348.348 0 0 1 .69-.002v.601h-.686z"></path><path d="M13.029 13.102h.562v.695h-.562v-.695z"></path><path d="M10.766 5.481h1.943v.151h-1.943v-.151z"></path><path d="M10.679 5.714h2.117v.151h-2.117v-.151z"></path><path d="M13.906 5.481h1.943v.151h-1.943v-.151z"></path><path d="M13.819 5.714h2.117v.151h-2.117v-.151z"></path><path d="M10.711 1.289h5.216v.325h-5.216v-.325z"></path><path d="M13.312.704h2.482l.16-.183h-5.285l.155.183h2.487z"></path><path d="M14.039 3.246v2.149h1.678V1.738H10.94v3.657h1.678V3.246a.71.71 0 1 1 1.422 0zm.32-.681h1.047v.59h-1.047zm-2.094.589h-1.047v-.59h1.047z"></path><path d="M10.894.8v.393h4.891V.8zm.347.306h-.178V.877h.178zm.338 0h-.178V.877h.178zm.339 0h-.178V.877h.178zm.338 0h-.178V.877h.178zm.338 0h-.178V.877h.178zm.339 0h-.178V.877h.178zm.338 0h-.178V.877h.165zm.338 0h-.178V.877h.178zm.338 0h-.187V.877h.178zm.339 0h-.178V.877h.178zm.338 0h-.178V.877h.183zm.338 0h-.178V.877h.178zm.339 0h-.215V.877h.178zm.338 0h-.178V.877h.178z"></path><path d="M9.001 3.003l-.818-.946a.329.329 0 1 0-.498.43l.37.429h-.914a.329.329 0 1 0 0 .658h.914l-.37.43a.329.329 0 1 0 .497.43l.819-.947A.41.41 0 0 0 9 3.002z"></path><path d="M4.352 7.269l-1.184-.133a.42.42 0 0 0-.456.308l-.001.003-.302 1.147a.328.328 0 0 0 .231.401l.085.001h.001a.329.329 0 0 0 .318-.245l.129-.523.521.759a.33.33 0 1 0 .543-.376l-.52-.749.562.064h.055a.33.33 0 0 0 .02-.659z"></path><path d="M13.349 8.265l-.549.101.457-.791a.33.33 0 0 0-.566-.34l-.458.792-.178-.539a.33.33 0 1 0-.626.208l.388 1.163a.402.402 0 0 0 .459.26h-.003l1.179-.21a.33.33 0 1 0-.117-.65z"></path></svg>