<svg xmlns="http://www.w3.org/2000/svg" width="24" height="24" viewBox="0 0 24 24" fill="none" stroke="currentColor" stroke-width="2" stroke-linecap="round" stroke-linejoin="round" class="feather feather-destination-2"><path d="M15.019 9.605V6.976H13.84v1.323l-1.392-1.536-3.536 3.909h7.077l-.971-1.067z"></path><path d="M5.995 8.261h1.45a.24.24 0 0 0 .192-.385L5.435 4.741h1.541a.24.24 0 0 0 .192-.385L4.379.389a.24.24 0 0 0-.394 0l-2.79 3.969a.24.24 0 0 0 .192.384h1.542L.721 7.878a.24.24 0 0 0 .192.384h1.451L.055 11.633a.24.24 0 0 0 .196.379h2.871v3.989h1.952v-3.989H8.11a.24.24 0 0 0 .195-.379z"></path><path d="M9.6 16h1.461v-2.059l-.001-.027a.58.58 0 0 1 .581-.581h.273a.58.58 0 0 1 .581.581v2.085h2.891v-5.067H9.599zm4.16-2.667a.85.85 0 0 1-.709-.699l.709-.005zm.267 0v-.731h.709a.85.85 0 0 1-.694.73zm.709-.97h-.699v-.736a.85.85 0 0 1 .703.705zm-.965-.736v.709h-.709a.85.85 0 0 1 .705-.709z"></path><path d="M11.621 14.869c0 .08-.064.144-.144.144s-.144-.064-.144-.144c0-.08.064-.144.144-.144s.144.064.144.144z"></path></svg>