<svg xmlns="http://www.w3.org/2000/svg" width="24" height="24" viewBox="0 0 24 24" fill="none" stroke="currentColor" stroke-width="2" stroke-linecap="round" stroke-linejoin="round" class="feather feather-dinner"><path d="M15.157 14.544a3.05 3.05 0 0 1-1.84-.344l.016.008-1.248-3.984a.974.974 0 0 0 .181-.626 2.07 2.07 0 0 0 1.025-1.215c.649-2.148-1.927-5.391-2.039-5.529l-.107-.128-1.547.475-1.6.496-1.6-.496-1.552-.485-.107.128c-.112.139-2.667 3.392-2.043 5.515a2.08 2.08 0 0 0 1.023 1.237c.011.008.011.012.011.015 0 .241.087.461.231.632l-1.249 3.972h-.048a3.027 3.027 0 0 1-1.861.334c-.357-.036-.464.14.016.306s1.776.533 1.776.533 1.301.427 1.776.533.485-.075.16-.261a3.086 3.086 0 0 1-1.325-1.27l-.008-.016 1.227-4a.99.99 0 0 0 .531-.396c.088-.004.173-.004.258-.004h.028c.477 0 .916-.165 1.262-.441 1.116-.882 1.404-2.914 1.468-4.301.059 1.381.347 3.419 1.472 4.304.342.273.781.438 1.258.438h.284a.99.99 0 0 0 .526.398l1.287 3.986a3.099 3.099 0 0 1-1.311 1.32c-.342.189-.332.397.143.269s1.776-.533 1.776-.533 1.312-.389 1.776-.533.347-.368-.027-.336zM3.168 8.219C2.667 6.56 4.56 3.904 5.029 3.286l2.485.779a14.018 14.018 0 0 1-.153 2.648L4.214 5.644s-1.243 2.667.245 3.733a1.784 1.784 0 0 1-1.287-1.145zm5.333-4.155l2.485-.779c.464.619 2.363 3.275 1.856 4.933a1.785 1.785 0 0 1-1.279 1.15c1.476-1.064.233-3.731.233-3.731l-3.157.987a13.441 13.441 0 0 1-.154-2.583z"></path><path d="M7.979 1.979h.277L8.475 0h-.992l.219 1.979h.277z"></path><path d="M9.376 2.432l1.451-1.36-.379-.325-.379-.32-1.115 1.648.208.176.213.181z"></path><path d="M6.789 2.251l.213-.176L5.887.427l-.379.32-.379.325 1.451 1.36.208-.181z"></path></svg>