<svg xmlns="http://www.w3.org/2000/svg" width="24" height="24" viewBox="0 0 24 24" fill="none" stroke="currentColor" stroke-width="2" stroke-linecap="round" stroke-linejoin="round" class="feather feather-diving-2"><path d="M13.536 11.237s.213-1.771.213-2.037.213-.875-.213-1.157S11.2 6.662 10.704 6.24s-1.109-.341-1.691.133-1.429 1.243-1.429 1.243H5.733c-.07.524-.173.989-.31 1.44l2.475.07 1.931-.949 2.272 1.637-.107 1.771s.635 1.109 1.003 1.904.848.475 1.067.368.24-.475.133-.768-.661-1.851-.661-1.851z"></path><path d="M6.261 6.821a.97.97 0 0 0 1.074.291l1.263-1.145-1.403-.203-1.621-1.499c-.16.341-.949.768-.949.768S5.734 6.292 6.262 6.82z"></path><path d="M5.083 3.984a.41.41 0 0 0-.047-.533c-.112-.107-.229-.171-.635.048C2.769 4.619.31 4.8.31 4.8a1.926 1.926 0 0 0 1.79.815c1.245-.069 2.983-1.631 2.983-1.631z"></path><path d="M4.8 7.349c-.155 0-.283 0-.491.405-.661 1.845-2.565 3.445-2.565 3.445a1.92 1.92 0 0 0 1.928-.365c.985-.787 1.491-3.065 1.491-3.065v-.013a.412.412 0 0 0-.361-.408z"></path><path d="M16.96 5.317a.571.571 0 1 1-1.143 0 .571.571 0 0 1 1.143 0z"></path><path d="M15.893 3.579a.459.459 0 1 1-.918 0 .459.459 0 0 1 .918 0z"></path><path d="M17.077 2.315a.32.32 0 1 1-.64 0 .32.32 0 0 1 .64 0z"></path><path d="M17.237 10.272l-.277-.176v-.123a1.43 1.43 0 1 0-1.429 1.429c.257-.007.495-.081.7-.206s-.006.004-.006.036l.277.176a.113.113 0 0 0 .16-.037l.592-.945a.111.111 0 0 0-.016-.154z"></path><path d="M9.755 5.099c.229.123 3.899 2.459 4.267 2.667a1.118 1.118 0 0 0 1.384-.38 1.191 1.191 0 0 0-.246-1.564c-.498-.343-3.879-2.428-4.167-2.615s-.533-.144-.64 0c-.276.369-.552.791-.804 1.228a.52.52 0 0 0-.072.247c0 .187.114.348.276.417z"></path></svg>