<svg xmlns="http://www.w3.org/2000/svg" width="24" height="24" viewBox="0 0 24 24" fill="none" stroke="currentColor" stroke-width="2" stroke-linecap="round" stroke-linejoin="round" class="feather feather-diving-equipment"><path d="M10 11.95c-.6 0-1.1.45-1.25 1.05H6.8c-4.6 0-5.5-1.75-5.75-3.25C.75 8.15 1 6.9 1.7 6.1c.95-1.15 2.55-1.2 2.8-1.2 0 .15.1.25.25.25h.15v.55h-.5c-.45 0-.85.35-.85.85v5.6c.15.05.3.1.5.15V6.55c0-.2.15-.35.35-.35h2.2c.2 0 .35.15.35.35v6.05h.5V6.55c0-.45-.35-.85-.85-.85h-.5v-.55h.15c.15 0 .25-.1.25-.25v-.6c0-.15-.1-.25-.25-.25h-1.5c-.1.05-.25.15-.25.25v.1c-.35 0-2.1.05-3.2 1.3C.5 6.65.2 8 .55 9.75 1 12.25 3 13.4 6.8 13.4h1.95c.1.55.6 1 1.25 1 .7 0 1.25-.55 1.25-1.25 0-.65-.6-1.2-1.25-1.2zM5.6 5.7h-.2v-.55h.2v.55zm4.4 8.25c-.45 0-.75-.35-.75-.75 0-.45.35-.75.75-.75.45 0 .75.35.75.75s-.35.75-.75.75z"></path><path d="M6.95 14.4c0 .2-.15.35-.35.35H4.4c-.2 0-.35-.15-.35-.35v-.85c-.15-.05-.35-.1-.5-.1v1c0 .45.35.85.85.85h2.2c.45 0 .85-.35.85-.85v-.6h-.5v.55z"></path><path d="M6.95 3.3v.2c0 1.2.95 2.15 2.15 2.15h.4c.25 0 .55-.15.65-.35l.75-1.1c.25-.4.7-.4.95 0l.75 1.1c.15.2.45.35.65.35h.45c1.2 0 2.15-.95 2.15-2.15v-.2C15.85 2 14.8.95 13.5.95H9.25C8 .95 6.95 2 6.95 3.3zm6.6-1.9c1.05 0 1.9.85 1.9 1.9v.2c0 .95-.75 1.7-1.7 1.7h-.45c-.1 0-.25-.1-.3-.15l-.75-1.1c-.45-.65-1.25-.65-1.65 0l-.75 1.1c-.05.1-.25.15-.3.15H9.1c-.95 0-1.7-.75-1.7-1.7v-.2c0-1.05.85-1.9 1.9-1.9h4.25zm0 .4c.8 0 1.5.65 1.5 1.5v.2c0 .7-.55 1.25-1.3 1.25h-.45.05l-.75-1.1c-.6-.85-1.75-.85-2.35 0L9.5 4.8c0-.05 0 0 0 0h-.45c-.7 0-1.25-.55-1.25-1.25V3.3c0-.8.65-1.5 1.5-1.5h4.25z"></path><path d="M3.75 6.1H7.2v8.85H3.75V6.1z"></path><path d="M3.55 12.15H5v1.95H3.55v-1.95z"></path><path d="M5.8 11.95h1.6v2.4H5.8v-2.4z"></path><path d="M10 12.3c-.5 0-.9.4-.9.9s.4.9.9.9.9-.4.9-.9c-.05-.5-.45-.9-.9-.9zm0 1.35c-.25 0-.45-.2-.45-.45s.2-.45.45-.45.45.2.45.45c-.05.25-.25.45-.45.45z"></path><path d="M13.65 6.2v4.15c0 .65-.55 1.2-1.2 1.2-.7 0-1.2-.55-1.2-1.2h.5V9.6H10v.75h.5c0 1.1.9 1.95 1.95 1.95 1.1 0 1.95-.9 1.95-1.95V6.2h-.75zm.55 1.4h-.35V6.35h.35V7.6z"></path></svg>