<svg xmlns="http://www.w3.org/2000/svg" width="24" height="24" viewBox="0 0 24 24" fill="none" stroke="currentColor" stroke-width="2" stroke-linecap="round" stroke-linejoin="round" class="feather feather-exclamation-2"><path d="M8 .08a7.92 7.92 0 1 0 0 15.84A7.92 7.92 0 0 0 8 .08zm0 14.773A6.853 6.853 0 1 1 8 1.147a6.853 6.853 0 0 1 0 13.706z"></path><path d="M8.763 12.123a.763.763 0 1 1-1.526 0 .763.763 0 0 1 1.526 0z"></path><path d="M8 3.115a1.109 1.109 0 0 0-1.167 1.264c-.001.693.373 5.109.447 5.509a.72.72 0 1 0 1.44 0c.075-.4.432-4.8.448-5.515a1.109 1.109 0 0 0-1.099-1.26l-.072.002z"></path></svg>