<svg xmlns="http://www.w3.org/2000/svg" width="24" height="24" viewBox="0 0 24 24" fill="none" stroke="currentColor" stroke-width="2" stroke-linecap="round" stroke-linejoin="round" class="feather feather-fax"><path d="M14.603 6.443V2.432l-.203-.229L12.512.208l-.245-.256H4.395V6.4H3.168c.383.356.623.862.624 1.424v6.8a1.942 1.942 0 0 1-.623 1.423l10.996.001c.984 0 1.781-.798 1.781-1.781V8.166c0-.827-.566-1.523-1.332-1.72zM5.195.752h6.736v1.989h1.872V6.4H5.195zm1.376 13.739a.73.73 0 1 1 0-1.461.73.73 0 0 1 0 1.461zm0-2.502a.73.73 0 1 1 0-1.461.73.73 0 0 1 0 1.461zm3.2 2.502a.73.73 0 1 1 .731-.731.73.73 0 0 1-.731.731H9.76zm0-2.502a.73.73 0 1 1 .731-.731.73.73 0 0 1-.731.731H9.76zm3.2 2.502a.73.73 0 1 1 .731-.731.73.73 0 0 1-.731.731h-.022zm0-2.502a.73.73 0 1 1 .731-.731.73.73 0 0 1-.731.731h-.022zm.778-2.784h-8V7.893h8z"></path><path d="M3.147 15.179c.068-.157.109-.34.112-.532V7.809a1.424 1.424 0 0 0-1.424-1.408h-.357a1.413 1.413 0 0 0-.799.248 1.446 1.446 0 0 0-.509.612 1.42 1.42 0 0 0-.065.197l-.002.01a1.363 1.363 0 0 0-.053.356v6.801c.003.128.022.251.056.367l-.002-.01c.145.616.69 1.067 1.341 1.067h.393c.586 0 1.09-.354 1.308-.86z"></path></svg>