<svg xmlns="http://www.w3.org/2000/svg" width="24" height="24" viewBox="0 0 24 24" fill="none" stroke="currentColor" stroke-width="2" stroke-linecap="round" stroke-linejoin="round" class="feather feather-fitness"><path d="M9.243 1.483a1.483 1.483 0 1 1-2.966 0 1.483 1.483 0 0 1 2.966 0z"></path><path d="M6.299 11.733c-.256.032-.485.075-.704.117l-.864-3.227a.88.88 0 0 0 .298-.093l1.408.504-.763.811.416 1.6s1.6-1.835 1.92-2.208.469-.853-.245-1.216c-.48-.245-1.301-.571-1.845-.779l1.013-1.755.661.848a.633.633 0 0 0 .268.191l.052.001a.632.632 0 0 0 .158.032l.045.001.045-.001h2.286a.71.71 0 0 0 0-1.418H8.533L7.376 3.68a.892.892 0 0 0-.284-.27l-.895-.536a.894.894 0 0 0-1.224.321L2.917 6.778a.878.878 0 0 0-.117.442.88.88 0 0 0 .066.337l1.305 4.794a2.22 2.22 0 0 0-1.061 1.053l-.006 2.595h10.133v-1.915s-3.387-2.779-6.939-2.352z"></path><path d="M10.763 12.053l1.067.469-.72-4.597a6.8 6.8 0 0 0 1.9-1.308.467.467 0 0 0 0-.707c-.225-.192-.385-.171-.833.224a4.909 4.909 0 0 1-2.201 1.161z"></path></svg>