<svg xmlns="http://www.w3.org/2000/svg" width="24" height="24" viewBox="0 0 24 24" fill="none" stroke="currentColor" stroke-width="2" stroke-linecap="round" stroke-linejoin="round" class="feather feather-free-wifi"><path d="M12.464 4.507a6.571 6.571 0 0 0-4.458-1.84 6.582 6.582 0 0 0-4.472 1.847l.957.926a5.314 5.314 0 0 1 3.501-1.456 5.32 5.32 0 0 1 3.52 1.453z"></path><path d="M8 1.525a7.673 7.673 0 0 1 5.276 2.209l.954-.929A9.032 9.032 0 0 0 8.008.192a9.04 9.04 0 0 0-6.243 2.604l.961.938a7.665 7.665 0 0 1 5.268-2.208z"></path><path d="M10.699 6.224a4.15 4.15 0 0 0-2.692-1.109 4.168 4.168 0 0 0-2.708 1.112l.957.926a2.921 2.921 0 0 1 1.736-.704c.677.04 1.28.3 1.75.707z"></path><path d="M9.051 8.576a1.05 1.05 0 1 1-2.102 0 1.05 1.05 0 0 1 2.102 0z"></path><path d="M2.587 11.659a1.103 1.103 0 0 0-.491.278c-.12.127-.208.286-.249.462a3.882 3.882 0 0 0-.076.915v1.46h.677v-1.312h1.925v-.533H2.448a.79.79 0 0 1 .218-.613.919.919 0 0 1 .644-.186h1.063v-.533H3.344a2.758 2.758 0 0 0-.776.068z"></path><path d="M7.584 13.136c.104-.157.166-.349.166-.556l-.001-.049a.906.906 0 0 0-.282-.728 1.274 1.274 0 0 0-.854-.235H4.975v3.2h.672v-1.253h.795l.704 1.259h.757l-.8-1.339a.765.765 0 0 0 .479-.297zm-.651-.277a.85.85 0 0 1-.467.091h-.818v-.811h.827a.868.868 0 0 1 .474.093.448.448 0 0 1-.005.622z"></path><path d="M8.635 11.973a1.809 1.809 0 0 0-.367 1.26l-.001.043c0 .252.045.494.128.717a1.193 1.193 0 0 0 .76.735c.165.044.346.067.531.067l.072-.001h1.133v-.533H9.792a.778.778 0 0 1-.587-.182.854.854 0 0 1-.174-.605l1.866.003v-.533H9.036a.81.81 0 0 1 .209-.534.753.753 0 0 1 .534-.181h1.102v-.533h-1.12a1.472 1.472 0 0 0-1.129.279z"></path><path d="M11.803 11.973a1.809 1.809 0 0 0-.367 1.26l-.001.041c0 .253.045.495.128.719a1.193 1.193 0 0 0 .76.735c.165.044.346.067.531.067l.072-.001h1.133v-.533H12.96a.778.778 0 0 1-.587-.182.854.854 0 0 1-.174-.605l1.866.003v-.533h-1.861a.812.812 0 0 1 .203-.534.756.756 0 0 1 .534-.181h1.102v-.533h-1.12a1.462 1.462 0 0 0-1.124.28z"></path><path d="M14.581 10.507H1.418c-.589 0-1.067.478-1.067 1.067v3.2c0 .589.478 1.067 1.067 1.067h13.163c.589 0 1.067-.478 1.067-1.067v-3.2c0-.589-.478-1.067-1.067-1.067zm.534 4.266a.533.533 0 0 1-.533.533H1.419a.533.533 0 0 1-.533-.533v-3.2c0-.295.239-.533.533-.533h13.163c.295 0 .533.239.533.533z"></path></svg>