<svg xmlns="http://www.w3.org/2000/svg" width="24" height="24" viewBox="0 0 24 24" fill="none" stroke="currentColor" stroke-width="2" stroke-linecap="round" stroke-linejoin="round" class="feather feather-front-desk"><path d="M6.267 6.747a1.963 1.963 0 1 1-3.926 0 1.963 1.963 0 0 1 3.926 0z"></path><path d="M7.851 11.024a2.272 2.272 0 0 0-1.408-1.345 6.604 6.604 0 0 0-2.015-.31l-.142.001-.128-.001c-.714 0-1.401.112-2.046.318a2.257 2.257 0 0 0-1.371 1.321c-.26.828-.515 1.875-.713 2.942l8.58.183a29.164 29.164 0 0 0-.813-3.32z"></path><path d="M9.6 8.923v-.885a3.59 3.59 0 0 1-1.915-3.171 3.584 3.584 0 1 1 7.117.606l.814-.021a4.368 4.368 0 1 0-6.044 3.462z"></path><path d="M0 14.933h16V16H0v-1.067z"></path><path d="M12.853 10.432v-.736h-1.419c.129-.284.309-.524.531-.718l.36-.349c.327-.28.534-.694.534-1.156V7.45c.002-.02.002-.045.002-.07a1.067 1.067 0 0 0-1.197-1.059 1.141 1.141 0 0 0-1.258 1.28l-.001.208h.869v-.197c0-.208.027-.587.32-.603s.347.197.347.405l.002.06a.908.908 0 0 1-.263.639l-.427.421a2.719 2.719 0 0 0-.858 1.738l-.001.15h2.459z"></path><path d="M14.427 10.432h.875v-.784h.363v-.683h-.363V6.4h-.96l-1.285 2.475v.768h1.371v.784zm-.683-1.472l.656-1.328v1.333z"></path><path d="M11.584 5.445a.443.443 0 0 0 .149-.325V2.885a.453.453 0 0 0-.906 0v1.781H9.6a.453.453 0 0 0 0 .906h1.696a.446.446 0 0 0 .288-.128z"></path></svg>