<svg xmlns="http://www.w3.org/2000/svg" width="24" height="24" viewBox="0 0 24 24" fill="none" stroke="currentColor" stroke-width="2" stroke-linecap="round" stroke-linejoin="round" class="feather feather-gallery"><path d="M14.987 10.448c0-1.28-.587-1.381-.587-2.448s.587-1.168.587-2.448c0-1.067-.587-1.477-.587-2.4s1.157-1.419.533-2.501c-1.024-.688-1.488.533-2.357.533S11.296.555 10.32.555c-1.205 0-1.275.629-2.304.629S6.917.555 5.712.555c-.981 0-1.392.629-2.256.629S2.107-.037 1.067.651c-.645 1.067.533 1.6.533 2.501s-.587 1.355-.587 2.4c0 1.28.587 1.381.587 2.448s-.587 1.168-.587 2.448c0 1.067.587 1.477.587 2.4s-1.163 1.413-.533 2.501c1.024.688 1.488-.533 2.357-.533s1.28.629 2.256.629c1.205 0 1.275-.629 2.304-.629s1.099.629 2.304.629c.981 0 1.392-.629 2.256-.629s1.333 1.243 2.357.533c.645-1.067-.533-1.6-.533-2.501s.619-1.36.619-2.4zm-1.424 2.885a.651.651 0 0 1-.651.651H3.088a.651.651 0 0 1-.651-.651V2.666a.652.652 0 0 1 .65-.635h9.824a.65.65 0 0 1 .65.634z"></path><path d="M10.667 8.827a.24.24 0 0 0-.389-.001l-1.067 1.515-2.277-3.285a.24.24 0 0 0-.389-.001l-3.408 4.918a.24.24 0 0 0 .198.373h9.323a.24.24 0 0 0 .197-.374z"></path><path d="M11.568 5.861a1.425 1.425 0 1 1-2.85-.001 1.425 1.425 0 0 1 2.85.001z"></path></svg>