<svg xmlns="http://www.w3.org/2000/svg" width="24" height="24" viewBox="0 0 24 24" fill="none" stroke="currentColor" stroke-width="2" stroke-linecap="round" stroke-linejoin="round" class="feather feather-hairdryer"><path d="M14.8 6.15c0-1.4-1.15-2.55-2.55-2.55h-.35l-7.5.65h-.6V8.2h1l5.1.35-.4 3.8c0 .1-.05.2-.05.3 0 .85.7 1.55 1.55 1.55.75 0 1.4-.55 1.55-1.25l1.15-4.7c.7-.5 1.1-1.25 1.1-2.1zM13.25 7.9l-1.2 4.95c-.1.45-.5.8-1 .8-.55 0-.95-.4-1-.95l.05-.4.45-4.25-6.2-.4v-2.8l7.75-.65h.2c1.1 0 1.95.9 1.95 1.95.05.75-.4 1.4-1 1.75z"></path><path d="M12.4 4.8c-.7 0-1.3.6-1.3 1.3s.6 1.3 1.3 1.3c.7 0 1.3-.6 1.3-1.3s-.6-1.3-1.3-1.3zm0 2c-.4 0-.7-.3-.7-.7s.3-.7.7-.7.7.3.7.7c0 .4-.3.7-.7.7z"></path><path d="M1.2 3.85L3.2 5"></path><path d="M1.2 8.35l2.05-.95"></path><path d="M.9 6.1h2.35"></path></svg>