<svg xmlns="http://www.w3.org/2000/svg" width="24" height="24" viewBox="0 0 24 24" fill="none" stroke="currentColor" stroke-width="2" stroke-linecap="round" stroke-linejoin="round" class="feather feather-hammock"><path d="M12.35 9.5c-1.15 1.15-2.65 1.8-4.4 1.8-2.3 0-4.2-1.15-5.45-3.15l-.25.75c1.3 2 3.3 3.15 5.65 3.15 1.8 0 3.45-.75 4.7-1.9l-.25-.65z"></path><path d="M15.25 4.15h-.7c-.1 0-.2.1-.25.2-1 3.25-3.45 5.25-6.4 5.25s-5.35-2-6.35-5.25c-.05-.1-.15-.2-.25-.2H.65c-.1 0-.2.2-.2.3 0 5.9 3.35 10.75 7.5 10.75s7.5-4.85 7.5-10.75c0-.1-.1-.2-.2-.3z"></path><path d="M13.15 5.55c-.45.45-1.15.4-1.55-.1s-.35-1.3.1-1.75 1.15-.4 1.55.1c.35.5.35 1.3-.1 1.75z"></path><path d="M9.15 14.95s.35-2.2.4-2.6c.1-.4.3-.55.7-.45.35.1.85.3 1.45.4.45.15 1.6 0 1.9-1.3 0 0 .7-2.95-.8-4.3-.4-.35-1.1-.6-1.6-.15-.45.5-1.1 1.9-1.1 1.9s-1.5-.55-1.85-.6c-.75-.15-1 .3-.15.75 1.25.65 2.15 1 2.4.9.3-.15.8-.75.8-.75l.15 1.7c-.65-.15-1.1-.3-1.25-.35-.45-.1-1.5-.2-1.75 1.25S8.1 14.3 8.1 14.3z"></path><path d="M.45.9L.6 15.3"></path><path d="M15.4.8l.15 14.4"></path></svg>