<svg xmlns="http://www.w3.org/2000/svg" width="24" height="24" viewBox="0 0 24 24" fill="none" stroke="currentColor" stroke-width="2" stroke-linecap="round" stroke-linejoin="round" class="feather feather-harbour"><path d="M9.6 12.667c.436.344.994.551 1.6.551s1.164-.208 1.606-.556c.431.348.988.556 1.594.556s1.164-.208 1.606-.556L16 9.877H4.699a.662.662 0 0 0-.532 1.026l1.476 2.2c.291-.109.542-.257.761-.441a2.588 2.588 0 0 0 3.202-.001zm-3.915-1.36a.357.357 0 1 1 0-.714.357.357 0 0 1 0 .714z"></path><path d="M8.891 9.243H16V8.71H8.891a.118.118 0 0 1-.096-.176l.906-1.386h4.203l.651-1.68h-3.733l.827-1.264a.115.115 0 0 1 .096-.053h4.267V1.148h-.128a.713.713 0 0 0-.59.317l-1.426 2.147h-2.133a.651.651 0 0 0-.532.291L8.359 8.241a.65.65 0 0 0 .532 1.002z"></path><path d="M16 13.451c-.436.344-.994.551-1.6.551s-1.164-.208-1.606-.556c-.431.348-.988.556-1.594.556s-1.164-.208-1.606-.556c-.431.348-.988.556-1.594.556s-1.164-.208-1.606-.556c-.431.348-.988.556-1.594.556s-1.164-.208-1.606-.556L3.2 9.877h-.581V8.709a.587.587 0 0 0-1.174 0v1.168H0V16h16v-2.549z"></path></svg>