<svg xmlns="http://www.w3.org/2000/svg" width="24" height="24" viewBox="0 0 24 24" fill="none" stroke="currentColor" stroke-width="2" stroke-linecap="round" stroke-linejoin="round" class="feather feather-horse"><path d="M16.587 10.304c-1.067-.448.165-2.667.123-4.021s-.757-2.171-1.931-2.133h-.022c-.539 0-1.035.185-1.428.495-.694-.26-1.75-.132-4.128.663-.533.075-1.397.256-2.592-1.269S4.561 1.02 2.55 1.73c0 0-.485-.891-.837-.789-.133.037.128 1.269.128 1.269S.289 3.965.086 4.146s0 .864.277 1.067l2.736-.683c.383.689.775 1.525 1.115 2.388.053.428-.203 2.082.991 2.466.088 1.363.347 2.635.756 3.838.024.044.055.215.055.393 0 .236-.055.46-.154.658.004.173-.135.183-.135.183l-.411.619h1.067l.315-.613s.128-1.685.128-1.888-.075-3.099-.075-3.099 2.304.533 3.691-.331c.238-.148.527-.236.836-.236.255 0 .495.059.709.165.65.749 1.25 1.586 1.764 2.48.28.497.163 2.492.163 2.492.069.283-.171.283-.171.283l-.459.768h1.035l.421-.699c.052-.276.096-.616.121-.962.002-.308-.292-1.572-.19-2.052v-.015c0-.825-.149-1.616-.421-2.346-.161-.439 1.135-2.62.143-3.564-.149-.144-.283-.277-.421-.395 1.397-.491 1.301 1.376 1.067 2.373s-.427 3.547.981 3.861a1.258 1.258 0 0 0 1.599-1.061 1.055 1.055 0 0 1-.58.175c-.165 0-.321-.039-.46-.109z"></path></svg>