<svg xmlns="http://www.w3.org/2000/svg" width="24" height="24" viewBox="0 0 24 24" fill="none" stroke="currentColor" stroke-width="2" stroke-linecap="round" stroke-linejoin="round" class="feather feather-hot-deal"><path d="M8.107 7.264a.533.533 0 0 0 .458-.191.947.947 0 0 0 .15-.596.946.946 0 0 0-.151-.613.533.533 0 0 0-.409-.19l-.049.002a.53.53 0 0 0-.45.191.897.897 0 0 0-.15.574 1.015 1.015 0 0 0 .147.609.534.534 0 0 0 .429.215l.029-.001z"></path><path d="M4.981 8.416h-.533v1.461h.533a.53.53 0 0 0 .432-.154.984.984 0 0 0 .117-.58.997.997 0 0 0-.119-.572.536.536 0 0 0-.431-.155z"></path><path d="M9.019 9.333h.667l-.341-.864-.325.864z"></path><path d="M15.184 8.597L15.813 8l-.624-.597.533-.688-.715-.485.4-.768-.784-.357.245-.837-.832-.224.128-.843-.859-.085v-.864l-.864.059-.176-.848-.843.197-.293-.811-.795.336-.416-.757-.731.459-.544-.672-.645.576-.645-.576-.533.672-.741-.459-.427.752-.789-.336-.293.816-.837-.197-.16.848-.864-.059v.864l-.875.085.128.853-.832.213.267.821-.784.357.4.768-.715.485.533.688-.645.613.624.597-.533.688.715.485-.4.768.784.357-.245.837.832.224-.128.843.859.085v.864l.864-.059.176.848.843-.197.293.811.795-.331.421.752.731-.459.533.672.651-.576.645.576.533-.672.731.459.427-.752.795.336.293-.811.843.197.155-.848.864.059v-.864l.88-.091-.128-.853.832-.213-.267-.821.784-.357-.4-.768.715-.485zM8 14.304c-3.482 0-6.304-2.822-6.304-6.304S4.518 1.696 8 1.696a6.303 6.303 0 1 1 0 12.608z"></path><path d="M8 2.229a5.771 5.771 0 1 0-.001 11.543A5.771 5.771 0 0 0 8 2.229zm3.579 1.878l.197.187-.096.096-.192-.187zm-.422-.347l.213.171-.085.101-.208-.165zM9.312 5.749V5.36h1.941v.389h-.725V7.6h-.491V5.755zm1.397-2.293l.229.144-.075.133-.224-.144zm-.485-.256l.245.123-.064.117-.24-.117zm-.507-.203l.256.096-.048.107-.251-.091zm-.533-.149l.261.069-.037.128-.256-.064zm-.533-.096l.267.043v.133l-.261-.037zm-.534-.037h.272v.133h-.267zm-.272 0v.133h-.267v-.133zm-.533.042v.133l-.261.043V2.8zm-.043 2.838a1.124 1.124 0 0 1 .842-.261 1.119 1.119 0 0 1 .839.288 1.226 1.226 0 0 1 .27.884 1.236 1.236 0 0 1-.274.878 1.113 1.113 0 0 1-.845.285 1.11 1.11 0 0 1-.845-.289 1.274 1.274 0 0 1-.271-.906 1.178 1.178 0 0 1 .278-.876zm-.496-2.736l.032.128-.256.069-.037-.128zm-.533.154l.043.128-.245.096-.048-.123zm-.496.187l.059.123-.235.117-.064-.117zm-.48.256l.069.112-.219.165-.075-.112zm-.464.325l.08.107-.187.165-.085-.107zm-.416.347l.091.096-.192.187-.075-.091zm-.379.389l.101.085-.155.197-.107-.08zm-.336.427l.107.075-.149.219-.091-.064zm-.293.459l.117.064-.123.235-.117-.059zm-.224.464l.123.053c-.037.08-.069.16-.101.245l-.123-.048q.048-.101.101-.251zM2.96 6.4l.128.043a4.944 4.944 0 0 0-.075.256l-.128-.032q.032-.133.075-.267zm-.139.533l.133.027c0 .085-.032.171-.048.261h-.133q.021-.16.048-.288zm-.08.534h.133v.267h-.155c.005-.085.011-.176.021-.267zm0 .533h.133v.267h-.155c-.005-.075-.005-.165-.005-.267zm.027.533h.133c0 .091 0 .176.032.261H2.8c-.037-.059-.048-.149-.059-.261zm.085.534h.107c0 .085.037.171.059.256l-.128.032q-.037-.128-.064-.288zm.139.533h.101c.027.085.059.171.085.251l-.123.048c-.032-.112-.064-.197-.091-.299zm.309.752q-.101-.101-.144-.219l.123-.053.112.24zm.267.469l-.139-.235.117-.064.139.229zm.315.443l-.165-.219.107-.075.16.213zm.357.405l-.187-.197.101-.091.181.197zm.4.368l-.203-.181.091-.096.197.176zm.437.326l-.224-.16.08-.107.219.155zm.47.282l-.235-.133.069-.112.229.133zm-.102-2.442a1.471 1.471 0 0 1-.362.044l-.057-.001H3.962V8.027h1.029a1.024 1.024 0 0 1 .801.283 1.266 1.266 0 0 1 .255.885l.001.038c0 .176-.032.345-.089.501a.848.848 0 0 1-.524.522zm.598 2.666l-.277-.069.059-.123.245.107zm-.71-6.202v.939h-.475V5.361h.475v.912h.864v-.912h.469v2.245h-.469v-.939zm1.195 6.4l-.261-.08.043-.128.251.08zm.533.122l-.267-.053.032-.128.261.053zm-.197-2.976a.854.854 0 0 1-.532-.527 1.442 1.442 0 0 1-.088-.497l.001-.044a1.267 1.267 0 0 1 .258-.881 1.028 1.028 0 0 1 .801-.279h.78v.389h-.789a.533.533 0 0 0-.363.16.564.564 0 0 0-.144.379v.016l1.307-.001v.389H6.762a.593.593 0 0 0 .123.422.533.533 0 0 0 .413.126h.771v.389h-.795a1.526 1.526 0 0 1-.426-.034zm.736 3.046l-.272-.027v-.133h.261zm.4 0h-.133v-.133h.267v.133zm.411 0v-.133l.261-.027v.133zm.533-.07v-.133l.261-.053.032.128zm.533-.122l-.037-.128.251-.08.043.128zm-.613-3.339l-.197.533h-.501l.949-2.245H9.6l.955 2.245h-.533l-.208-.533zm1.131 3.163l-.048-.123.24-.107.059.123zm.49-.23l-.064-.117.229-.133.069.112zm.15-2.89a1.399 1.399 0 0 1-.049-.371l.001-.042V8.027h.469v1.317a1.484 1.484 0 0 0 0 .284.292.292 0 0 0 .059.123.38.38 0 0 0 .162.111.83.83 0 0 0 .238.034l.038-.001h.532v.373h-.555l-.065.001c-.144 0-.283-.02-.415-.057a.676.676 0 0 1-.261-.178.655.655 0 0 1-.154-.257zm.32 2.613l-.075-.117.213-.155.08.107zm.432-.325l-.085-.101.197-.176.091.096zm.4-.368l-.096-.096.181-.192.101.091zm.357-.411l-.107-.08.16-.213.107.075zm.315-.443l-.112-.069.139-.229.117.064zm.266-.474l-.117-.059q.059-.117.112-.24l.123.053q-.043.123-.112.245zm.219-.502l-.144-.043c.032-.08.059-.165.085-.251l.128.043a.89.89 0 0 1-.064.256zm.165-.533l-.128-.032c0-.085.043-.171.059-.256l.133.027q-.027.149-.059.277zm.112-.533h-.133c0-.085 0-.176.032-.261h.133a2.03 2.03 0 0 1-.032.277zM13.285 8v.272h-.133v-.267h.133zm0-.293h-.133V7.44h.133c-.021.085-.011.176-.005.267zm-.058-.534h-.133c0-.091-.032-.176-.048-.261l.128-.027q.027.144.048.283zm-.112-.533l-.128.032-.075-.256.128-.043q.032.128.069.261zm-.166-.533l-.123.048-.101-.245.123-.053c.027.091.059.176.091.261zm-.346-.736l.128.24-.117.059-.128-.235zm-.294-.459l.155.224-.112.069-.149-.219zm-.277-.112l-.171-.203.101-.091.176.208z"></path></svg>