<svg xmlns="http://www.w3.org/2000/svg" width="24" height="24" viewBox="0 0 24 24" fill="none" stroke="currentColor" stroke-width="2" stroke-linecap="round" stroke-linejoin="round" class="feather feather-ice-machine"><path d="M4.7 12.5l2.4-1.2v-2l-2.4 1.05v2.15zm-.4-2.85l2.55-1.1-2.55-1.1-2.55 1.1 2.55 1.1zm6.9 2.85l2.4-1.2v-2l-2.4 1.05v2.15zm-.4-2.85l2.55-1.1-2.55-1.1-2.55 1.1 2.55 1.1zM7.95 7.8l2.4-1.05v-1.7L7.95 6.1v1.7zm-.4-2.4l2.8-1.2L7.55 3l-2.8 1.2 2.8 1.2zm6.85 3.25v2.65c0 .15-.05.3-.1.4-.1.15-.2.25-.35.3l-2.85 1.4c-.05.1-.2.1-.3.1s-.25-.05-.35-.1L7.6 12s-.05 0-.05-.05L7.5 12l-2.85 1.4c-.1.1-.2.1-.35.1s-.25 0-.35-.05L1.15 12C1 11.95.9 11.85.8 11.7s-.1-.25-.1-.4V8.65c0-.15.05-.3.15-.45s.2-.25.35-.3l2.75-1.15V4.2c0-.15.05-.3.15-.45.05-.1.15-.2.3-.25l2.85-1.2c.1-.05.2-.05.3-.05s.2 0 .3.05l2.85 1.2c.15.05.25.15.35.3s.15.3.15.45V6.8l2.75 1.15c.15.05.25.15.35.3.1.1.1.25.1.4z"></path></svg>