<svg xmlns="http://www.w3.org/2000/svg" width="24" height="24" viewBox="0 0 24 24" fill="none" stroke="currentColor" stroke-width="2" stroke-linecap="round" stroke-linejoin="round" class="feather feather-icebox"><path d="M11.9 4.25l.65-.65h-1.5s0 .05-.05.05l-.4.4c-.05.05-.15.05-.2 0s-.05-.15 0-.2l.25-.25h-.2c-.1 0-.15-.05-.15-.15s.05-.15.15-.15h.2l-.2-.2c-.05-.05-.05-.15 0-.2s.15-.05.2 0l.35.4v.05h1.55l-.65-.65h-.6c-.1 0-.15-.05-.15-.15s.05-.15.15-.15h.3l-.2-.25c-.05-.05-.05-.15 0-.2s.15-.05.2 0l.2.2v-.2c0-.1.05-.15.15-.15s.15.05.15.15v.6l.65.65V1.65s-.05 0-.05-.05l-.4-.4a.152.152 0 0 1 0-.2c.05 0 .15 0 .2.05l.2.2v-.2c0-.1.05-.15.15-.15.1.05.15.1.15.15v.2l.25-.25c.05-.05.15-.05.2 0s.05.15 0 .2l-.4.4s-.05 0-.05.05v1.5l.65-.65v-.55c0-.1.05-.15.15-.15s.15.05.15.15v.3l.2-.2c.05-.05.15-.05.2 0s.05.15 0 .2l-.2.2h.35c.1 0 .15.05.15.15s-.05.15-.15.15h-.6l-.65.65h1.55v-.05l.4-.4c.05-.05.15-.05.2 0s.05.15 0 .2l-.2.2h.2c.1 0 .15.05.15.15s-.05.15-.15.15h-.2l.25.25c.05.05.05.15 0 .2s-.15.05-.2 0l-.4-.4s0-.05-.05-.05h-1.5l.65.65h.6c.1 0 .15.05.15.15-.2 0-.25.05-.35.05h-.3l.2.2c.05.05.05.15 0 .2s-.15.05-.2 0l-.2-.2V5c0 .1-.05.15-.15.15s-.15-.05-.15-.15v-.6L13 3.8v1.55s.05 0 .05.05l.4.4c.05.05.05.15 0 .2s-.15.05-.2 0L13 5.7v.2c0 .1-.05.15-.15.15S12.7 6 12.7 5.9v-.2l-.2.25c-.05.05-.15.05-.2 0s-.05-.15 0-.2l.4-.4.05-.05V3.8l-.65.65v.6c0 .1-.05.15-.15.15s-.15-.05-.15-.15V4.7l-.2.2c-.05.05-.15.05-.2 0s-.05-.15 0-.2l.25-.2h-.35c-.1 0-.15-.05-.15-.15s.05-.15.15-.15l.6.05c-.05 0 0 0 0 0z"></path><path d="M5 10.4l1.6-1.6H2.75c0 .05-.05.1-.1.1l-.95.95c-.1.1-.35.1-.5 0-.1-.1-.1-.35 0-.5l.6-.6h-.5c-.2 0-.35-.1-.35-.3s.15-.3.35-.3h.55L1.3 7.6c-.1-.1-.1-.35 0-.5.1-.1.35-.1.5 0l.95.95c.05.05.05.05.05.1h3.9L5 6.6c-.05 0-.1.05-.1.05H3.5c-.2 0-.3-.15-.3-.3 0-.2.15-.3.3-.3h.8l-.55-.6c-.1-.1-.1-.35 0-.5.1-.1.35-.1.5 0l.55.55v-.85c0-.2.15-.3.3-.3.25-.05.4.15.4.3V6c0 .05 0 .1-.05.1l1.6 1.6V3.85c-.05 0-.1-.05-.1-.1L6 2.8c-.1-.1-.1-.35 0-.5.1-.1.35-.1.5 0l.5.55v-.5c.05-.15.2-.35.4-.35s.3.15.3.35v.55l.6-.6c.1-.1.35-.1.5 0 .1.1.1.35 0 .5l-.95.95c-.05.05-.1.05-.1.1V7.7l1.6-1.6V4.6c0-.2.15-.3.3-.3.2 0 .3.15.3.3v.8l.55-.55c.1-.1.35-.1.5 0 .1.1.1.35 0 .5l-.55.55h.85c.2 0 .3.15.3.3 0 .2-.15.3-.3.3H9.95c-.05 0-.1 0-.1-.05L8.25 8.1h3.9c0-.05.05-.05.05-.1l.95-.95c.1-.1.35-.1.5 0 .1.1.1.35 0 .5l-.65.6h.5c.2 0 .35.15.35.3 0 .2-.15.3-.35.3h-.55l.6.6c.1.1.1.35 0 .5-.1.1-.35.1-.5 0l-.95-.95c-.05-.05-.05-.1-.1-.1H8.15l1.6 1.6h1.45c.2 0 .3.15.3.3 0 .2-.15.3-.3.3h-.8l.55.55c.1.1.1.35 0 .5-.1.1-.35.1-.5 0l-.55-.55v.85c0 .2-.15.3-.3.3-.2 0-.3-.15-.3-.3V11c0-.05 0-.1.05-.1l-1.6-1.55v3.9c.05 0 .1.05.1.1l.95.95c.1.1.1.35 0 .5s-.35.1-.5 0l-.6-.6v.55c0 .2-.15.35-.3.35-.2 0-.3-.15-.3-.35v-.5l-.6.45c-.1.1-.35.1-.5 0-.1-.1-.1-.35 0-.5l.95-.95.1-.1v-3.9l-1.55 1.6c0 .05.05.1.05.1v1.35c0 .2-.15.3-.3.3-.2 0-.3-.15-.3-.3v-.8l-.55.55c-.1.1-.35.1-.5 0-.1-.1-.1-.35 0-.5l.55-.55H3.5c-.2 0-.3-.15-.3-.3 0-.2.15-.3.3-.3H5z"></path><path d="M-.1 0h16v16h-16V0z"></path></svg>