<svg xmlns="http://www.w3.org/2000/svg" width="24" height="24" viewBox="0 0 24 24" fill="none" stroke="currentColor" stroke-width="2" stroke-linecap="round" stroke-linejoin="round" class="feather feather-image-3"><path d="M13.648 1.365H2.352a.693.693 0 0 0-.693.693v11.883c0 .383.31.693.693.693h11.296c.383 0 .693-.31.693-.693V2.058a.693.693 0 0 0-.693-.693zm-.357 8.454c0 .383-.31.693-.693.693h-9.2a.693.693 0 0 1-.693-.693V3.2c0-.383.31-.693.693-.693h9.205c.383 0 .693.31.693.693z"></path><path d="M10.507 6.4a.257.257 0 0 0-.415-.001l-.95 1.366-2.091-2.997a.257.257 0 0 0-.415-.001L3.531 9.232a.256.256 0 0 0 .208.4h8.528a.256.256 0 0 0 .207-.401z"></path><path d="M11.483 4.309a.992.992 0 1 1-1.984 0 .992.992 0 0 1 1.984 0z"></path></svg>