<svg xmlns="http://www.w3.org/2000/svg" width="24" height="24" viewBox="0 0 24 24" fill="none" stroke="currentColor" stroke-width="2" stroke-linecap="round" stroke-linejoin="round" class="feather feather-infant"><path d="M10.347 2.571a2.33 2.33 0 1 1-4.662 0 2.33 2.33 0 0 1 4.662 0z"></path><path d="M13.333 8.112l-3.136-2.955h-.032a.754.754 0 0 0-.533-.229H6.399a.748.748 0 0 0-.481.177.778.778 0 0 0-.101.075L2.666 8.112a.905.905 0 0 0-.042 1.286.905.905 0 0 0 1.286.042l1.722-1.6v1.381H10.4V7.824l1.717 1.6a.902.902 0 0 0 .621.246.901.901 0 0 0 .663-.289l.001-.001a.904.904 0 0 0-.069-1.268z"></path><path d="M6.197 12.741l.912-.944a3.604 3.604 0 0 1-1.815-1.733l-1.231 1.723c-.123.171-.421.533-.24.773s1.472 2.091 1.984 2.709a1.014 1.014 0 0 0 1.287.397.724.724 0 0 0 .222-.908 145.177 145.177 0 0 1-1.118-2.017z"></path><path d="M10.731 10.048a3.604 3.604 0 0 1-1.801 1.746l.889.953s-.923 1.691-1.12 2.016a.717.717 0 0 0 .227.905 1.012 1.012 0 0 0 1.28-.394c.536-.623 1.805-2.447 1.987-2.714s-.123-.603-.24-.773z"></path></svg>