<svg xmlns="http://www.w3.org/2000/svg" width="24" height="24" viewBox="0 0 24 24" fill="none" stroke="currentColor" stroke-width="2" stroke-linecap="round" stroke-linejoin="round" class="feather feather-jetski"><path d="M4.15 3c.5.45 1.3.4 1.75-.1s.4-1.3-.1-1.75c-.5-.45-1.3-.4-1.75.1s-.4 1.3.1 1.75z"></path><path d="M7.3 12.55s-.4-2.2-.45-2.6c-.1-.4-.35-.55-.75-.45s-1 .3-1.6.4c-.55.15-1.85 0-2.15-1.3 0 0-.8-3 .9-4.35.45-.35 1.25-.65 1.8-.15S6.3 6.05 6.3 6.05 8 5.5 8.4 5.4c.85-.15 1.1.3.2.75-1.45.7-2.4 1.05-2.7.9C5.55 6.9 5 6.3 5 6.3L4.8 8c.7-.15 1.25-.3 1.45-.35.5-.1 1.7-.25 1.95 1.25s.4 3 .4 3z"></path><path d="M.45 11.6h14.9c.4 0 .5.55.2.7-1.25.75-2.85 1.9-4.65 2.15-2.6.45-7.65-.45-9.65-1.3-.5-.2-1-.65-1.15-1-.1-.3.1-.55.35-.55z"></path><path d="M15.15 11.15H.55c-.3 0-.45-.35-.25-.55l.5-.6c.2-.25.5-.35.8-.4l6.5-.5s.45-.9 1.25-1.55c-.05-.1-.05-.2-.05-.35 0-.35.2-.7.55-.95L9.3 6H8c-.2 0-.35-.15-.35-.35S7.8 5.3 8 5.3h1.4l1 .6.15.15h.1c.7 0 1.3.4 1.45.9 2.75.45 3.25 2.65 3.3 3.7.25.3 0 .5-.25.5z"></path></svg>