<svg xmlns="http://www.w3.org/2000/svg" width="24" height="24" viewBox="0 0 24 24" fill="none" stroke="currentColor" stroke-width="2" stroke-linecap="round" stroke-linejoin="round" class="feather feather-laundry"><path d="M13.333 1.003H2.666a.72.72 0 0 0-.72.72v1.701h12.107V1.723a.72.72 0 0 0-.72-.72zm-7.28 1.664H3.301a.535.535 0 0 1-.004-1.013l2.756-.001a.535.535 0 0 1 .004 1.013zm4.71 0a.533.533 0 1 1 .533-.533c0 .293-.236.53-.528.533zm1.642 0a.533.533 0 1 1 0-1.066.533.533 0 0 1 0 1.066z"></path><path d="M1.947 14.997h12.107V4.224H1.947zM8 5.445A4.165 4.165 0 1 1 3.835 9.61v-.011A4.17 4.17 0 0 1 8 5.445z"></path><path d="M8 13.243a3.634 3.634 0 0 0 3.587-3.089.75.75 0 0 1-.436.146l-.027-.001c-1.113 0-3.247-1.408-4.937-1.12a2.64 2.64 0 0 0-1.778.95A3.63 3.63 0 0 0 8 13.243h.001z"></path></svg>