<svg xmlns="http://www.w3.org/2000/svg" width="24" height="24" viewBox="0 0 24 24" fill="none" stroke="currentColor" stroke-width="2" stroke-linecap="round" stroke-linejoin="round" class="feather feather-lira"><path d="M14.741 5.291v-.939h-1.104v-.944H.16v7.301h1.099v.939h1.104v.939H15.84V5.291zM.56 10.309V3.808h12.677v6.501zm1.099.939v-.533h11.979V4.752h.699v6.496zm13.776.939H2.763v-.533h11.979V5.691h.699z"></path><path d="M.827 4.075v5.968h12.144V4.075zm7.408 3.669a1.692 1.692 0 0 1-.348.62 1.65 1.65 0 0 1-.585.416 2.205 2.205 0 0 1-.826.159l-.051-.001h-.296V7.263l-.421.155v-.443l.421-.155v-.384l-.421.155v-.443l.421-.155v-.816h.709v.533l1.003-.379v.443l-1.003.373v.379l1.003-.373v.443l-1.003.373v1.264h.004c.12 0 .231-.036.324-.097a.904.904 0 0 0 .257-.262c.077-.119.137-.252.176-.394.043-.156.066-.323.066-.496v-.01l.683.001.001.051c0 .258-.039.507-.112.74z"></path></svg>