<svg xmlns="http://www.w3.org/2000/svg" width="24" height="24" viewBox="0 0 24 24" fill="none" stroke="currentColor" stroke-width="2" stroke-linecap="round" stroke-linejoin="round" class="feather feather-luggage-storage"><path d="M1.632 2.949c-.571 0-1.035.463-1.035 1.035v7.248c0 .571.463 1.035 1.035 1.035h1.152V2.95z"></path><path d="M14.699 8.992V3.984c0-.571-.463-1.035-1.035-1.035h-1.152v4.368a4.039 4.039 0 0 0-1.054-.207l-.012-4.161h-.987V1.69A1.242 1.242 0 0 0 9.222.453H6.107A1.242 1.242 0 0 0 4.87 1.69v1.259H3.862v9.317h3.2a4.232 4.232 0 0 0 4.119 3.286 4.224 4.224 0 0 0 3.509-6.576zM5.936 2.949V1.69a.17.17 0 0 1 .171-.171h3.115a.17.17 0 0 1 .171.171v1.259zM11.2 14.747a3.424 3.424 0 1 1 0-6.848 3.424 3.424 0 0 1 0 6.848z"></path><path d="M12.901 10.789a.267.267 0 0 0-.267-.267h-.368v-.261a1.01 1.01 0 1 0-2.022 0v.261H9.86a.267.267 0 0 0-.267.267V12.8c0 .147.119.267.267.267h2.784a.267.267 0 0 0 .267-.267zm-2.133-.533a.477.477 0 1 1 .954 0v.261h-.955zm.475 2.213a.143.143 0 0 1-.144-.144v-.432a.38.38 0 1 1 .291-.001l-.002.438a.144.144 0 0 1-.144.139z"></path></svg>