<svg xmlns="http://www.w3.org/2000/svg" width="24" height="24" viewBox="0 0 24 24" fill="none" stroke="currentColor" stroke-width="2" stroke-linecap="round" stroke-linejoin="round" class="feather feather-lunch-2"><path d="M8.229 9.701a.216.216 0 0 1 .195-.309c.085 0 .159.049.194.121a.242.242 0 0 1 0 .094l2.635-1.857a.213.213 0 0 1-.096-.241.213.213 0 0 1 .267-.142.215.215 0 0 1 .148.164l.598-.42-3.28-5.243a.213.213 0 0 1-.283 0 .214.214 0 0 1 .058-.352L8.32.982 4.507.001l-4.32 11.2 3.664 1.803 4.496-3.168a.216.216 0 0 1-.117-.132zm1.984-2.608a.213.213 0 1 1-.192-.124c.085 0 .159.05.193.122zM9.568 4.88a.213.213 0 1 1-.001 0zM4.837.613l1.563.411-4 10.667-.635-.331.667-1.723s-.736 0-.976.533.144 1.029.277 1.173l-.875-.427zM3.552 12.24l-.683-.336L6.933 1.152l.699.176-1.765 4.699a.213.213 0 0 1-.037.423.22.22 0 0 1-.108-.029zM8.48 3.493a.214.214 0 0 1-.034.424.214.214 0 1 1 .041-.423zM5.813 10.96a.213.213 0 1 1 0-.304.214.214 0 0 1-.016.309zm.656-2.187a.213.213 0 1 1 0-.304.214.214 0 0 1-.016.309zm.63-3.546a.214.214 0 0 1 .034-.424.214.214 0 0 1 .211.243.214.214 0 0 1-.262.185zm1.024 1.968a.213.213 0 1 1 0-.304.207.207 0 0 1 .061.15c0 .063-.028.12-.072.16z"></path><path d="M4.8 1.44c-.213.501.325 1.227.325 1.227L5.797.923s-.731.016-.997.517z"></path><path d="M4.149 3.2c-.24.501.304 1.216.304 1.216l.672-1.749s-.736 0-.976.533z"></path><path d="M3.477 4.928c-.24.501.304 1.216.304 1.216l.672-1.739s-.72.021-.976.523z"></path><path d="M2.805 6.672c-.24.501.304 1.216.304 1.216l.672-1.744s-.741.027-.976.528z"></path><path d="M2.133 8.416c-.24.501.304 1.216.304 1.216l.667-1.739s-.736.021-.971.523z"></path><path d="M11.493 10.528h.053v-.731h.4v1.067c.108.146.241.267.394.359l.006-3.143h.4v3.344c.111.039.245.074.383.099l.017-2.584h.4v2.629h.4V7.301h.4v4.197c.155-.028.289-.063.42-.107l-.02-2.453h.4v2.304c.159-.095.292-.216.397-.359l.003-1.204h.4v.848h.4V9.279h-.8v-.747h-.8v-1.6h-1.2v1.6h-.4v-.853h-1.2v1.717h-.8v1.136z"></path><path d="M16.88 10.928H16c0 .027-.037.048-.053.075a1.575 1.575 0 0 1-.162.221l-.03.041a1.813 1.813 0 0 1-.204.189l-.004.003a2.063 2.063 0 0 1-.675.357l-.018.005h-.096a3.55 3.55 0 0 1-.921.128h-.162a3.647 3.647 0 0 1-.948-.134l.026.006h-.096a2.647 2.647 0 0 1-.304-.119 2.011 2.011 0 0 1-.393-.247l.004.003a1.802 1.802 0 0 1-.207-.191l-.033-.044a1.587 1.587 0 0 1-.156-.212l-.004-.007s-.037-.048-.053-.075h-.896l.587 2.736h5.056z"></path><path d="M11.739 16h4.016l.331-1.493h-4.677L11.74 16z"></path></svg>