<svg xmlns="http://www.w3.org/2000/svg" width="24" height="24" viewBox="0 0 24 24" fill="none" stroke="currentColor" stroke-width="2" stroke-linecap="round" stroke-linejoin="round" class="feather feather-map-alaturka"><path d="M14.32 0H1.68a1.6 1.6 0 0 0-1.6 1.6v8.181a1.6 1.6 0 0 0 1.6 1.6h5.013L8 16l1.307-4.603h5.013a1.6 1.6 0 0 0 1.6-1.6V1.6a1.6 1.6 0 0 0-1.6-1.6zm1.067 9.781c0 .589-.478 1.067-1.067 1.067H1.68A1.067 1.067 0 0 1 .613 9.781V1.6c0-.589.478-1.067 1.067-1.067h12.64c.589 0 1.067.478 1.067 1.067z"></path><path d="M5.611 3.733a1.218 1.218 0 0 0-.763.163.738.738 0 0 0-.223.608.691.691 0 0 0 .197.53c.139.117.32.188.518.188l.055-.002h1.763V3.657c.002-.02.002-.043.002-.066a.89.89 0 0 0-.258-.627 1.098 1.098 0 0 0-.771-.235h-1.33v.533h1.067a.86.86 0 0 1 .469.093.354.354 0 0 1 .125.271l-.002.038v.068zm.869.496v.533h-.821c-.015.002-.033.002-.051.002a.534.534 0 0 1-.24-.057.218.218 0 0 1-.068-.157l.001-.024a.245.245 0 0 1 .084-.26.564.564 0 0 1 .317-.064z"></path><path d="M7.584 1.835h.683v3.387h-.683V1.835z"></path><path d="M11.131 5.216V3.659c.002-.02.002-.043.002-.066a.89.89 0 0 0-.258-.627 1.098 1.098 0 0 0-.771-.235H8.758v.533h1.093a.86.86 0 0 1 .469.093.354.354 0 0 1 .125.271l-.002.038v.068H9.6a1.218 1.218 0 0 0-.767.189.735.735 0 0 0-.224.608.691.691 0 0 0 .197.53c.139.117.32.188.518.188l.055-.002zm-1.856-.731l-.001-.026c0-.075.034-.142.086-.187a.561.561 0 0 1 .317-.064h.777v.533h-.821c-.015.002-.033.002-.051.002a.537.537 0 0 1-.24-.057.215.215 0 0 1-.066-.203z"></path><path d="M4.405 5.984H1.477v.587H2.57V9.36h.736V6.571h1.099v-.587z"></path><path d="M5.829 8.811h-.533a.526.526 0 0 1-.348-.082.475.475 0 0 1-.083-.331V6.875H4.22v1.6a.884.884 0 0 0 .24.694 1.16 1.16 0 0 0 .793.218h1.233V6.875H5.83z"></path><path d="M8.032 6.875H6.933V9.36h.656V7.355h.229a.373.373 0 0 1 .236.049.279.279 0 0 1 .051.192v.319h.624v-.416a.632.632 0 0 0-.156-.486.813.813 0 0 0-.547-.138z"></path><path d="M10.805 6.875L9.754 8.07V5.979h-.656V9.36h.656V8.155l1.003 1.205h.88l-1.152-1.269 1.152-1.216h-.832z"></path><path d="M13.248 6.875h-1.344v.533h1.093a.86.86 0 0 1 .469.093.354.354 0 0 1 .125.271l-.002.038v.062h-.859a1.218 1.218 0 0 0-.767.189.735.735 0 0 0-.229.586.691.691 0 0 0 .197.531c.139.117.32.188.518.188l.055-.002h1.763V7.801c.002-.02.002-.043.002-.066a.89.89 0 0 0-.258-.627 1.097 1.097 0 0 0-.766-.234zm.352 1.984h-.8c-.015.002-.033.002-.051.002a.537.537 0 0 1-.24-.057.218.218 0 0 1-.068-.157l.001-.024-.001-.025c0-.075.034-.142.086-.187a.561.561 0 0 1 .317-.064h.755z"></path></svg>