<svg xmlns="http://www.w3.org/2000/svg" width="24" height="24" viewBox="0 0 24 24" fill="none" stroke="currentColor" stroke-width="2" stroke-linecap="round" stroke-linejoin="round" class="feather feather-microwave"><path d="M15.2 1.8H.8c-.2 0-.35.05-.5.2-.2.15-.35.35-.35.65V14.2H16V2.65c.05-.45-.35-.85-.8-.85zm-1.35 3.75c.5 0 .95.4.95.95s-.4.95-.95.95a.95.95 0 1 1 0-1.9zm0 3c.5 0 .95.4.95.95s-.4.95-.95.95c-.5 0-.95-.4-.95-.95s.4-.95.95-.95zm-2.1 3.15H2V4.8c0-.4.3-.5.45-.5h8.8c.1 0 .5.05.5.55v6.85zm3.55 1.15h-2.8v-1.1h2.8v1.1z"></path></svg>