<svg xmlns="http://www.w3.org/2000/svg" width="24" height="24" viewBox="0 0 24 24" fill="none" stroke="currentColor" stroke-width="2" stroke-linecap="round" stroke-linejoin="round" class="feather feather-minibar"><path d="M0 0v16h16V0H0zm15.25 15.05H.9V1.35h14.35v13.7z"></path><path d="M3.9 9.25c-.1-.05-.1-.15-.1-.2V8.2c0-.1.05-.15.05-.15.05-.05.1-.1.1-.2v-.6c0-.1-.05-.2-.15-.2h-.75c-.1 0-.15.1-.15.2v.6c0 .1.05.15.1.2s.05.05.05.1V9c0 .05 0 .15-.1.2-.4.2-.7.7-.7 1.25v4.5c0 .3.25.3.25.3h1.9c.15 0 .2-.2.2-.25v-4.5c0-.55-.3-1.05-.7-1.25z"></path><path d="M1.65 4.9h12.8v.7H1.65v-.7z"></path><path d="M5.6 3.95a1.15 1.15 0 1 1-2.3 0 1.15 1.15 0 0 1 2.3 0z"></path><path d="M7.85 3.95a1.15 1.15 0 1 1-2.3 0 1.15 1.15 0 0 1 2.3 0z"></path><path d="M10.1 3.95a1.15 1.15 0 1 1-2.3 0 1.15 1.15 0 0 1 2.3 0z"></path><path d="M12.35 3.95a1.15 1.15 0 1 1-2.3 0 1.15 1.15 0 0 1 2.3 0z"></path><path d="M7.25 9.25s-.05 0 0 0c-.1-.05-.1-.15-.1-.2V8.2c0-.1.05-.15.05-.15.05-.05.1-.1.1-.2v-.6c0-.1-.05-.2-.15-.2h-.7c-.1 0-.15.1-.15.2v.6c0 .1.05.15.1.2s.05.05.05.1V9c0 .05 0 .15-.1.2-.4.2-.7.7-.7 1.25v4.5c0 .3.25.3.25.3h1.9c.15 0 .2-.2.2-.25v-4.5c-.05-.55-.35-1.05-.75-1.25z"></path><path d="M10.5 9.25c-.1-.05-.1-.15-.1-.2V8.2c0-.1.05-.15.05-.15.05-.05.1-.1.1-.2v-.6c0-.1-.05-.2-.15-.2h-.7c-.1 0-.15.1-.15.2v.6c0 .1.05.15.1.2s.05.05.05.1V9c0 .05 0 .15-.1.2-.4.2-.7.7-.7 1.25v4.5c0 .3.25.3.25.3H11c.15 0 .2-.2.2-.25v-4.5c0-.55-.3-1.05-.7-1.25z"></path><path d="M13.75 9.25c-.1-.05-.1-.15-.1-.2V8.2c0-.1.05-.15.05-.15.05-.05.1-.1.1-.2v-.6c0-.1-.05-.2-.15-.2h-.7c-.1 0-.15.1-.15.2v.6c0 .1.05.15.1.2s.05.05.05.1V9c0 .05 0 .15-.1.2-.4.2-.7.7-.7 1.25v4.5c0 .3.25.3.25.3h1.9c.15 0 .2-.2.2-.25v-4.5c-.05-.55-.35-1.05-.75-1.25z"></path></svg>