<svg xmlns="http://www.w3.org/2000/svg" width="24" height="24" viewBox="0 0 24 24" fill="none" stroke="currentColor" stroke-width="2" stroke-linecap="round" stroke-linejoin="round" class="feather feather-money-exchange"><path d="M3.285 3.285a6.639 6.639 0 0 1 4.709-1.95c1.823 0 3.475.732 4.678 1.919l-.667.671 2.587.341-.352-2.571-.619.619A8 8 0 0 0 0 7.999h1.333v-.021c0-1.834.746-3.494 1.952-4.693z"></path><path d="M14.667 8v.009a6.66 6.66 0 0 1-11.36 4.721l.582-.581-2.581-.352.347 2.603.709-.709a8 8 0 0 0 13.637-5.676V8z"></path><path d="M3.995 8A4.005 4.005 0 1 0 8 3.979a4.005 4.005 0 0 0-4.005 4.005v.017zm4.266-2.88v.448c.258.021.492.104.694.233a1.243 1.243 0 0 1 .527 1.098l-.805-.004a1.134 1.134 0 0 0-.099-.418.458.458 0 0 0-.309-.206l-.003 1.194c.339.107.634.248.905.425.248.198.414.516.414.872l-.001.055a1.25 1.25 0 0 1-.581 1.151 1.793 1.793 0 0 1-.728.242l-.008.657h-.533v-.645a2.008 2.008 0 0 1-.81-.261 1.362 1.362 0 0 1-.523-1.238l.853.006c.01.195.054.377.127.543a.605.605 0 0 0 .355.224l.004-1.343-.133-.043a1.635 1.635 0 0 1-.852-.49 1.19 1.19 0 0 1-.247-.727l.001-.039v-.017c0-.185.035-.362.099-.524.135-.334.412-.596.756-.713a1.96 1.96 0 0 1 .369-.066l.007-.432h.533z"></path><path d="M7.307 6.757v.022c0 .162.077.307.197.398a.916.916 0 0 0 .213.111l.007-1.065a.497.497 0 0 0-.255.175.539.539 0 0 0-.161.357z"></path><path d="M8.709 8.912l.001-.026a.53.53 0 0 0-.187-.405 1.132 1.132 0 0 0-.249-.137l-.008 1.16a.678.678 0 0 0 .243-.092.588.588 0 0 0 .2-.502z"></path></svg>