<svg xmlns="http://www.w3.org/2000/svg" width="24" height="24" viewBox="0 0 24 24" fill="none" stroke="currentColor" stroke-width="2" stroke-linecap="round" stroke-linejoin="round" class="feather feather-night-bus"><path d="M12.8 7.584V2.133a1.509 1.509 0 0 0-1.174-1.47A22.914 22.914 0 0 0 6.547.187C6.469.185 6.356.185 6.243.185c-1.666 0-3.292.174-4.86.504C.854.816.353 1.417.352 2.134v11.2c0 .339.275.613.613.613h.853v.56a.737.737 0 0 0 1.472 0v-.571h4.619a4.224 4.224 0 1 0 4.92-6.343zM3.029 1.456c0-.18.146-.325.325-.325h6.4c.18 0 .325.146.325.325v.251c0 .18-.146.325-.325.325h-6.4a.325.325 0 0 1-.325-.325zm-.474 10.971a.853.853 0 1 1 0-1.706.853.853 0 0 1 0 1.706zm1.925.848v-1.093h2.757c.059.408.167.776.32 1.12zM2.315 8.741a.613.613 0 0 1-.608-.613V3.467c0-.339.275-.613.613-.613h8.491c.339 0 .613.275.613.613V7.36a4.204 4.204 0 0 0-3.117 1.383zm9.109 6.272a3.424 3.424 0 1 1 0-6.848 3.424 3.424 0 0 1 0 6.848z"></path><path d="M12.715 10.485l.256.352.123-.416.416-.133-.357-.251.005-.437-.352.267-.411-.139.144.411-.261.352.437-.005z"></path><path d="M14.043 11.419l-.245-.011-.128-.213-.091.229-.24.053.192.16-.021.245.208-.133.224.096-.059-.24.16-.187z"></path><path d="M10.901 11.899a1.659 1.659 0 0 1 1.055-2.381 1.775 1.775 0 0 0-.471-.058 2.133 2.133 0 1 0 1.965 2.965 1.69 1.69 0 0 1-1.074.385 1.658 1.658 0 0 1-1.487-.923z"></path></svg>