<svg xmlns="http://www.w3.org/2000/svg" width="24" height="24" viewBox="0 0 24 24" fill="none" stroke="currentColor" stroke-width="2" stroke-linecap="round" stroke-linejoin="round" class="feather feather-parking-second"><path d="M8 .08a7.92 7.92 0 1 0 0 15.84A7.92 7.92 0 0 0 8 .08zm0 14.773A6.853 6.853 0 1 1 8 1.147a6.853 6.853 0 0 1 0 13.706z"></path><path d="M10.997 4.992a2.467 2.467 0 0 0-.848-.591 3.392 3.392 0 0 0-1.24-.231l-.099.001H5.081v8.251h1.813v-2.96h1.904l.109.002c.44 0 .861-.083 1.248-.234a2.48 2.48 0 0 0 .861-.588 2.27 2.27 0 0 0 .492-.833 3.157 3.157 0 0 0-.002-1.996 2.3 2.3 0 0 0-.511-.821zM9.765 7.467a.986.986 0 0 1-.348.371 1.386 1.386 0 0 1-.531.183 3.797 3.797 0 0 1-.61.049H6.889V5.579h1.408c.213 0 .422.017.625.051.178.023.358.087.518.182a.978.978 0 0 1 .343.365c.087.175.137.375.137.586l-.001.056v.028c0 .227-.057.441-.158.627z"></path></svg>