<svg xmlns="http://www.w3.org/2000/svg" width="24" height="24" viewBox="0 0 24 24" fill="none" stroke="currentColor" stroke-width="2" stroke-linecap="round" stroke-linejoin="round" class="feather feather-phone-3"><path d="M10.667 14.011l-1.824-2.896a.47.47 0 0 0-.652-.148l-.947.767c-.453.219-.875-.235-1.627-1.195L4.06 8.091c-.309-.635-.56-1.28-.123-1.6l1.067-.565a.47.47 0 0 0 .148-.658l.001.002-1.829-2.901a.47.47 0 0 0-.658-.148l-.948.751c-.56.491-1.936 2.763 1.067 7.632 3.109 5.056 5.925 4.944 6.629 4.592l1.099-.533a.475.475 0 0 0 .154-.648z"></path><path d="M8.203 6.155A1.656 1.656 0 0 1 9.381 8.01a.534.534 0 0 0 .446.593h.088c.268 0 .49-.198.528-.456a2.721 2.721 0 0 0-1.922-3.006.533.533 0 0 0-.316 1.018z"></path><path d="M13.915 3.733A7.372 7.372 0 0 0 9.818.669a.533.533 0 0 0-.349 1.009c2.652.777 4.554 3.185 4.554 6.036 0 .317-.023.628-.069.933a.533.533 0 0 0 .444.605h.088c.268 0 .49-.198.528-.456.051-.326.079-.698.079-1.077a7.298 7.298 0 0 0-1.195-4.015z"></path><path d="M9.131 2.907a.533.533 0 0 0-.297 1.022c1.676.49 2.878 2.011 2.878 3.811 0 .202-.015.401-.044.596a.534.534 0 0 0 .447.58h.088c.268 0 .49-.198.528-.456a5.031 5.031 0 0 0-3.565-5.546z"></path></svg>