<svg xmlns="http://www.w3.org/2000/svg" width="24" height="24" viewBox="0 0 24 24" fill="none" stroke="currentColor" stroke-width="2" stroke-linecap="round" stroke-linejoin="round" class="feather feather-privacy-2"><path d="M9.76 4.427a3.072 3.072 0 1 1-6.143.001 3.072 3.072 0 0 1 6.143-.001z"></path><path d="M16.059 10.667v-.006a4.224 4.224 0 0 0-7.92-2.047c-.386-.024-.82-.049-1.26-.049l-.201.002a10.478 10.478 0 0 0-3.393.495c-.961.321-1.77 1.098-2.147 2.088-.414 1.281-.826 2.903-1.149 4.557l13.44.294c-.048-.235-.149-.736-.277-1.339a4.24 4.24 0 0 0 2.907-3.993zm-4.224 3.424a3.424 3.424 0 1 1 3.424-3.424 3.43 3.43 0 0 1-3.429 3.408z"></path><path d="M13.285 12.389a.267.267 0 0 0 .267-.267v-1.989a.267.267 0 0 0-.267-.267h-.379v-.267a1.01 1.01 0 1 0-2.022 0v.261h-.379a.267.267 0 0 0-.267.267v2.011c0 .147.119.267.267.267zm-1.392-3.285c.262 0 .475.213.475.475v.261h-.949v-.256c0-.262.213-.475.475-.475h.006zm0 2.667a.143.143 0 0 1-.144-.144V11.2a.38.38 0 1 1 .291-.001l-.002.438a.144.144 0 0 1-.138.16z"></path></svg>