<svg xmlns="http://www.w3.org/2000/svg" width="24" height="24" viewBox="0 0 24 24" fill="none" stroke="currentColor" stroke-width="2" stroke-linecap="round" stroke-linejoin="round" class="feather feather-privacy"><path d="M13.029 5.701h-1.381v-.949a3.65 3.65 0 1 0-7.302 0v.949H2.97a.971.971 0 0 0-.971.971v7.253c0 .536.435.971.971.971h10.059a.971.971 0 0 0 .971-.971V6.672a.971.971 0 0 0-.971-.971zm-4.496 4.966v1.6a.534.534 0 0 1-1.034.004l-.001-1.604a1.365 1.365 0 1 1 1.043-.004zm1.206-4.955H6.278v-.96a1.723 1.723 0 0 1 3.446 0z"></path></svg>