<svg xmlns="http://www.w3.org/2000/svg" width="24" height="24" viewBox="0 0 24 24" fill="none" stroke="currentColor" stroke-width="2" stroke-linecap="round" stroke-linejoin="round" class="feather feather-quad-bed"><path d="M6.95 4.05H3.5c-.4 0-.75.4-.75.95v1.4c0 .05.05.15.15.15h4.7c.05 0 .05-.1.05-.15V5c-.05-.6-.35-.95-.7-.95z"></path><path d="M7.6 5.3c0-.05-.05-.15-.1-.15H2.8c-.05 0-.1.05-.1.15v1.1c0 .05.05.15.1.15h4.7c.05 0 .1-.05.1-.15V5.3z"></path><path d="M2.75 6.8h4.9v.4h-4.9v-.4z"></path><path d="M6.95 8h.3c.05 0 .05-.1.05-.2v-.4h-.4v.4c0 .1.05.2.05.2z"></path><path d="M6.9 7.65c0 .05 0 .05 0 0l.45.05v-.4h-.4v.05l-.05.3z"></path><path d="M6.9 1.4H3.3s-.05.05-.05.1v2.25h3.7V1.5c0-.05 0-.1-.05-.1zm-1 2.35H4.25c0-.4-.05-.75-.05-.75 0-.05.05-.15.15-.15 0 0 .4.1.8.1s.75-.05.75-.05.1.05.1.1c0 0-.1.35-.1.75z"></path><path d="M3.05 8h.3c.05 0 .05-.1.05-.2v-.4h-.35V8z"></path><path d="M3.05 7.65c0 .05 0 .05 0 0l.45.05v-.4h-.45v.35z"></path><path d="M12.1 4.05H8.65c-.4 0-.75.4-.75.95v1.4c0 .05.05.15.15.15h4.7c.05 0 .05-.1.05-.15V5c-.05-.6-.35-.95-.7-.95z"></path><path d="M12.75 5.3c0-.05-.05-.15-.1-.15H8c-.05 0-.1.05-.1.15v1.1c0 .05.05.15.1.15h4.7c.05 0 .1-.05.1-.15V5.3z"></path><path d="M7.9 6.8h4.9v.4H7.9v-.4z"></path><path d="M12.1 8h.3c.05 0 .05-.1.05-.2v-.4h-.4v.4c0 .1.05.2.05.2z"></path><path d="M12.05 7.65c0 .05.05.05 0 0l.45.05v-.4h-.4v.05l-.05.3z"></path><path d="M12.05 1.4H8.5c-.05 0-.1.05-.1.1v2.25h3.7V1.5c0-.05 0-.1-.05-.1zm-.95 2.35H9.45c0-.4-.1-.75-.1-.75 0-.05.05-.15.15-.15 0 0 .4.1.8.1s.75-.05.75-.05c.05 0 .15.05.15.15-.05-.05-.1.3-.1.7z"></path><path d="M8.25 8h.3c.05 0 .05-.1.05-.2v-.4h-.4v.4c0 .1.05.2.05.2z"></path><path d="M8.2 7.65c0 .05 0 .05 0 0l.45.05v-.4h-.4v.05l-.05.3z"></path><path d="M6.85 11.3H3.4c-.4 0-.75.4-.75.95v1.4c0 .05.05.15.15.15h4.7c.05 0 .05-.1.05-.15v-1.4c-.05-.55-.35-.95-.7-.95z"></path><path d="M7.5 12.55c0-.05-.05-.15-.1-.15H2.75c-.05 0-.1.05-.1.15v1.1c0 .05.05.15.1.15h4.7c.05 0 .1-.05.1-.15v-1.1z"></path><path d="M2.65 14.05h4.9v.4h-4.9v-.4z"></path><path d="M6.9 15.25h.3c.05 0 .05-.1.05-.2v-.4h-.4v.4c-.05.1 0 .2.05.2z"></path><path d="M6.8 14.95c0 .05 0 .05 0 0l.45.05v-.4h-.4v.05l-.05.3z"></path><path d="M6.8 8.7H3.25c-.05 0-.1.05-.1.1V11h3.7V8.75c.05-.05 0-.05-.05-.05zM5.85 11H4.2c0-.4-.1-.75-.1-.75 0-.05.05-.15.15-.15 0 0 .4.1.8.1s.75-.05.75-.05c.05 0 .15.05.15.15-.05-.05-.1.35-.1.7z"></path><path d="M3 15.25h.3c.05 0 .05-.1.05-.2v-.4h-.4v.4c0 .1 0 .2.05.2z"></path><path d="M2.95 14.95c0 .05 0 .05 0 0l.45.05v-.4h-.45v.35z"></path><path d="M12 11.3H8.55c-.4 0-.75.4-.75.95v1.4c0 .05.05.15.15.15h4.7c.05 0 .05-.1.05-.15v-1.4c-.05-.55-.3-.95-.7-.95z"></path><path d="M12.65 12.55c0-.05-.05-.15-.1-.15h-4.7c-.05 0-.1.05-.1.15v1.1c0 .05.05.15.1.15h4.7c.05 0 .1-.05.1-.15v-1.1z"></path><path d="M7.85 14.05h4.9v.4h-4.9v-.4z"></path><path d="M12.05 15.25h.3c.05 0 .05-.1.05-.2v-.4H12v.4c-.05.1 0 .2.05.2z"></path><path d="M11.95 14.95c0 .05.05.05 0 0l.45.05v-.4H12v.05l-.05.3z"></path><path d="M11.95 8.7H8.4c-.05 0-.1.05-.1.1V11H12V8.75c.05-.05 0-.05-.05-.05zM11 11H9.35c0-.4-.1-.75-.1-.75 0-.05.05-.15.15-.15 0 0 .4.1.8.1s.75-.05.75-.05c.05 0 .15.05.15.15 0-.05-.1.35-.1.7z"></path><path d="M8.15 15.25h.35c.05 0 .05-.1.05-.2v-.4h-.4v.4c-.05.1 0 .2 0 .2z"></path><path d="M8.1 14.95c0 .05 0 .05 0 0l.45.05v-.4h-.4v.05l-.05.3z"></path></svg>