<svg xmlns="http://www.w3.org/2000/svg" width="24" height="24" viewBox="0 0 24 24" fill="none" stroke="currentColor" stroke-width="2" stroke-linecap="round" stroke-linejoin="round" class="feather feather-sails"><path d="M15.45 12.15c-.05-.05-.05-.05 0 0C13.7 10.55 9.55 6.5 7.9 1.5c-.1-.35-.25-.4-.3-.4h-.1c-.2 0-.2.3-.2.4v10.75s.05.55.5.55h7.6c.7 0 .2-.5.05-.65z"></path><path d="M6.3 12.1V3.7c0-.1-.05-.2-.15-.2S6 3.7 6 3.7C3.65 9.25 1.4 11.6.45 12.45s-.05.05-.05.05c-.1.1-.3.3.05.3h5.2c.15 0 .65-.05.65-.7z"></path></svg>