<svg xmlns="http://www.w3.org/2000/svg" width="24" height="24" viewBox="0 0 24 24" fill="none" stroke="currentColor" stroke-width="2" stroke-linecap="round" stroke-linejoin="round" class="feather feather-search-2"><path d="M15.275 13.136l-3.973-3.973a.722.722 0 0 0-.988-.031l-.836-.838a4.955 4.955 0 1 0-1.175 1.179l.822.848a.724.724 0 0 0 .032.987l3.973 3.973a.726.726 0 0 0 1.034 0l1.109-1.109a.726.726 0 0 0 0-1.034zM2.709 8.187a3.873 3.873 0 1 1 2.742 1.136h-.01A3.84 3.84 0 0 1 2.71 8.187z"></path></svg>