<svg xmlns="http://www.w3.org/2000/svg" width="24" height="24" viewBox="0 0 24 24" fill="none" stroke="currentColor" stroke-width="2" stroke-linecap="round" stroke-linejoin="round" class="feather feather-shade-tent"><path d="M13.504 1.283a1.494 1.494 0 1 0 1.499 1.494 1.5 1.5 0 0 0-1.5-1.494zm0 2.567a1.083 1.083 0 1 1 1.083-1.083 1.083 1.083 0 0 1-1.083 1.077zm0-2.994a.211.211 0 0 0 .211-.211V.212a.214.214 0 0 0-.428 0v.433c0 .117.095.211.211.211h.006zm0 3.844a.211.211 0 0 0-.211.211v.428a.214.214 0 0 0 .428 0v-.428a.211.211 0 0 0-.21-.19h-.007zm1.662-3.281l.303-.303a.214.214 0 1 0-.303-.303l-.303.303a.214.214 0 1 0 .303.303zm-3.324 2.707l-.303.303a.214.214 0 1 0 .303.303l.303-.303a.214.214 0 1 0-.303-.303zm-.26-1.359a.21.21 0 0 0-.205-.211h-.433a.214.214 0 0 0 0 .428h.433a.212.212 0 0 0 .206-.205zm4.488-.211h-.428a.214.214 0 0 0 0 .428h.428a.214.214 0 0 0 0-.428zm-4.228-1.137a.214.214 0 1 0 .303-.303l-.303-.303a.214.214 0 1 0-.303.303zm3.324 2.707a.214.214 0 1 0-.303.303l.303.292a.214.214 0 1 0 .303-.303z"></path><path d="M14.933 2.778a1.425 1.425 0 1 1-2.85-.001 1.425 1.425 0 0 1 2.85.001z"></path><path d="M8.187 1.251l6.562 10.964L14.224 16 6.129 2.014l2.058-.763z"></path><path d="M6.297 2.155L.244 15.431"></path><path d="M6.075 2.047l2.112-.796.038.363-2.058.65-.092-.217z"></path></svg>