<svg xmlns="http://www.w3.org/2000/svg" width="24" height="24" viewBox="0 0 24 24" fill="none" stroke="currentColor" stroke-width="2" stroke-linecap="round" stroke-linejoin="round" class="feather feather-share-5"><path d="M14.683 0H1.318C.59 0 .001.59.001 1.317v13.365c0 .728.59 1.317 1.317 1.317h13.365c.728 0 1.317-.59 1.317-1.317V1.317C16 .589 15.41 0 14.683 0zM6.149 8a1.56 1.56 0 0 1-.05.384l3.57 1.941a1.563 1.563 0 1 1-.366.699L5.717 9.072a1.568 1.568 0 1 1-.001-2.135L9.317 4.97a1.568 1.568 0 1 1 .385.705L6.101 7.642c.03.106.049.229.053.355z"></path></svg>