<svg xmlns="http://www.w3.org/2000/svg" width="24" height="24" viewBox="0 0 24 24" fill="none" stroke="currentColor" stroke-width="2" stroke-linecap="round" stroke-linejoin="round" class="feather feather-snack"><path d="M12.171 12.512s-.299-1.461-.608-2.501a20.58 20.58 0 0 1-.862-2.649 19.78 19.78 0 0 1-.172-3.117c-.075-1.045-.299-2.533-.299-2.533L.315 3.488s.299 1.461.608 2.501c.306.756.607 1.693.847 2.655.132.951.189 1.872.189 2.806l-.002.297c.075 1.052.299 2.54.299 2.54l4.144-.741zm-1.376-1.067a2.448 2.448 0 0 0-.005-1.393c.197.339.363.71.485 1.1.079.243.147.505.2.772l-1.875.38s.944-.256 1.189-.859zM9.68 2.379c.137.402.223.865.24 1.347a12.862 12.862 0 0 0 .003 2.189c.103.358-.451-.73-.537-1.114s.48-1.525-.064-1.723a11.133 11.133 0 0 0-2.079-.277zM3.2 8.533a3.089 3.089 0 1 1 .003.019z"></path><path d="M.171 2.667l.059.336 9.904-1.76-.059-.336-.091-.565-.501.485-.592-.293-.48.501-.624-.299-.48.501-.624-.304-.48.501-.624-.304-.48.501-.624-.299-.48.501-.624-.304-.48.501-.624-.304-.48.501-.624-.299-.453.475-.64-.272.101.533z"></path><path d="M12.315 13.312l-.064-.331-9.909 1.781.059.331.101.565.501-.485.587.288.48-.501.624.304.485-.507.624.304.48-.501.624.304.48-.501.624.304.48-.501.624.304.48-.501.624.304.48-.507.624.309.453-.48.635.283-.096-.565z"></path><path d="M14.245 3.984a1.33 1.33 0 0 0 1.556.846l-.009.002c.278-.073.517-.21.71-.395a2.404 2.404 0 0 1-.527.529l1.3 1.322c.069.059.053 0 .053 0a.467.467 0 0 1 .055-.349c.121-.222.329-.131.489-.419s-.043-.395.101-.651.341-.149.496-.432-.032-.416.096-.64c.055-.108.146-.192.258-.234s.078-.028.003-.06l-2.027-.443a1.33 1.33 0 0 0-1.556-.846l.009-.002c-.278.073-.517.21-.71.395.151-.207.327-.383.527-.529L13.753.729c-.069-.059-.053 0-.053 0a.467.467 0 0 1-.055.349c-.121.222-.329.131-.489.419s.043.395-.101.651-.341.149-.496.432.032.416-.096.64c-.055.108-.146.192-.258.234s-.078.028-.003.06zm2.048.139c.027-.091.043-.165.096-.149s.069.101.043.192-.091.149-.139.133-.027-.091 0-.176zm-.208-1.456a.904.904 0 0 1 .409 1.073c-.094.25-.201-.273-.275-.54s-.272-.533-.133-.533z"></path><path d="M19.109 9.941a.474.474 0 0 1-.16-.307c-.032-.258.186-.306.144-.631s-.267-.293-.304-.581.187-.32.144-.645-.267-.309-.309-.576a.471.471 0 0 1 .076-.343c.052-.076.042-.068-.044-.036l-1.899.843a1.319 1.319 0 0 0-.743-.227c-.402 0-.762.178-1.005.46l-.001.002a1.597 1.597 0 0 0-.335.726 2.333 2.333 0 0 1 .132-.775l-1.84-.266c-.091 0-.032.048-.032.048a.474.474 0 0 1 .16.307c.032.258-.186.306-.144.631s.267.293.304.581-.187.32-.144.645.272.315.304.571a.471.471 0 0 1-.076.343c-.052.076-.042.068.044.036l1.899-.843c.208.142.466.227.743.227.402 0 .762-.178 1.005-.46l.001-.002c.167-.203.285-.453.335-.726.001.265-.046.529-.132.775l1.84.266c.096.011.037-.043.037-.043zM16 7.776a.9.9 0 0 1 .958.602c.077.268-.323-.09-.531-.255s-.555-.283-.427-.347zm1.115 1.168c-.048 0-.069-.053-.096-.139s-.064-.16 0-.176.117.037.149.128-.011.171-.059.187z"></path></svg>