<svg xmlns="http://www.w3.org/2000/svg" width="24" height="24" viewBox="0 0 24 24" fill="none" stroke="currentColor" stroke-width="2" stroke-linecap="round" stroke-linejoin="round" class="feather feather-soldier"><path d="M10.133 3.733a5.932 5.932 0 0 1 1.519.212c.279.076.561.161.807.252.538.227 1.003.51 1.418.851.284.296.284-.664.284-.664l.501-.683v-.027l-.053-.059-.037-.043-.075-.08-.096-.075-.096-.096-.08-.075-.117-.112-.096-.085-.144-.117-.112-.091-.176-.133-.117-.085-.24-.16-.091-.059a5.632 5.632 0 0 0-.368-.213l-.059-.059-.315-.155-.149-.064-.283-.112-.181-.059-.288-.085-.203-.048-.299-.011-.219-.032-.315-.027h-.779a5.701 5.701 0 0 0-.608.063l.08.567.048.571-.453 1.136a.085.085 0 0 0 .102.111c.38-.138.82-.23 1.278-.255z"></path><path d="M1.835 8.395c0-.805.875-1.093 1.173-1.168h.309a4.472 4.472 0 0 0 .004 1.52l1.308-.027c.308-.341.631-.653.972-.943a.58.58 0 0 0 .163-.19c.397.145.678.51.7.944-.064.845-1.131.808-1.195.808v.533h.064c.592 0 1.6-.261 1.659-1.285a1.477 1.477 0 0 0-.834-1.404l1.762-.004.192.112.032-.533-.192.091-1.963-.309c-.048-.192-.187-.581-.48-.576a2.165 2.165 0 0 1-.765-.002c-.334-.067-1.016-.233-1.208.189l-1.648-.283L.581 5.1.336 7.655l1.488-.411a1.492 1.492 0 0 0-.533 1.144v.009c.015.582.383 1.074.897 1.271l.01-.599a.8.8 0 0 1-.363-.67v-.002z"></path><path d="M13.963 9.067l-.475-1.52-.4.16a1.737 1.737 0 0 0-.089-.514 5.504 5.504 0 0 0 .856-1.69c-.122-.292-.613-.852-2.336-1.3a5.479 5.479 0 0 0-1.382-.197 2.656 2.656 0 0 0-1.339.268l-.08.052-.075 1.008s-.501.469-.501.613.048.187.288.341 0 .4 0 .485a.8.8 0 0 0 .129.209.221.221 0 0 0-.129.201v.006c.008.103.07.191.158.234s-.212.566.14.694a4.625 4.625 0 0 0 1.113.058l-.014.806-.533.203.357.901s-3.573 1.813-3.979 2.048-.848.293-.848-.357V8.981H2.611v1.237c0 1.451-.037 3.675-.037 3.835s-.08 1.067 1.157.992 4.32-.368 4.32-.368L7.694 16h7.669c.373-1.979.784-5.867-1.403-6.933z"></path></svg>