<svg xmlns="http://www.w3.org/2000/svg" width="24" height="24" viewBox="0 0 24 24" fill="none" stroke="currentColor" stroke-width="2" stroke-linecap="round" stroke-linejoin="round" class="feather feather-stove"><path d="M0 0v13.7h16V0H0zm4.75 12.8c-1.4 0-2.55-1.15-2.55-2.55S3.35 7.7 4.75 7.7 7.3 8.85 7.3 10.25 6.15 12.8 4.75 12.8zm0-5.9c-1.4 0-2.55-1.15-2.55-2.55S3.35 1.8 4.75 1.8 7.3 2.95 7.3 4.35 6.15 6.9 4.75 6.9zm6.2 5.9c-1.4 0-2.55-1.15-2.55-2.55S9.55 7.7 10.95 7.7s2.55 1.15 2.55 2.55-1.15 2.55-2.55 2.55zm0-5.9c-1.4 0-2.55-1.15-2.55-2.55S9.55 1.8 10.95 1.8 13.5 3 13.5 4.4s-1.15 2.5-2.55 2.5z"></path><path d="M0 13.9V16h16v-2.15H0zm9.5 1.35c-.3 0-.55-.25-.55-.55s.25-.55.55-.55c.3 0 .55.25.55.55s-.25.55-.55.55zm1.4 0c-.3 0-.55-.25-.55-.55s.25-.55.55-.55c.3 0 .55.25.55.55s-.25.55-.55.55zm1.4 0c-.3 0-.55-.25-.55-.55s.25-.55.55-.55c.3 0 .55.25.55.55s-.25.55-.55.55zm1.4 0c-.3 0-.55-.25-.55-.55s.25-.55.55-.55c.3 0 .55.25.55.55s-.25.55-.55.55z"></path></svg>