<svg xmlns="http://www.w3.org/2000/svg" width="24" height="24" viewBox="0 0 24 24" fill="none" stroke="currentColor" stroke-width="2" stroke-linecap="round" stroke-linejoin="round" class="feather feather-sunset-2"><path d="M19.2 10.027h-1.307a5.17 5.17 0 0 0 .608-2.449 5.237 5.237 0 1 0-9.852 2.477l-1.715-.028c-.133-.763-.683-1.515-2.389-1.376 0 0 .24-.533 1.323-.677l.224-.379.181.32s.971.432 1.067.432.139-.096.096-.347a1.458 1.458 0 0 0-1.607-1.194c-1.118.165-1.444 1.557-1.444 1.557s.128-2.037-1.429-2.395A1.474 1.474 0 0 0 1.07 7.03c-.153.649-.002.106.275.042a8.286 8.286 0 0 1 1.176-.058c.114 0 .328-.251.328-.251l.08.363s.997.336 1.003 1.237a2.39 2.39 0 0 0-2.713-.479C-.27 8.624.002 9.766.002 9.846s.043.176.277-.059c.2-.19.417-.366.649-.522l.188-.39.357.123a6.776 6.776 0 0 1 1.555-.176c.213 0 .424.01.632.028s-1.627.163-2.016 1.219c-.122.281-.194.608-.194.952s.071.671.2.968c.026.064.149.272.245-.128.093-.328.211-.613.358-.88l-.07-.368h.192s1.147-1.349 1.36-1.365c0 0-.869 2.539-.299 4.405h1.296a5.782 5.782 0 0 1-.525-4.2l.525.909h.304l-.117.304c.158.334.251.725.251 1.138v.003c0 .128.08.08.123-.043s.597-1.568-.304-2.528c.404.167.733.448.955.802l.138.008v.464h.155c.17.307.31.663.399 1.038.006.306.161.029.198-.11.075-.266.124-.575.138-.893l12.23-.009z"></path><path d="M9.851 11.28h7.872v.533H9.851v-.533z"></path><path d="M12.181 12.539h3.909v.533h-3.909v-.533z"></path></svg>