<svg xmlns="http://www.w3.org/2000/svg" width="24" height="24" viewBox="0 0 24 24" fill="none" stroke="currentColor" stroke-width="2" stroke-linecap="round" stroke-linejoin="round" class="feather feather-swimming-pool"><path d="M2.432 9.995v-.928h4.837v.853c.211.051.454.08.704.08h.363V5.547a3.28 3.28 0 1 1 6.554.007.532.532 0 0 0 1.067-.006 4.344 4.344 0 0 0-8.688 0H2.432a3.28 3.28 0 0 1 3.274-3.28 3.233 3.233 0 0 1 1.542.408l.48-.952a4.348 4.348 0 0 0-6.363 3.822v4.369c.243.052.523.083.809.085zm0-3.382h4.837V8H2.432z"></path><path d="M13.824 10.731c-1.6 0-1.627-.533-2.955-.533-1.6 0-1.6.533-2.869.533s-1.285-.533-2.869-.533c-1.328 0-1.371.533-2.955.533a5.449 5.449 0 0 1-2.208-.548L0 11.2c.636.312 1.38.505 2.167.533 1.609 0 1.636-.533 2.964-.533 1.6 0 1.6.533 2.869.533s1.285-.533 2.869-.533c1.328 0 1.371.533 2.955.533a5.449 5.449 0 0 0 2.208-.548L16 10.181a5.374 5.374 0 0 1-2.165.549z"></path><path d="M10.869 12.235c-1.6 0-1.6.533-2.869.533s-1.285-.533-2.869-.533c-1.328 0-1.371.533-2.955.533a5.449 5.449 0 0 1-2.208-.548L0 13.258c.636.312 1.38.505 2.167.533 1.609 0 1.636-.533 2.964-.533 1.6 0 1.6.533 2.869.533s1.285-.533 2.869-.533c1.328 0 1.371.533 2.955.533a5.449 5.449 0 0 0 2.208-.548L16 12.233a5.378 5.378 0 0 1-2.167.533c-1.567.032-1.636-.533-2.964-.533z"></path><path d="M13.824 14.832l-.098.001c-.414 0-.813-.061-1.19-.174a4.25 4.25 0 0 0-1.661-.371l-.076-.001c-.637 0-1.242.14-1.785.39a2.888 2.888 0 0 1-.946.155l-.065-.001-.059.001c-.349 0-.683-.061-.993-.172a4.135 4.135 0 0 0-1.738-.373l-.075.001a4.441 4.441 0 0 0-1.72.39 4.118 4.118 0 0 1-1.132.155l-.103-.001a4.468 4.468 0 0 1-1.179-.173 5.761 5.761 0 0 1-1.038-.386L.001 16h16v-1.712a5.582 5.582 0 0 1-.983.369c-.385.11-.781.17-1.19.175z"></path></svg>