<svg xmlns="http://www.w3.org/2000/svg" width="24" height="24" viewBox="0 0 24 24" fill="none" stroke="currentColor" stroke-width="2" stroke-linecap="round" stroke-linejoin="round" class="feather feather-table-tennis"><path d="M12.267 6.667c-1.179-7.083-5.653-7.2-8.944-4.933s-4.763 6.501 1.44 10.133L8.496 9.28z"></path><path d="M11.2 11.157a13.05 13.05 0 0 0 1.053-3.228l-3.187 2.108-3.2 2.192c.75.148 1.612.232 2.494.232.342 0 .682-.013 1.018-.038s.889 1.603 1.411 2.472a1.329 1.329 0 1 0 2.174-1.506z"></path><path d="M15.52 2.053a1.627 1.627 0 1 1-3.254 0 1.627 1.627 0 0 1 3.254 0z"></path></svg>