<svg xmlns="http://www.w3.org/2000/svg" width="24" height="24" viewBox="0 0 24 24" fill="none" stroke="currentColor" stroke-width="2" stroke-linecap="round" stroke-linejoin="round" class="feather feather-tick"><path d="M12.843 12.208c0 .736-.597 1.333-1.333 1.333H3.089a1.333 1.333 0 0 1-1.333-1.333V3.792c0-.736.597-1.333 1.333-1.333h8.421a1.33 1.33 0 0 1 1.106.593l.04-.022c.27-.18.591-.308.936-.361a2.354 2.354 0 0 0-2.082-1.26H3.088a2.4 2.4 0 0 0-2.4 2.4v8.4a2.4 2.4 0 0 0 2.4 2.4h8.421a2.4 2.4 0 0 0 2.4-2.4V8.001l-1.067.757z"></path><path d="M15.099 4.267a1.363 1.363 0 0 0-.197-.234l-.07-.059a1.176 1.176 0 0 0-.165-.119l-.091-.051a1.132 1.132 0 0 0-.199-.067l-.084-.002a1.278 1.278 0 0 0-.287-.037h-.044c-.254.005-.49.082-.688.211l-.432.312-5.755 4.123-.944-.987-.944-.992a1.297 1.297 0 0 0-.204-.173l-.084-.046a1.263 1.263 0 0 0-.142-.082l-.109-.035-.144-.043h-.501l-.149.043-.091.027a1.251 1.251 0 0 0-.16.083l-.069.034a1.318 1.318 0 0 0-.53 1.609c.062.163.157.31.275.434l2.666 2.767c.239.25.576.405.948.405h.007c.176-.005.342-.043.493-.11a1.21 1.21 0 0 0 .227-.107l7.098-5.037a1.318 1.318 0 0 0 .365-1.871z"></path></svg>