<svg xmlns="http://www.w3.org/2000/svg" width="24" height="24" viewBox="0 0 24 24" fill="none" stroke="currentColor" stroke-width="2" stroke-linecap="round" stroke-linejoin="round" class="feather feather-tour"><path d="M16.576 11.525c0-1.909-4.048-2.907-8.043-2.907S.49 9.599.49 11.525c0 1.643 2.971 2.523 5.755 2.795l.107-1.067c-3.125-.309-4.8-1.205-4.8-1.733 0-.624 2.464-1.84 6.976-1.84s6.976 1.216 6.976 1.84-1.936 1.573-5.52 1.813l.757-.651a.532.532 0 0 0-.361-.925.529.529 0 0 0-.338.121l-1.855 1.599v.032h-.032a.486.486 0 0 0-.031.056.51.51 0 0 0 0 .586.41.41 0 0 0 .032.059l.031-.002v.032l1.856 1.6a.533.533 0 0 0 .699-.805l-.784-.635c3.477-.219 6.619-1.195 6.619-2.875z"></path><path d="M16.24 2.709a1.48 1.48 0 0 0-1.304-.901l-.063-.001a1.52 1.52 0 0 0-.484.079l-3.621 1.181L6.576.288a.277.277 0 0 0-.138-.043.276.276 0 0 0-.103 0L4.737.778a.273.273 0 0 0-.132.422l1.797 2.383.533.736-2.72.891a.843.843 0 0 1-.272.044l-.05-.001a.88.88 0 0 1-.689-.391l-.178-.27a.597.597 0 0 0-.457-.267H2.45l-1.381.24a.39.39 0 0 0-.271.583l1.338 2.318a1.847 1.847 0 0 0 2.147.807l11.059-3.612a1.474 1.474 0 0 0 .898-1.957z"></path></svg>