<svg xmlns="http://www.w3.org/2000/svg" width="24" height="24" viewBox="0 0 24 24" fill="none" stroke="currentColor" stroke-width="2" stroke-linecap="round" stroke-linejoin="round" class="feather feather-tour-2"><path d="M16.576 11.525c0-1.909-4.048-2.907-8.043-2.907S.49 9.599.49 11.525c0 1.643 2.971 2.523 5.755 2.795l.107-1.067c-3.125-.309-4.8-1.205-4.8-1.733 0-.624 2.464-1.84 6.976-1.84s6.976 1.216 6.976 1.84-1.936 1.573-5.52 1.813l.757-.651a.532.532 0 0 0-.361-.925.529.529 0 0 0-.338.121l-1.855 1.599v.032h-.032a.486.486 0 0 0-.031.056.51.51 0 0 0 0 .586.41.41 0 0 0 .032.059l.031-.002v.032l1.856 1.6a.533.533 0 0 0 .699-.805l-.784-.635c3.477-.219 6.619-1.195 6.619-2.875z"></path><path d="M13.819 0H3.196a.785.785 0 0 0-.741.528l-.791 2.39c-.071.21-.112.451-.112.702v3.389h1.771v-.053a1.7 1.7 0 1 1 3.402 0v.053h4.203v-.053a1.7 1.7 0 1 1 3.402 0v.053h1.339V.572a.57.57 0 0 0-.571-.571h-.017zM4.293 4.651a.203.203 0 0 1-.203.203H2.965a.203.203 0 0 1-.203-.203V3.595c0-.141.023-.277.067-.404l.653-2.018a.204.204 0 0 1 .198-.106h.415c.112 0 .203.091.203.203zm3.59-1.563a.1.1 0 0 1-.101.101H5.451l-.016.001a.1.1 0 0 1-.101-.101V1.163a.101.101 0 0 1 .118-.096h2.33a.1.1 0 0 1 .101.101zm3.466 0a.1.1 0 0 1-.101.101H8.837a.1.1 0 0 1-.101-.101V1.163a.101.101 0 0 1 .101-.096h2.416a.1.1 0 0 1 .101.101zm3.254-1.067v.976a.203.203 0 0 1-.203.203h-1.867a.203.203 0 0 1-.203-.203V1.258a.203.203 0 0 1 .202-.192h1.835c.13 0 .235.105.235.235z"></path><path d="M5.019 5.701a1.253 1.253 0 1 0 1.253 1.253v-.022a1.253 1.253 0 0 0-1.253-1.231zm0 1.782a.533.533 0 1 1 .533-.533.533.533 0 0 1-.533.517z"></path><path d="M12.613 5.701a1.253 1.253 0 1 0 1.253 1.253v-.022a1.253 1.253 0 0 0-1.253-1.231zm0 1.782a.533.533 0 1 1 .533-.533.533.533 0 0 1-.533.517z"></path></svg>