<svg xmlns="http://www.w3.org/2000/svg" width="24" height="24" viewBox="0 0 24 24" fill="none" stroke="currentColor" stroke-width="2" stroke-linecap="round" stroke-linejoin="round" class="feather feather-turkish-gullet"><path d="M20.24 15.109c-.949 0-1.024.533-1.952.533-.811 0-1.152-.533-2.133-.533s-1.221.565-2.107.565-1.344-.571-2.293-.571-1.6.597-2.315.597-1.147-.597-2.347-.597c-1.312 0-1.6.891-2.485.891h17.845c-.976.005-.976-.885-2.213-.885z"></path><path d="M7.093 14.443c1.2 0 1.632.597 2.347.597s1.365-.597 2.315-.597 1.344.571 2.293.571 1.067-.571 2.085-.571 1.344.533 2.133.533.987-.421 1.712-.501l.293-3.04-5.067-.363.096-1.136 3.733.32-3.632-7.403-.688 8.171-.789-.059-.416.88a312.121 312.121 0 0 1-6.48-.373l.112-1.371 6 .683L7.967 0 .863 9.6l5.765.437-.112 1.381c-3.579-.219-6.549-.469-6.549-.469v.453l2.576.533s.965 2.293 2.816 3.141a2.935 2.935 0 0 1 1.728-.635zm1.744-8.4l.315.325.448-.075-.213.4.213.405-.448-.08-.32.325-.064-.453-.405-.203.411-.203zm-3.504.624v-.018A1.643 1.643 0 0 1 8.438 5.9a1.318 1.318 0 1 0-1.075 2.081c.445 0 .838-.221 1.077-.559a1.641 1.641 0 0 1-3.107-.744v-.013z"></path></svg>