<svg xmlns="http://www.w3.org/2000/svg" width="24" height="24" viewBox="0 0 24 24" fill="none" stroke="currentColor" stroke-width="2" stroke-linecap="round" stroke-linejoin="round" class="feather feather-video-3"><path d="M13.867 4.8L12 5.659v-.965a.597.597 0 0 0-.597-.597h-1.067a2.133 2.133 0 1 0-2.243-.005l-2.428.005a2.133 2.133 0 1 0-2.243-.005l-1.095.005a.597.597 0 0 0-.597.597v4.373c0 .33.267.597.597.597h2.192v.469l.608.752-3.173 4.267a.437.437 0 0 0 .692.534l3.414-4.577h.379v4.315a.435.435 0 0 0 .87 0v-4.331h.379l3.413 4.576a.437.437 0 1 0 .693-.534l-3.173-4.266.608-.736v-.475h2.192a.597.597 0 0 0 .597-.592v-.987l1.851.864a.272.272 0 0 0 .389-.245V5.066l.001-.022a.272.272 0 0 0-.392-.244zM9.259 1.552h.011a.737.737 0 1 1-.736.736c0-.403.323-.73.725-.736zm-4.715 0a.737.737 0 1 1-.736.736c0-.406.33-.736.736-.736h.006zM3.077 5.744l-.001-.021c0-.215.174-.389.389-.389h5.067c.215 0 .389.174.389.389v.261a.389.389 0 0 1-.388.416H3.471a.389.389 0 0 1-.389-.389zm0 2.24v-.261c0-.215.174-.389.389-.389h2.469c.215 0 .389.174.389.389V8a.389.389 0 0 1-.389.389H3.466A.389.389 0 0 1 3.077 8z"></path></svg>