<svg xmlns="http://www.w3.org/2000/svg" width="24" height="24" viewBox="0 0 24 24" fill="none" stroke="currentColor" stroke-width="2" stroke-linecap="round" stroke-linejoin="round" class="feather feather-waterski"><path d="M5.4 2.9c.45.4 1.15.35 1.55-.1s.35-1.15-.1-1.55S5.7.9 5.3 1.35c-.4.45-.35 1.15.1 1.55z"></path><path d="M8.2 11.45S7.85 9.5 7.8 9.1c-.05-.35-.3-.45-.65-.4s-.9.25-1.4.4c-.5.1-1.65 0-1.9-1.15 0 0-.7-2.65.8-3.9.35-.3 1.05-.55 1.6-.1S7.4 5.7 7.4 5.7s1.5-.5 1.9-.55c.75-.15 1 .3.2.65-1.3.6-2.15.95-2.4.8-.35-.15-.8-.7-.8-.7l-.2 1.5c.6-.15 1.15-.25 1.3-.3.45-.1 1.5-.2 1.75 1.15.2 1.3.4 2.7.4 2.7z"></path><path d="M3.55 13.25L13.4 9.7s1.15-.5.95-1.55"></path><path d="M4.75 15.4c.95-.1 1.85-.35 2.6-.8l.5-.25c1.2-.7 2.6-1.1 4.15-1.1 1.45 0 2.8.35 4 1.05v-1c-1.2-.7-2.55-1.05-4-1.05-1.3 0-2.55.3-3.65.85l-1 .45c-.85.4-1.7.75-2.7.85-1.5.15-2.95-.05-4.25-.65v.95c1.4.6 2.85.85 4.35.7z"></path><path d="M9.6 5.3H16"></path></svg>