<svg xmlns="http://www.w3.org/2000/svg" width="24" height="24" viewBox="0 0 24 24" fill="none" stroke="currentColor" stroke-width="2" stroke-linecap="round" stroke-linejoin="round" class="feather feather-water-capacity"><path d="M4.75 7.55c.9-.1 1.75-.35 2.5-.75l.5-.25C8.9 5.9 10.25 5.5 11.7 5.5c1.4 0 2.7.35 3.85 1v-.9a7.75 7.75 0 0 0-3.85-1c-1.25 0-2.45.3-3.5.8l-.95.45c-.8.4-1.65.7-2.6.8-1.45.15-2.8-.05-4.05-.6v.9c1.3.55 2.7.8 4.15.6z"></path><path d="M4.75 9.9c.9-.1 1.75-.35 2.5-.75l.5-.25c1.15-.65 2.5-1.05 3.95-1.05 1.4 0 2.7.35 3.85 1V7.9a7.75 7.75 0 0 0-3.85-1c-1.25 0-2.45.3-3.5.8l-.95.45c-.8.4-1.65.7-2.6.8-1.45.15-2.8-.05-4.05-.6v.9c1.3.55 2.7.8 4.15.65z"></path><path d="M4.75 11.95c.9-.1 1.75-.35 2.5-.75l.5-.25c1.15-.65 2.5-1.05 3.95-1.05 1.4 0 2.7.35 3.85 1v-.95a7.75 7.75 0 0 0-3.85-1c-1.25 0-2.45.3-3.5.8l-.95.45c-.8.4-1.65.7-2.6.8-1.45.15-2.8-.05-4.05-.6v.9c1.3.55 2.7.8 4.15.65z"></path><path d="M.6 6.6v9.05h14.95V6.2h-8.2l-1.6 1.45h-4z"></path><path d="M15.35 7.1c0 1.16-1.88 2.1-4.2 2.1s-4.2-.94-4.2-2.1c0-1.16 1.88-2.1 4.2-2.1s4.2.94 4.2 2.1z"></path><path d="M7.4 7.9c0 .663-1.522 1.2-3.4 1.2S.6 8.563.6 7.9c0-.663 1.522-1.2 3.4-1.2s3.4.537 3.4 1.2z"></path></svg>